<mxfile host="app.diagrams.net" modified="2021-03-12T09:23:30.758Z" agent="5.0 (Windows NT 10.0; WOW64) AppleWebKit/537.36 (KHTML, like Gecko) Chrome/76.0.3809.100 Safari/537.36" etag="aPz8LB42H7jxlnNthPWu" version="14.4.7" type="github">
  <diagram id="6a731a19-8d31-9384-78a2-239565b7b9f0" name="Page-1">
    <mxGraphModel dx="1422" dy="744" grid="1" gridSize="10" guides="1" tooltips="1" connect="1" arrows="1" fold="1" page="1" pageScale="1" pageWidth="1169" pageHeight="827" background="#003469" math="0" shadow="0">
      <root>
        <mxCell id="0" />
        <mxCell id="1" parent="0" />
        <mxCell id="2019" value="" style="rounded=1;whiteSpace=wrap;html=1;dashed=1;strokeColor=none;strokeWidth=2;fillColor=#E6E6E6;fontFamily=Verdana;fontSize=12;fontColor=#00BEF2" parent="1" vertex="1">
          <mxGeometry x="41" y="120" width="165" height="670" as="geometry" />
        </mxCell>
        <mxCell id="2020" value="" style="rounded=1;whiteSpace=wrap;html=1;dashed=1;strokeColor=none;strokeWidth=2;fillColor=#E6E6E6;fontFamily=Verdana;fontSize=12;fontColor=#00BEF2" parent="1" vertex="1">
          <mxGeometry x="220" y="120" width="165" height="670" as="geometry" />
        </mxCell>
        <mxCell id="2021" value="" style="rounded=1;whiteSpace=wrap;html=1;dashed=1;strokeColor=none;strokeWidth=2;fillColor=#E6E6E6;fontFamily=Verdana;fontSize=12;fontColor=#00BEF2" parent="1" vertex="1">
          <mxGeometry x="400" y="120" width="165" height="670" as="geometry" />
        </mxCell>
        <mxCell id="2022" value="" style="rounded=1;whiteSpace=wrap;html=1;dashed=1;strokeColor=none;strokeWidth=2;fillColor=#E6E6E6;fontFamily=Verdana;fontSize=12;fontColor=#00BEF2" parent="1" vertex="1">
          <mxGeometry x="580" y="120" width="165" height="670" as="geometry" />
        </mxCell>
        <mxCell id="2023" value="" style="rounded=1;whiteSpace=wrap;html=1;dashed=1;strokeColor=none;strokeWidth=2;fillColor=#E6E6E6;fontFamily=Verdana;fontSize=12;fontColor=#00BEF2" parent="1" vertex="1">
          <mxGeometry x="760" y="120" width="165" height="670" as="geometry" />
        </mxCell>
        <mxCell id="2024" value="" style="rounded=1;whiteSpace=wrap;html=1;dashed=1;strokeColor=none;strokeWidth=2;fillColor=#E6E6E6;fontFamily=Verdana;fontSize=12;fontColor=#00BEF2" parent="1" vertex="1">
          <mxGeometry x="940" y="120" width="165" height="670" as="geometry" />
        </mxCell>
        <mxCell id="2025" value="user" style="whiteSpace=wrap;html=1;dashed=1;strokeColor=none;strokeWidth=2;fillColor=#3399FF;fontFamily=Helvetica;fontSize=18;fontColor=#FFFFFF;fontStyle=1" parent="1" vertex="1">
          <mxGeometry x="40" y="120" width="165" height="60" as="geometry" />
        </mxCell>
        <mxCell id="2026" value="client" style="whiteSpace=wrap;html=1;dashed=1;strokeColor=none;strokeWidth=2;fillColor=#3399FF;fontFamily=Helvetica;fontSize=18;fontColor=#FFFFFF;fontStyle=1" parent="1" vertex="1">
          <mxGeometry x="220" y="120" width="165" height="60" as="geometry" />
        </mxCell>
        <mxCell id="2027" value="DNS" style="whiteSpace=wrap;html=1;dashed=1;strokeColor=none;strokeWidth=2;fillColor=#3399FF;fontFamily=Helvetica;fontSize=18;fontColor=#FFFFFF;fontStyle=1" parent="1" vertex="1">
          <mxGeometry x="400" y="120" width="165" height="60" as="geometry" />
        </mxCell>
        <mxCell id="2028" value="Outproxy" style="whiteSpace=wrap;html=1;dashed=1;strokeColor=none;strokeWidth=2;fillColor=#3399FF;fontFamily=Helvetica;fontSize=18;fontColor=#FFFFFF;fontStyle=1" parent="1" vertex="1">
          <mxGeometry x="580" y="120" width="170" height="60" as="geometry" />
        </mxCell>
        <mxCell id="2029" value="Inproxy" style="whiteSpace=wrap;html=1;dashed=1;strokeColor=none;strokeWidth=2;fillColor=#3399FF;fontFamily=Helvetica;fontSize=18;fontColor=#FFFFFF;fontStyle=1" parent="1" vertex="1">
          <mxGeometry x="760" y="120" width="165" height="60" as="geometry" />
        </mxCell>
        <mxCell id="2030" value="App" style="whiteSpace=wrap;html=1;dashed=1;strokeColor=none;strokeWidth=2;fillColor=#3399FF;fontFamily=Helvetica;fontSize=18;fontColor=#FFFFFF;fontStyle=1" parent="1" vertex="1">
          <mxGeometry x="940" y="120" width="165" height="60" as="geometry" />
        </mxCell>
        <mxCell id="2031" value="" style="shape=mxgraph.arrows.two_way_arrow_horizontal;html=1;verticalLabelPosition=bottom;verticalAlign=top;strokeWidth=2;strokeColor=none;dashed=1;fillColor=#FFFFFF;fontFamily=Verdana;fontSize=12;fontColor=#00BEF2" parent="1" vertex="1">
          <mxGeometry x="180" y="131" width="67" height="39" as="geometry" />
        </mxCell>
        <mxCell id="2032" value="" style="shape=mxgraph.arrows.two_way_arrow_horizontal;html=1;verticalLabelPosition=bottom;verticalAlign=top;strokeWidth=2;strokeColor=none;dashed=1;fillColor=#FFFFFF;fontFamily=Verdana;fontSize=12;fontColor=#00BEF2" parent="1" vertex="1">
          <mxGeometry x="360" y="131" width="67" height="39" as="geometry" />
        </mxCell>
        <mxCell id="2033" value="" style="shape=mxgraph.arrows.two_way_arrow_horizontal;html=1;verticalLabelPosition=bottom;verticalAlign=top;strokeWidth=2;strokeColor=none;dashed=1;fillColor=#FFFFFF;fontFamily=Verdana;fontSize=12;fontColor=#00BEF2" parent="1" vertex="1">
          <mxGeometry x="540" y="131" width="67" height="39" as="geometry" />
        </mxCell>
        <mxCell id="2034" value="" style="shape=mxgraph.arrows.two_way_arrow_horizontal;html=1;verticalLabelPosition=bottom;verticalAlign=top;strokeWidth=2;strokeColor=none;dashed=1;fillColor=#FFFFFF;fontFamily=Verdana;fontSize=12;fontColor=#00BEF2" parent="1" vertex="1">
          <mxGeometry x="720" y="131" width="67" height="39" as="geometry" />
        </mxCell>
        <mxCell id="2035" value="" style="shape=mxgraph.arrows.two_way_arrow_horizontal;html=1;verticalLabelPosition=bottom;verticalAlign=top;strokeWidth=2;strokeColor=none;dashed=1;fillColor=#FFFFFF;fontFamily=Verdana;fontSize=12;fontColor=#00BEF2" parent="1" vertex="1">
          <mxGeometry x="900" y="131" width="67" height="39" as="geometry" />
        </mxCell>
        <mxCell id="2047" value="Windows Azure Management Portal" style="text;html=1;strokeColor=none;fillColor=none;align=center;verticalAlign=middle;whiteSpace=wrap;overflow=hidden;dashed=1;fontSize=36;fontColor=#FFFFFF;fontFamily=Helvetica;fontStyle=1" parent="1" vertex="1">
          <mxGeometry x="40" y="50" width="1060" height="50" as="geometry" />
        </mxCell>
        <mxCell id="2075" value="" style="arrow;html=1;endArrow=block;endFill=1;strokeColor=none;strokeWidth=4;fontFamily=Helvetica;fontSize=36;fontColor=#FFB366;fillColor=#FFB366;" parent="1" edge="1">
          <mxGeometry width="100" height="100" relative="1" as="geometry">
            <mxPoint x="173.5" y="434" as="sourcePoint" />
            <mxPoint x="253.5" y="434" as="targetPoint" />
          </mxGeometry>
        </mxCell>
        <mxCell id="2077" value="" style="arrow;html=1;endArrow=block;endFill=1;strokeColor=none;strokeWidth=4;fontFamily=Helvetica;fontSize=36;fontColor=#FFB366;fillColor=#FFB366;" parent="1" edge="1">
          <mxGeometry width="100" height="100" relative="1" as="geometry">
            <mxPoint x="533.5" y="434" as="sourcePoint" />
            <mxPoint x="613.5" y="434" as="targetPoint" />
          </mxGeometry>
        </mxCell>
        <mxCell id="2078" value="" style="arrow;html=1;endArrow=block;endFill=1;strokeColor=none;strokeWidth=4;fontFamily=Helvetica;fontSize=36;fontColor=#FFB366;fillColor=#FFB366;" parent="1" edge="1">
          <mxGeometry width="100" height="100" relative="1" as="geometry">
            <mxPoint x="709.5" y="434" as="sourcePoint" />
            <mxPoint x="789.5" y="434" as="targetPoint" />
          </mxGeometry>
        </mxCell>
        <mxCell id="2080" value="" style="arrow;html=1;endArrow=block;endFill=1;strokeColor=none;strokeWidth=4;fontFamily=Helvetica;fontSize=36;fontColor=#FFB366;fillColor=#FFB366;" parent="1" edge="1">
          <mxGeometry width="100" height="100" relative="1" as="geometry">
            <mxPoint x="900" y="434" as="sourcePoint" />
            <mxPoint x="980" y="434" as="targetPoint" />
          </mxGeometry>
        </mxCell>
        <mxCell id="2084" value="" style="arrow;html=1;endArrow=block;endFill=1;strokeColor=none;strokeWidth=4;fontFamily=Helvetica;fontSize=36;fontColor=#FFB366;fillColor=#FFB366;" parent="1" edge="1">
          <mxGeometry width="100" height="100" relative="1" as="geometry">
            <mxPoint x="347" y="434" as="sourcePoint" />
            <mxPoint x="427" y="434" as="targetPoint" />
          </mxGeometry>
        </mxCell>
        <mxCell id="a0yiWjh66o21EPFuuch4-2086" value="" style="rounded=1;whiteSpace=wrap;html=1;dashed=1;strokeColor=none;strokeWidth=2;fillColor=#E6E6E6;fontFamily=Verdana;fontSize=12;fontColor=#00BEF2" vertex="1" parent="1">
          <mxGeometry x="1140" y="120" width="165" height="670" as="geometry" />
        </mxCell>
        <mxCell id="a0yiWjh66o21EPFuuch4-2087" value="Cache" style="whiteSpace=wrap;html=1;dashed=1;strokeColor=none;strokeWidth=2;fillColor=#3399FF;fontFamily=Helvetica;fontSize=18;fontColor=#FFFFFF;fontStyle=1" vertex="1" parent="1">
          <mxGeometry x="1140" y="120" width="165" height="60" as="geometry" />
        </mxCell>
        <mxCell id="a0yiWjh66o21EPFuuch4-2088" value="" style="rounded=1;whiteSpace=wrap;html=1;dashed=1;strokeColor=none;strokeWidth=2;fillColor=#E6E6E6;fontFamily=Verdana;fontSize=12;fontColor=#00BEF2" vertex="1" parent="1">
          <mxGeometry x="1340" y="120" width="165" height="670" as="geometry" />
        </mxCell>
        <mxCell id="a0yiWjh66o21EPFuuch4-2089" value="Database" style="whiteSpace=wrap;html=1;dashed=1;strokeColor=none;strokeWidth=2;fillColor=#3399FF;fontFamily=Helvetica;fontSize=18;fontColor=#FFFFFF;fontStyle=1" vertex="1" parent="1">
          <mxGeometry x="1340" y="120" width="165" height="60" as="geometry" />
        </mxCell>
        <mxCell id="a0yiWjh66o21EPFuuch4-2090" value="" style="shape=mxgraph.arrows.two_way_arrow_horizontal;html=1;verticalLabelPosition=bottom;verticalAlign=top;strokeWidth=2;strokeColor=none;dashed=1;fillColor=#FFFFFF;fontFamily=Verdana;fontSize=12;fontColor=#00BEF2" vertex="1" parent="1">
          <mxGeometry x="1090" y="131" width="67" height="39" as="geometry" />
        </mxCell>
        <mxCell id="a0yiWjh66o21EPFuuch4-2091" value="" style="shape=mxgraph.arrows.two_way_arrow_horizontal;html=1;verticalLabelPosition=bottom;verticalAlign=top;strokeWidth=2;strokeColor=none;dashed=1;fillColor=#FFFFFF;fontFamily=Verdana;fontSize=12;fontColor=#00BEF2" vertex="1" parent="1">
          <mxGeometry x="1290" y="131" width="67" height="39" as="geometry" />
        </mxCell>
        <mxCell id="a0yiWjh66o21EPFuuch4-2094" value="Social" style="verticalLabelPosition=bottom;html=1;verticalAlign=top;strokeColor=none;fillColor=#3399FF;shape=mxgraph.azure.user;dashed=1;fontSize=14;fontColor=#004C99" vertex="1" parent="1">
          <mxGeometry x="92" y="402" width="47.5" height="50" as="geometry" />
        </mxCell>
        <mxCell id="a0yiWjh66o21EPFuuch4-2118" value="" style="edgeStyle=orthogonalEdgeStyle;rounded=0;orthogonalLoop=1;jettySize=auto;html=1;" edge="1" parent="1" source="a0yiWjh66o21EPFuuch4-2096" target="a0yiWjh66o21EPFuuch4-2098">
          <mxGeometry relative="1" as="geometry" />
        </mxCell>
        <mxCell id="a0yiWjh66o21EPFuuch4-2096" value="" style="shape=image;verticalLabelPosition=bottom;labelBackgroundColor=#ffffff;verticalAlign=top;aspect=fixed;imageAspect=0;image=data:image/svg+xml,PHN2ZyB4bWxuczpjYz0iaHR0cDovL2NyZWF0aXZlY29tbW9ucy5vcmcvbnMjIiB4bWxuczpkYz0iaHR0cDovL3B1cmwub3JnL2RjL2VsZW1lbnRzLzEuMS8iIHhtbG5zOmlua3NjYXBlPSJodHRwOi8vd3d3Lmlua3NjYXBlLm9yZy9uYW1lc3BhY2VzL2lua3NjYXBlIiB4bWxuczpyZGY9Imh0dHA6Ly93d3cudzMub3JnLzE5OTkvMDIvMjItcmRmLXN5bnRheC1ucyMiIHhtbG5zOnNvZGlwb2RpPSJodHRwOi8vc29kaXBvZGkuc291cmNlZm9yZ2UubmV0L0RURC9zb2RpcG9kaS0wLmR0ZCIgeG1sbnM6c3ZnPSJodHRwOi8vd3d3LnczLm9yZy8yMDAwL3N2ZyIgeG1sbnM9Imh0dHA6Ly93d3cudzMub3JnLzIwMDAvc3ZnIiB4bWxuczp4bGluaz0iaHR0cDovL3d3dy53My5vcmcvMTk5OS94bGluayIgdmVyc2lvbj0iMS4xIiBpZD0ic3ZnMTE5NSIgaW5rc2NhcGU6dmVyc2lvbj0iMC45Mi4zICgyNDA1NTQ2LCAyMDE4LTAzLTExKSIgc29kaXBvZGk6ZG9jbmFtZT0iYW5kcm9pZC5zdmciIHg9IjBweCIgeT0iMHB4IiB2aWV3Qm94PSIwIDAgMjkuMzggNTAuODUiIHN0eWxlPSJlbmFibGUtYmFja2dyb3VuZDpuZXcgMCAwIDI5LjM4IDUwLjg1OyIgeG1sOnNwYWNlPSJwcmVzZXJ2ZSI+JiN4YTs8c29kaXBvZGk6bmFtZWR2aWV3IGJvcmRlcmNvbG9yPSIjNjY2NjY2IiBib3JkZXJvcGFjaXR5PSIxIiBmaXQtbWFyZ2luLWJvdHRvbT0iMCIgZml0LW1hcmdpbi1sZWZ0PSIwIiBmaXQtbWFyZ2luLXJpZ2h0PSIwIiBmaXQtbWFyZ2luLXRvcD0iMCIgZ3JpZHRvbGVyYW5jZT0iMTAiIGd1aWRldG9sZXJhbmNlPSIxMCIgaWQ9Im5hbWVkdmlldzExOTciIGlua3NjYXBlOmN1cnJlbnQtbGF5ZXI9InN2ZzExOTUiIGlua3NjYXBlOmN4PSIxOS41ODkzNCIgaW5rc2NhcGU6Y3k9IjMzLjg5NzQ3NiIgaW5rc2NhcGU6cGFnZW9wYWNpdHk9IjAiIGlua3NjYXBlOnBhZ2VzaGFkb3c9IjIiIGlua3NjYXBlOndpbmRvdy1oZWlnaHQ9IjEwMTciIGlua3NjYXBlOndpbmRvdy1tYXhpbWl6ZWQ9IjEiIGlua3NjYXBlOndpbmRvdy13aWR0aD0iMTkyMCIgaW5rc2NhcGU6d2luZG93LXg9Ii04IiBpbmtzY2FwZTp3aW5kb3cteT0iLTgiIGlua3NjYXBlOnpvb209IjEyLjc4NjY1MSIgb2JqZWN0dG9sZXJhbmNlPSIxMCIgcGFnZWNvbG9yPSIjZmZmZmZmIiBzaG93Z3JpZD0iZmFsc2UiPiYjeGE7CTwvc29kaXBvZGk6bmFtZWR2aWV3PiYjeGE7PGcgaWQ9ImcxMTkzIiB0cmFuc2Zvcm09InRyYW5zbGF0ZSgtMi42ODI2ODU1ZS01KSI+JiN4YTsJPHRpdGxlIGlkPSJ0aXRsZTExNjMiPlBhZ2UtMTwvdGl0bGU+JiN4YTsJPGcgaWQ9Imdyb3VwMzQ5OS0xIj4mI3hhOwkJPHRpdGxlIGlkPSJ0aXRsZTExNjUiPkFuZHJvaWQ8L3RpdGxlPiYjeGE7CQk8ZyBpZD0ic2hhcGUzNTAwLTIiPiYjeGE7CQkJPHRpdGxlIGlkPSJ0aXRsZTExNjciPlNoZWV0LjM1MDA8L3RpdGxlPiYjeGE7CQkJPHBhdGggaWQ9InBhdGgxMTY5IiBpbmtzY2FwZTpjb25uZWN0b3ItY3VydmF0dXJlPSIwIiBzdHlsZT0iZmlsbDojM0Y1NzY1OyIgZD0iTTI3LjQzLDBDMi4xLDAsMi4xLDAsMi4xLDBDMC45MiwwLDAsMC44LDAsMS44NCAgICAgYzAsNDYuOTUsMCw0Ni45NSwwLDQ2Ljk1YzAsMC45MiwwLjkyLDIuMDYsMi4xLDIuMDZjMjUuMzMsMCwyNS4zMywwLDI1LjMzLDBjMS4wNywwLDEuOTUtMS4xNCwxLjk1LTIuMDYgICAgIGMwLTQ2Ljk1LDAtNDYuOTUsMC00Ni45NUMyOS4zOCwwLjgsMjguNSwwLDI3LjQzLDB6Ii8+JiN4YTsJCTwvZz4mI3hhOwkJPGcgaWQ9InNoYXBlMzUwMS00IiB0cmFuc2Zvcm09InRyYW5zbGF0ZSgzLjA2MDg0LC03LjI1MTY3KSI+JiN4YTsJCQk8dGl0bGUgaWQ9InRpdGxlMTE3MiI+U2hlZXQuMzUwMTwvdGl0bGU+JiN4YTsJCQk8cGF0aCBpZD0icGF0aDExNzQiIGlua3NjYXBlOmNvbm5lY3Rvci1jdXJ2YXR1cmU9IjAiIHN0eWxlPSJmaWxsOiNGRkZGRkY7IiBkPSJNMCwxMC41OWgyMy4yNnY0MC4yNkgwVjEwLjU5eiIvPiYjeGE7CQk8L2c+JiN4YTsJCTxnIGlkPSJzaGFwZTM1MDItNiIgdHJhbnNmb3JtPSJ0cmFuc2xhdGUoMTIuODU1NSwtMy4wNjM0OCkiPiYjeGE7CQkJPHRpdGxlIGlkPSJ0aXRsZTExNzciPlNoZWV0LjM1MDI8L3RpdGxlPiYjeGE7CQkJPHBhdGggaWQ9InBhdGgxMTc5IiBpbmtzY2FwZTpjb25uZWN0b3ItY3VydmF0dXJlPSIwIiBzdHlsZT0iZmlsbDojRkZGRkZGOyIgZD0iTTAsNDkuMzJjMC0wLjg0LDAuNzctMS41MywxLjY0LTEuNTMgICAgIGMwLjkzLDAsMS42NSwwLjY5LDEuNjUsMS41M2MwLDAuODgtMC43MiwxLjUzLTEuNjUsMS41M0MwLjc3LDUwLjg1LDAsNTAuMiwwLDQ5LjMyeiIvPiYjeGE7CQk8L2c+JiN4YTsJCTxnIGlkPSJzaGFwZTM1MDMtOCIgdHJhbnNmb3JtPSJ0cmFuc2xhdGUoMTcuNzUyOSwtMy42NzYxOCkiPiYjeGE7CQkJPHRpdGxlIGlkPSJ0aXRsZTExODIiPlNoZWV0LjM1MDM8L3RpdGxlPiYjeGE7CQkJPHBhdGggaWQ9InBhdGgxMTg0IiBpbmtzY2FwZTpjb25uZWN0b3ItY3VydmF0dXJlPSIwIiBzdHlsZT0iZmlsbDojRkZGRkZGOyIgZD0iTTAsNDkuOTNjMC0wLjQ5LDAuMzEtMC45MSwwLjYxLTAuOTEgICAgIGMwLjM1LDAsMC42MSwwLjQyLDAuNjEsMC45MWMwLDAuNTQtMC4yNiwwLjkyLTAuNjEsMC45MkMwLjMxLDUwLjg1LDAsNTAuNDcsMCw0OS45M3oiLz4mI3hhOwkJPC9nPiYjeGE7CQk8ZyBpZD0ic2hhcGUzNTA0LTEwIiB0cmFuc2Zvcm09InRyYW5zbGF0ZSg5LjE4MjUxLC0zLjY3NjE4KSI+JiN4YTsJCQk8dGl0bGUgaWQ9InRpdGxlMTE4NyI+U2hlZXQuMzUwNDwvdGl0bGU+JiN4YTsJCQk8cGF0aCBpZD0icGF0aDExODkiIGlua3NjYXBlOmNvbm5lY3Rvci1jdXJ2YXR1cmU9IjAiIHN0eWxlPSJmaWxsOiNGRkZGRkY7IiBkPSJNMCw0OS45M2MwLTAuNDksMC4zMS0wLjkxLDAuNjEtMC45MSAgICAgYzAuMzUsMCwwLjYxLDAuNDIsMC42MSwwLjkxYzAsMC41NC0wLjI2LDAuOTItMC42MSwwLjkyQzAuMzEsNTAuODUsMCw1MC40NywwLDQ5LjkzeiIvPiYjeGE7CQk8L2c+JiN4YTsJPC9nPiYjeGE7PC9nPiYjeGE7PC9zdmc+;" vertex="1" parent="1">
          <mxGeometry x="280" y="315" width="29" height="51" as="geometry" />
        </mxCell>
        <mxCell id="a0yiWjh66o21EPFuuch4-2097" value="" style="shape=image;verticalLabelPosition=bottom;labelBackgroundColor=#ffffff;verticalAlign=top;aspect=fixed;imageAspect=0;image=data:image/svg+xml,PHN2ZyB4bWxuczpjYz0iaHR0cDovL2NyZWF0aXZlY29tbW9ucy5vcmcvbnMjIiB4bWxuczpkYz0iaHR0cDovL3B1cmwub3JnL2RjL2VsZW1lbnRzLzEuMS8iIHhtbG5zOmlua3NjYXBlPSJodHRwOi8vd3d3Lmlua3NjYXBlLm9yZy9uYW1lc3BhY2VzL2lua3NjYXBlIiB4bWxuczpyZGY9Imh0dHA6Ly93d3cudzMub3JnLzE5OTkvMDIvMjItcmRmLXN5bnRheC1ucyMiIHhtbG5zOnNvZGlwb2RpPSJodHRwOi8vc29kaXBvZGkuc291cmNlZm9yZ2UubmV0L0RURC9zb2RpcG9kaS0wLmR0ZCIgeG1sbnM6c3ZnPSJodHRwOi8vd3d3LnczLm9yZy8yMDAwL3N2ZyIgeG1sbnM9Imh0dHA6Ly93d3cudzMub3JnLzIwMDAvc3ZnIiB4bWxuczp4bGluaz0iaHR0cDovL3d3dy53My5vcmcvMTk5OS94bGluayIgdmVyc2lvbj0iMS4xIiBpZD0ic3ZnMTM2NyIgaW5rc2NhcGU6dmVyc2lvbj0iMC45Mi4zICgyNDA1NTQ2LCAyMDE4LTAzLTExKSIgc29kaXBvZGk6ZG9jbmFtZT0iYW5kcm9pZF90YWJsZXQuc3ZnIiB4PSIwcHgiIHk9IjBweCIgdmlld0JveD0iMCAwIDQzLjQ2IDI4LjgiIHN0eWxlPSJlbmFibGUtYmFja2dyb3VuZDpuZXcgMCAwIDQzLjQ2IDI4Ljg7IiB4bWw6c3BhY2U9InByZXNlcnZlIj4mI3hhOzxzb2RpcG9kaTpuYW1lZHZpZXcgYm9yZGVyY29sb3I9IiM2NjY2NjYiIGJvcmRlcm9wYWNpdHk9IjEiIGZpdC1tYXJnaW4tYm90dG9tPSIwIiBmaXQtbWFyZ2luLWxlZnQ9IjAiIGZpdC1tYXJnaW4tcmlnaHQ9IjAiIGZpdC1tYXJnaW4tdG9wPSIwIiBncmlkdG9sZXJhbmNlPSIxMCIgZ3VpZGV0b2xlcmFuY2U9IjEwIiBpZD0ibmFtZWR2aWV3MTM2OSIgaW5rc2NhcGU6Y3VycmVudC1sYXllcj0ic3ZnMTM2NyIgaW5rc2NhcGU6Y3g9IjI4Ljk3NTkyIiBpbmtzY2FwZTpjeT0iMTkuMjAyMTI2IiBpbmtzY2FwZTpwYWdlb3BhY2l0eT0iMCIgaW5rc2NhcGU6cGFnZXNoYWRvdz0iMiIgaW5rc2NhcGU6d2luZG93LWhlaWdodD0iMTAxNyIgaW5rc2NhcGU6d2luZG93LW1heGltaXplZD0iMSIgaW5rc2NhcGU6d2luZG93LXdpZHRoPSIxOTIwIiBpbmtzY2FwZTp3aW5kb3cteD0iLTgiIGlua3NjYXBlOndpbmRvdy15PSItOCIgaW5rc2NhcGU6em9vbT0iMjIuNTgwNjY1IiBvYmplY3R0b2xlcmFuY2U9IjEwIiBwYWdlY29sb3I9IiNmZmZmZmYiIHNob3dncmlkPSJmYWxzZSI+JiN4YTsJPC9zb2RpcG9kaTpuYW1lZHZpZXc+JiN4YTs8ZyBpZD0iZzEzNjUiPiYjeGE7CTx0aXRsZSBpZD0idGl0bGUxMjk1Ij5QYWdlLTE8L3RpdGxlPiYjeGE7CTxnIGlkPSJncm91cDMzMDMtMSI+JiN4YTsJCTx0aXRsZSBpZD0idGl0bGUxMjk3Ij5BbmRyb2lkIFRhYmxldC4xOTQ8L3RpdGxlPiYjeGE7CQk8ZyBpZD0ic2hhcGUzMzA0LTIiPiYjeGE7CQkJPHRpdGxlIGlkPSJ0aXRsZTEyOTkiPlNoZWV0LjMzMDQ8L3RpdGxlPiYjeGE7CQkJPHBhdGggaWQ9InBhdGgxMzAxIiBpbmtzY2FwZTpjb25uZWN0b3ItY3VydmF0dXJlPSIwIiBzdHlsZT0iZmlsbDojM0Y1NzY1OyIgZD0iTTEuNzYsMjguOEMwLjY5LDI4LjgsMCwyOC4xNSwwLDI3LjA3ICAgICBDMCwxLjc2LDAsMS43NiwwLDEuNzZDMCwwLjg4LDAuNjksMCwxLjc2LDBjMzkuOTgsMCwzOS45OCwwLDM5Ljk4LDBjMC44OCwwLDEuNzIsMC44OCwxLjcyLDEuNzZjMCwyNS4zMSwwLDI1LjMxLDAsMjUuMzEgICAgIGMwLDEuMDgtMC44NCwxLjczLTEuNzIsMS43M0gxLjc2eiIvPiYjeGE7CQk8L2c+JiN4YTsJCTxnIGlkPSJzaGFwZTMzMDUtNCIgdHJhbnNmb3JtPSJ0cmFuc2xhdGUoMy4wNjA4NCwtMy4wNjM0OCkiPiYjeGE7CQkJPHRpdGxlIGlkPSJ0aXRsZTEzMDQiPlNoZWV0LjMzMDU8L3RpdGxlPiYjeGE7CQkJPHBhdGggaWQ9InBhdGgxMzA2IiBpbmtzY2FwZTpjb25uZWN0b3ItY3VydmF0dXJlPSIwIiBzdHlsZT0iZmlsbDojRkZGRkZGOyIgZD0iTTAsNi4xM1YyOC44aDM2LjczVjYuMTNIMHoiLz4mI3hhOwkJPC9nPiYjeGE7CQk8ZyBpZD0ic2hhcGUzMzA2LTYiIHRyYW5zZm9ybT0idHJhbnNsYXRlKDI2LjMyMzIsLTExLjY0MTIpIj4mI3hhOwkJCTx0aXRsZSBpZD0idGl0bGUxMzA5Ij5TaGVldC4zMzA2PC90aXRsZT4mI3hhOwkJCTxwYXRoIGlkPSJwYXRoMTMxMSIgaW5rc2NhcGU6Y29ubmVjdG9yLWN1cnZhdHVyZT0iMCIgc3R5bGU9ImZpbGw6Izk3QzAzRTsiIGQ9Ik0xLjg0LDI0LjJjMCwzLjY4LDAsMy42OCwwLDMuNjggICAgIGMwLDAuMjMsMCwwLjQ2LTAuMjMsMC42OWMwLDAuMjMtMC4yMywwLjIzLTAuNjksMC4yM0MwLjQ2LDI4LjgsMCwyOC4zNCwwLDI3Ljg4YzAtMy42OCwwLTMuNjgsMC0zLjY4ICAgICBjMC0wLjIzLDAuMjMtMC40NiwwLjQ2LTAuNjljMC0wLjIzLDAuMjMtMC4yMywwLjQ2LTAuMjNDMS42MSwyMy4yOCwxLjg0LDIzLjUxLDEuODQsMjQuMnoiLz4mI3hhOwkJPC9nPiYjeGE7CQk8ZyBpZD0ic2hhcGUzMzA3LTgiIHRyYW5zZm9ybT0idHJhbnNsYXRlKDE3Ljc1MjksLTYuNzM5NjcpIj4mI3hhOwkJCTx0aXRsZSBpZD0idGl0bGUxMzE0Ij5TaGVldC4zMzA3PC90aXRsZT4mI3hhOwkJCTxwYXRoIGlkPSJwYXRoMTMxNiIgaW5rc2NhcGU6Y29ubmVjdG9yLWN1cnZhdHVyZT0iMCIgc3R5bGU9ImZpbGw6Izk3QzAzRTsiIGQ9Ik03Ljk2LDE4LjM4YzAsNi4zNiwwLDYuMzYsMCw2LjM2ICAgICBjMCwwLjY5LDAsMS4xNS0xLjA3LDEuMTVjLTAuNDYsMC0wLjQ2LDAtMC40NiwwYzAsMi4wMywwLDIuMDMsMCwyLjAzYzAsMC40Ni0wLjQ2LDAuODgtMC44OCwwLjg4Yy0wLjQ2LDAtMC44OC0wLjQyLTAuODgtMC44OCAgICAgYzAtMi4wMywwLTIuMDMsMC0yLjAzYy0xLjU3LDAtMS41NywwLTEuNTcsMGMwLDIuMDMsMCwyLjAzLDAsMi4wM2MwLDAuNDYtMC4xOSwwLjg4LTAuODgsMC44OGMtMC40MiwwLTAuODgtMC40Mi0wLjg4LTAuODggICAgIGMwLTIuMDMsMC0yLjAzLDAtMi4wM2MtMC40MiwwLTAuNDIsMC0wLjQyLDBDMCwyNS44OSwwLDI1LjQzLDAsMjQuNzRjMC02LjM2LDAtNi4zNiwwLTYuMzZINy45NnoiLz4mI3hhOwkJPC9nPiYjeGE7CQk8ZyBpZD0ic2hhcGUzMzA4LTEwIiB0cmFuc2Zvcm09InRyYW5zbGF0ZSgxNy43NTI5LC0xNy43NjgyKSI+JiN4YTsJCQk8dGl0bGUgaWQ9InRpdGxlMTMxOSI+U2hlZXQuMzMwODwvdGl0bGU+JiN4YTsJCQk8cGF0aCBpZD0icGF0aDEzMjEiIGlua3NjYXBlOmNvbm5lY3Rvci1jdXJ2YXR1cmU9IjAiIHN0eWxlPSJmaWxsOiNGRkZGRkY7IiBkPSJNNy45NiwyOC44QzAsMjguOCwwLDI4LjgsMCwyOC44ICAgICBjMC0xLDAuNjktMi4wMywxLjk5LTIuNjVjLTAuNjUtMC44LTAuNjUtMC44LTAuNjUtMC44YzAtMC4yMywwLTAuMjMsMC0wLjIzczAsMCwwLjIzLDBjMC42NSwxLjAzLDAuNjUsMS4wMywwLjY1LDEuMDMgICAgIGMwLjQ2LTAuMTksMS4xMS0wLjE5LDEuNzYtMC4xOWMwLjQ2LDAsMS4xMSwwLDEuNTcsMC4xOWMwLjg4LTEuMDMsMC44OC0xLjAzLDAuODgtMS4wM3MwLDAsMC4yMywwYzAsMCwwLDAsMCwwLjIzICAgICBjLTAuODgsMC44LTAuODgsMC44LTAuODgsMC44QzcuMDgsMjYuNzcsNy45NiwyNy44LDcuOTYsMjguOHogTTYuMiwyNy4zOGMwLTAuMTktMC4yMy0wLjQyLTAuNDItMC40MiAgICAgYy0wLjQ2LDAtMC40NiwwLjIzLTAuNDYsMC40MnMwLDAuNDIsMC40NiwwLjQyQzUuOTcsMjcuOCw2LjIsMjcuNTcsNi4yLDI3LjM4eiBNMi42OCwyNy4zOGMwLTAuMTktMC4yMy0wLjQyLTAuNDYtMC40MiAgICAgUzEuOCwyNy4xOSwxLjgsMjcuMzhzMC4xOSwwLjQyLDAuNDIsMC40MlMyLjY4LDI3LjU3LDIuNjgsMjcuMzh6Ii8+JiN4YTsJCTwvZz4mI3hhOwkJPGcgaWQ9InNoYXBlMzMwOS0xMiIgdHJhbnNmb3JtPSJ0cmFuc2xhdGUoMTUuMzA0MiwtMTEuNjQxMikiPiYjeGE7CQkJPHRpdGxlIGlkPSJ0aXRsZTEzMjQiPlNoZWV0LjMzMDk8L3RpdGxlPiYjeGE7CQkJPHBhdGggaWQ9InBhdGgxMzI2IiBpbmtzY2FwZTpjb25uZWN0b3ItY3VydmF0dXJlPSIwIiBzdHlsZT0iZmlsbDojOTdDMDNFOyIgZD0iTTEuODQsMjQuMmMwLDMuNjgsMCwzLjY4LDAsMy42OCAgICAgYzAsMC4yMywwLDAuNDYtMC4yMywwLjY5QzEuMzgsMjguOCwxLjE1LDI4LjgsMC45MiwyOC44QzAuNDYsMjguOCwwLDI4LjM0LDAsMjcuODhjMC0zLjY4LDAtMy42OCwwLTMuNjggICAgIGMwLTAuMjMsMC4yMy0wLjQ2LDAuMjMtMC42OWMwLjIzLTAuMjMsMC40Ni0wLjIzLDAuNjktMC4yM0MxLjM4LDIzLjI4LDEuODQsMjMuNTEsMS44NCwyNC4yeiIvPiYjeGE7CQk8L2c+JiN4YTsJCTxnIGlkPSJzaGFwZTMzMTAtMTQiIHRyYW5zZm9ybT0idHJhbnNsYXRlKDE1LjMwNDIsLTYuMTI2OTcpIj4mI3hhOwkJCTx0aXRsZSBpZD0idGl0bGUxMzI5Ij5TaGVldC4zMzEwPC90aXRsZT4mI3hhOwkJCTxwYXRoIGlkPSJwYXRoMTMzMSIgaW5rc2NhcGU6Y29ubmVjdG9yLWN1cnZhdHVyZT0iMCIgc3R5bGU9ImZpbGw6I0ZGRkZGRjsiIGQ9Ik0xMS45OCwxNy41NGMtMC4yMywwLTAuNjUsMC4yMy0wLjg4LDAuMjMgICAgIGMwLTAuMjMsMC0wLjIzLDAtMC4yM2wwLDBjMC0xLjExLTAuNjUtMi4yMi0xLjczLTMuMWMwLjQyLTAuNDYsMC40Mi0wLjQ2LDAuNDItMC40NmMwLTAuMTksMC4yMy0wLjE5LDAtMC40MiAgICAgYzAtMC4yMywwLTAuNDYtMC4yMi0wLjQ2YzAtMC4yMy0wLjItMC4yMy0wLjQzLTAuMjNjLTAuMjMsMC0wLjQyLDAuMjMtMC40MiwwLjQ2Yy0wLjY1LDAuNjUtMC42NSwwLjY1LTAuNjUsMC42NSAgICAgYy0wLjQ2LTAuMTktMC44OC0wLjE5LTEuMzQtMC4xOWMtMC42NSwwLTEuMDcsMC0xLjQ5LDAuMTljLTAuNDYtMC42NS0wLjQ2LTAuNjUtMC40Ni0wLjY1Yy0wLjE5LTAuMjMtMC40Mi0wLjQ2LTAuNjUtMC40NiAgICAgYzAsMC0wLjE5LDAtMC40MiwwLjIzYzAsMC0wLjIzLDAuMjMtMC4yMywwLjQ2YzAsMC4yMywwLDAuMjMsMC4yMywwLjQyYzAuMjMsMC40NiwwLjIzLDAuNDYsMC4yMywwLjQ2ICAgICBjLTEuMTEsMC44OC0xLjc2LDEuOTktMS43NiwzLjFsMCwwYzAsMC4yMywwLDAuMjMsMCwwLjIzYy0wLjE5LDAtMC40Mi0wLjIzLTAuODQtMC4yM0MwLjQ2LDE3LjU0LDAsMTguMTksMCwxOS4wNyAgICAgYzAsMy41NiwwLDMuNTYsMCwzLjU2YzAsMC44OCwwLjQ2LDEuNTMsMS4zNCwxLjUzYzAuNDIsMCwwLjY1LTAuMjMsMC44NC0wLjQyYzAsMC42NSwwLDAuNjUsMCwwLjY1YzAsMC40MiwwLDEuNTMsMS41MywxLjUzICAgICBjMCwxLjU3LDAsMS41NywwLDEuNTdjMCwwLjY2LDAuNjUsMS4zMSwxLjMsMS4zMWMwLjg4LDAsMS41My0wLjY1LDEuNTMtMS4zMWMwLTEuNTcsMC0xLjU3LDAtMS41N2MwLjQyLDAsMC40MiwwLDAuNDIsMCAgICAgYzAsMS41NywwLDEuNTcsMCwxLjU3YzAsMC42NiwwLjY1LDEuMzEsMS4zLDEuMzFjMC44OCwwLDEuNTMtMC42NSwxLjUzLTEuMzFjMC0xLjU3LDAtMS41NywwLTEuNTdjMS4zMSwwLDEuMzEtMS4xMSwxLjMxLTEuNTMgICAgIGMwLTAuNjUsMC0wLjY1LDAtMC42NWMwLjIzLDAuMTksMC42NSwwLjQyLDAuODgsMC40MmMwLjg0LDAsMS40OS0wLjY1LDEuNDktMS41M2MwLTMuNTYsMC0zLjU2LDAtMy41NiAgICAgQzEzLjQ3LDE4LjE5LDEyLjgyLDE3LjU0LDExLjk4LDE3LjU0eiIvPiYjeGE7CQk8L2c+JiN4YTsJCTxnIGlkPSJzaGFwZTMzMTEtMTYiIHRyYW5zZm9ybT0idHJhbnNsYXRlKDE1LjMwNDIsLTExLjY0MTIpIj4mI3hhOwkJCTx0aXRsZSBpZD0idGl0bGUxMzM0Ij5TaGVldC4zMzExPC90aXRsZT4mI3hhOwkJCTxwYXRoIGlkPSJwYXRoMTMzNiIgaW5rc2NhcGU6Y29ubmVjdG9yLWN1cnZhdHVyZT0iMCIgc3R5bGU9ImZpbGw6IzNGNTc2NTsiIGQ9Ik0xLjg0LDI0LjJjMC0wLjY5LTAuNDYtMC45Mi0wLjkyLTAuOTIgICAgIGMtMC4yMywwLTAuNDYsMC0wLjY5LDAuMjNDMC4yMywyMy43NCwwLDIzLjk3LDAsMjQuMmMwLDMuNjgsMCwzLjY4LDAsMy42OGMwLDAuNDYsMC40NiwwLjkyLDAuOTIsMC45MmMwLjIzLDAsMC40NiwwLDAuNjktMC4yMyAgICAgczAuMjMtMC40NiwwLjIzLTAuNjlWMjQuMnoiLz4mI3hhOwkJPC9nPiYjeGE7CQk8ZyBpZD0ic2hhcGUzMzEyLTE4IiB0cmFuc2Zvcm09InRyYW5zbGF0ZSgxNy43NTI5LC02LjczOTY3KSI+JiN4YTsJCQk8dGl0bGUgaWQ9InRpdGxlMTMzOSI+U2hlZXQuMzMxMjwvdGl0bGU+JiN4YTsJCQk8cGF0aCBpZD0icGF0aDEzNDEiIGlua3NjYXBlOmNvbm5lY3Rvci1jdXJ2YXR1cmU9IjAiIHN0eWxlPSJmaWxsOiMzRjU3NjU7IiBkPSJNMCwxOC4zOGMwLDYuMzYsMCw2LjM2LDAsNi4zNiAgICAgYzAsMC42OSwwLDEuMTUsMC45MiwxLjE1YzAuNDIsMCwwLjQyLDAsMC40MiwwYzAsMi4wMywwLDIuMDMsMCwyLjAzYzAsMC40NiwwLjQ2LDAuODgsMC44OCwwLjg4YzAuNjksMCwwLjg4LTAuNDIsMC44OC0wLjg4ICAgICBjMC0yLjAzLDAtMi4wMywwLTIuMDNjMS41NywwLDEuNTcsMCwxLjU3LDBjMCwyLjAzLDAsMi4wMywwLDIuMDNjMCwwLjQ2LDAuNDIsMC44OCwwLjg4LDAuODhjMC40MiwwLDAuODgtMC40MiwwLjg4LTAuODggICAgIGMwLTIuMDMsMC0yLjAzLDAtMi4wM2MwLjQ2LDAsMC40NiwwLDAuNDYsMGMxLjA3LDAsMS4wNy0wLjQ2LDEuMDctMS4xNWMwLTYuMzYsMC02LjM2LDAtNi4zNkgweiIvPiYjeGE7CQk8L2c+JiN4YTsJCTxnIGlkPSJzaGFwZTMzMTMtMjAiIHRyYW5zZm9ybT0idHJhbnNsYXRlKDE3Ljc1MjksLTE3Ljc2ODIpIj4mI3hhOwkJCTx0aXRsZSBpZD0idGl0bGUxMzQ0Ij5TaGVldC4zMzEzPC90aXRsZT4mI3hhOwkJCTxwYXRoIGlkPSJwYXRoMTM0NiIgaW5rc2NhcGU6Y29ubmVjdG9yLWN1cnZhdHVyZT0iMCIgc3R5bGU9ImZpbGw6IzNGNTc2NTsiIGQ9Ik01Ljc4LDI2LjE1YzAuODgtMC44LDAuODgtMC44LDAuODgtMC44ICAgICBjMC0wLjIzLDAtMC4yMywwLTAuMjNjLTAuMjMsMC0wLjIzLDAtMC4yMywwYy0wLjg4LDEuMDMtMC44OCwxLjAzLTAuODgsMS4wM2MtMC40Ni0wLjE5LTEuMTEtMC4xOS0xLjU3LTAuMTkgICAgIGMtMC42NSwwLTEuMywwLTEuNzYsMC4xOWMtMC42NS0xLjAzLTAuNjUtMS4wMy0wLjY1LTEuMDNjLTAuMjMsMC0wLjIzLDAtMC4yMywwczAsMCwwLDAuMjNjMC42NSwwLjgsMC42NSwwLjgsMC42NSwwLjggICAgIEMwLjY5LDI2Ljc3LDAsMjcuOCwwLDI4LjhjNy45NiwwLDcuOTYsMCw3Ljk2LDBDNy45NiwyNy44LDcuMDgsMjYuNzcsNS43OCwyNi4xNXoiLz4mI3hhOwkJPC9nPiYjeGE7CQk8ZyBpZD0ic2hhcGUzMzE0LTIyIiB0cmFuc2Zvcm09InRyYW5zbGF0ZSgyNi4zMjMyLC0xMS42NDEyKSI+JiN4YTsJCQk8dGl0bGUgaWQ9InRpdGxlMTM0OSI+U2hlZXQuMzMxNDwvdGl0bGU+JiN4YTsJCQk8cGF0aCBpZD0icGF0aDEzNTEiIGlua3NjYXBlOmNvbm5lY3Rvci1jdXJ2YXR1cmU9IjAiIHN0eWxlPSJmaWxsOiMzRjU3NjU7IiBkPSJNMS44NCwyNC4yYzAtMC42OS0wLjIzLTAuOTItMC45Mi0wLjkyICAgICBjLTAuMjMsMC0wLjQ2LDAtMC40NiwwLjIzQzAuMjMsMjMuNzQsMCwyMy45NywwLDI0LjJjMCwzLjY4LDAsMy42OCwwLDMuNjhjMCwwLjQ2LDAuNDYsMC45MiwwLjkyLDAuOTJzMC42OSwwLDAuNjktMC4yMyAgICAgYzAuMjMtMC4yMywwLjIzLTAuNDYsMC4yMy0wLjY5VjI0LjJ6Ii8+JiN4YTsJCTwvZz4mI3hhOwkJPGcgaWQ9InNoYXBlMzMxNS0yNCIgdHJhbnNmb3JtPSJ0cmFuc2xhdGUoMTkuNTg5NCwtMTguOTkzNikiPiYjeGE7CQkJPHRpdGxlIGlkPSJ0aXRsZTEzNTQiPlNoZWV0LjMzMTU8L3RpdGxlPiYjeGE7CQkJPHBhdGggaWQ9InBhdGgxMzU2IiBpbmtzY2FwZTpjb25uZWN0b3ItY3VydmF0dXJlPSIwIiBzdHlsZT0iZmlsbDojRkZGRkZGOyIgZD0iTTAsMjguNDljMC0wLjE1LDAuMzEtMC4zMSwwLjYxLTAuMzEgICAgIGMwLjM1LDAsMC42MSwwLjE2LDAuNjEsMC4zMWMwLDAuMTktMC4yNiwwLjMxLTAuNjEsMC4zMUMwLjMxLDI4LjgsMCwyOC42OCwwLDI4LjQ5eiIvPiYjeGE7CQk8L2c+JiN4YTsJCTxnIGlkPSJzaGFwZTMzMTYtMjYiIHRyYW5zZm9ybT0idHJhbnNsYXRlKDIzLjI2MjQsLTE4Ljk5MzYpIj4mI3hhOwkJCTx0aXRsZSBpZD0idGl0bGUxMzU5Ij5TaGVldC4zMzE2PC90aXRsZT4mI3hhOwkJCTxwYXRoIGlkPSJwYXRoMTM2MSIgaW5rc2NhcGU6Y29ubmVjdG9yLWN1cnZhdHVyZT0iMCIgc3R5bGU9ImZpbGw6I0ZGRkZGRjsiIGQ9Ik0wLDI4LjQ5YzAtMC4xNSwwLjE1LTAuMzEsMC4zMS0wLjMxICAgICBjMC4xOSwwLDAuMywwLjE2LDAuMywwLjMxYzAsMC4xOS0wLjExLDAuMzEtMC4zLDAuMzFDMC4xNSwyOC44LDAsMjguNjgsMCwyOC40OXoiLz4mI3hhOwkJPC9nPiYjeGE7CTwvZz4mI3hhOzwvZz4mI3hhOzwvc3ZnPg==;" vertex="1" parent="1">
          <mxGeometry x="273" y="405" width="43" height="29" as="geometry" />
        </mxCell>
        <mxCell id="a0yiWjh66o21EPFuuch4-2098" value="&#xa;浏览器&#xa;微信小程序&#xa;手机app" style="shape=image;verticalLabelPosition=bottom;labelBackgroundColor=#ffffff;verticalAlign=top;aspect=fixed;imageAspect=0;image=data:image/svg+xml,PHN2ZyB4bWxuczpjYz0iaHR0cDovL2NyZWF0aXZlY29tbW9ucy5vcmcvbnMjIiB4bWxuczpkYz0iaHR0cDovL3B1cmwub3JnL2RjL2VsZW1lbnRzLzEuMS8iIHhtbG5zOmlua3NjYXBlPSJodHRwOi8vd3d3Lmlua3NjYXBlLm9yZy9uYW1lc3BhY2VzL2lua3NjYXBlIiB4bWxuczpyZGY9Imh0dHA6Ly93d3cudzMub3JnLzE5OTkvMDIvMjItcmRmLXN5bnRheC1ucyMiIHhtbG5zOnNvZGlwb2RpPSJodHRwOi8vc29kaXBvZGkuc291cmNlZm9yZ2UubmV0L0RURC9zb2RpcG9kaS0wLmR0ZCIgeG1sbnM6c3ZnPSJodHRwOi8vd3d3LnczLm9yZy8yMDAwL3N2ZyIgeG1sbnM9Imh0dHA6Ly93d3cudzMub3JnLzIwMDAvc3ZnIiB4bWxuczp4bGluaz0iaHR0cDovL3d3dy53My5vcmcvMTk5OS94bGluayIgdmVyc2lvbj0iMS4xIiBpZD0ic3ZnMTQ5NyIgaW5rc2NhcGU6dmVyc2lvbj0iMC45Mi4zICgyNDA1NTQ2LCAyMDE4LTAzLTExKSIgc29kaXBvZGk6ZG9jbmFtZT0iYXBwbGUuc3ZnIiB4PSIwcHgiIHk9IjBweCIgdmlld0JveD0iMCAwIDc0LjY3IDcwLjQiIHN0eWxlPSJlbmFibGUtYmFja2dyb3VuZDpuZXcgMCAwIDc0LjY3IDcwLjQ7IiB4bWw6c3BhY2U9InByZXNlcnZlIj4mI3hhOzxzb2RpcG9kaTpuYW1lZHZpZXcgYm9yZGVyY29sb3I9IiM2NjY2NjYiIGJvcmRlcm9wYWNpdHk9IjEiIGZpdC1tYXJnaW4tYm90dG9tPSIwIiBmaXQtbWFyZ2luLWxlZnQ9IjAiIGZpdC1tYXJnaW4tcmlnaHQ9IjAiIGZpdC1tYXJnaW4tdG9wPSIwIiBncmlkdG9sZXJhbmNlPSIxMCIgZ3VpZGV0b2xlcmFuY2U9IjEwIiBpZD0ibmFtZWR2aWV3MTQ5OSIgaW5rc2NhcGU6Y3VycmVudC1sYXllcj0ic3ZnMTQ5NyIgaW5rc2NhcGU6Y3g9IjQ5Ljc3NTk3NyIgaW5rc2NhcGU6Y3k9IjQ2LjkzNDUyOSIgaW5rc2NhcGU6cGFnZW9wYWNpdHk9IjAiIGlua3NjYXBlOnBhZ2VzaGFkb3c9IjIiIGlua3NjYXBlOndpbmRvdy1oZWlnaHQ9IjEwMTciIGlua3NjYXBlOndpbmRvdy1tYXhpbWl6ZWQ9IjEiIGlua3NjYXBlOndpbmRvdy13aWR0aD0iMTkyMCIgaW5rc2NhcGU6d2luZG93LXg9Ii04IiBpbmtzY2FwZTp3aW5kb3cteT0iLTgiIGlua3NjYXBlOnpvb209IjguMjkwNDk0NCIgb2JqZWN0dG9sZXJhbmNlPSIxMCIgcGFnZWNvbG9yPSIjZmZmZmZmIiBzaG93Z3JpZD0iZmFsc2UiPiYjeGE7CTwvc29kaXBvZGk6bmFtZWR2aWV3PiYjeGE7PGcgaWQ9ImcxNDk1IiB0cmFuc2Zvcm09InRyYW5zbGF0ZSgtNC4wMTU4MTgzLC00LjAxMjcxMTQpIj4mI3hhOwk8dGl0bGUgaWQ9InRpdGxlMTQ3MCI+UGFnZS0xPC90aXRsZT4mI3hhOwk8ZyBpZD0iZ3JvdXAzODEwLTEiIHRyYW5zZm9ybT0idHJhbnNsYXRlKDQuMDE1NzcsLTQuMDE1NzUpIj4mI3hhOwkJPHRpdGxlIGlkPSJ0aXRsZTE0NzIiPkFwcGxlPC90aXRsZT4mI3hhOwkJPGcgaWQ9InNoYXBlMzgxMS0yIiB0cmFuc2Zvcm09InRyYW5zbGF0ZSgyNC4zOTgxLC00LjA2NjM1KSI+JiN4YTsJCQk8dGl0bGUgaWQ9InRpdGxlMTQ3NCI+U2hlZXQuMzgxMTwvdGl0bGU+JiN4YTsJCQk8cmVjdCBpZD0icmVjdDE0NzYiIHg9IjAiIHk9IjY4LjEiIHN0eWxlPSJmaWxsOiMyQzQyNEY7IiB3aWR0aD0iMjUuODciIGhlaWdodD0iMTAuMzQiLz4mI3hhOwkJPC9nPiYjeGE7CQk8ZyBpZD0ic2hhcGUzODEyLTQiIHRyYW5zZm9ybT0idHJhbnNsYXRlKDE1LjI4NTUpIj4mI3hhOwkJCTx0aXRsZSBpZD0idGl0bGUxNDc5Ij5TaGVldC4zODEyPC90aXRsZT4mI3hhOwkJCTxyZWN0IGlkPSJyZWN0MTQ4MSIgeD0iMCIgeT0iNzQuMzciIHN0eWxlPSJmaWxsOiNCQkMyQzY7IiB3aWR0aD0iNDQuMDkiIGhlaWdodD0iNC4wNyIvPiYjeGE7CQk8L2c+JiN4YTsJCTxnIGlkPSJzaGFwZTM4MTMtNiIgdHJhbnNmb3JtPSJ0cmFuc2xhdGUoMCwtMTQuNDAzNykiPiYjeGE7CQkJPHRpdGxlIGlkPSJ0aXRsZTE0ODQiPlNoZWV0LjM4MTM8L3RpdGxlPiYjeGE7CQkJPHBhdGggaWQ9InBhdGgxNDg2IiBpbmtzY2FwZTpjb25uZWN0b3ItY3VydmF0dXJlPSIwIiBzdHlsZT0iZmlsbDojQkJDMkM2OyIgZD0iTTAsNjQuNzJ2MTEuMDdjMCwxLjQ2LDEuMTgsMi42NCwyLjYzLDIuNjQgICAgIGMwLjAxLDAsMC4wMSwwLDAuMDIsMGg2OS4zMmMxLjQ2LDAuMDEsMi42NC0xLjE3LDIuNjUtMi42MmMwLTAuMDEsMC0wLjAxLDAtMC4wMlY2NC43MkgweiIvPiYjeGE7CQk8L2c+JiN4YTsJCTxnIGlkPSJzaGFwZTM4MTQtOCIgdHJhbnNmb3JtPSJ0cmFuc2xhdGUoMC4wNDg5OTIxLC0yOC4xMjE1KSI+JiN4YTsJCQk8dGl0bGUgaWQ9InRpdGxlMTQ4OSI+U2hlZXQuMzgxNDwvdGl0bGU+JiN4YTsJCQk8cGF0aCBpZD0icGF0aDE0OTEiIGlua3NjYXBlOmNvbm5lY3Rvci1jdXJ2YXR1cmU9IjAiIHN0eWxlPSJmaWxsOiM1MjdGOTk7IiBkPSJNNzQuNjIsMzguOGMwLjAxLTEuNDYtMS4xNy0yLjY0LTIuNjItMi42NSAgICAgYy0wLjAxLDAtMC4wMiwwLTAuMDMsMEgyLjY1QzEuMTksMzYuMTQsMC4wMSwzNy4zMiwwLDM4Ljc3YzAsMC4wMSwwLDAuMDIsMCwwLjAzdjM5LjYzaDc0LjYyVjM4Ljh6Ii8+JiN4YTsJCTwvZz4mI3hhOwk8L2c+JiN4YTs8L2c+JiN4YTs8L3N2Zz4=;" vertex="1" parent="1">
          <mxGeometry x="257" y="464" width="75" height="70" as="geometry" />
        </mxCell>
        <mxCell id="a0yiWjh66o21EPFuuch4-2099" value="阿里万网&#xa;腾讯Dnspod" style="shape=image;verticalLabelPosition=bottom;labelBackgroundColor=#ffffff;verticalAlign=top;aspect=fixed;imageAspect=0;image=data:image/svg+xml,PHN2ZyB4bWxuczpjYz0iaHR0cDovL2NyZWF0aXZlY29tbW9ucy5vcmcvbnMjIiB4bWxuczpkYz0iaHR0cDovL3B1cmwub3JnL2RjL2VsZW1lbnRzLzEuMS8iIHhtbG5zOmlua3NjYXBlPSJodHRwOi8vd3d3Lmlua3NjYXBlLm9yZy9uYW1lc3BhY2VzL2lua3NjYXBlIiB4bWxuczpyZGY9Imh0dHA6Ly93d3cudzMub3JnLzE5OTkvMDIvMjItcmRmLXN5bnRheC1ucyMiIHhtbG5zOnNvZGlwb2RpPSJodHRwOi8vc29kaXBvZGkuc291cmNlZm9yZ2UubmV0L0RURC9zb2RpcG9kaS0wLmR0ZCIgeG1sbnM6c3ZnPSJodHRwOi8vd3d3LnczLm9yZy8yMDAwL3N2ZyIgeG1sbnM9Imh0dHA6Ly93d3cudzMub3JnLzIwMDAvc3ZnIiB4bWxuczp4bGluaz0iaHR0cDovL3d3dy53My5vcmcvMTk5OS94bGluayIgdmVyc2lvbj0iMS4xIiBpZD0ic3ZnMTQ0OTk0IiBpbmtzY2FwZTp2ZXJzaW9uPSIwLjkyLjMgKDI0MDU1NDYsIDIwMTgtMDMtMTEpIiBzb2RpcG9kaTpkb2NuYW1lPSJkbnMuc3ZnIiB4PSIwcHgiIHk9IjBweCIgdmlld0JveD0iMCAwIDcyLjAxIDcyLjAxIiBzdHlsZT0iZW5hYmxlLWJhY2tncm91bmQ6bmV3IDAgMCA3Mi4wMSA3Mi4wMTsiIHhtbDpzcGFjZT0icHJlc2VydmUiPiYjeGE7PHNvZGlwb2RpOm5hbWVkdmlldyBib3JkZXJjb2xvcj0iIzY2NjY2NiIgYm9yZGVyb3BhY2l0eT0iMSIgZml0LW1hcmdpbi1ib3R0b209IjAiIGZpdC1tYXJnaW4tbGVmdD0iMCIgZml0LW1hcmdpbi1yaWdodD0iMCIgZml0LW1hcmdpbi10b3A9IjAiIGdyaWR0b2xlcmFuY2U9IjEwIiBndWlkZXRvbGVyYW5jZT0iMTAiIGlkPSJuYW1lZHZpZXcxNDQ5OTYiIGlua3NjYXBlOmN1cnJlbnQtbGF5ZXI9InN2ZzE0NDk5NCIgaW5rc2NhcGU6Y3g9IjQ2LjE2MTYzMSIgaW5rc2NhcGU6Y3k9IjQ5Ljg0NzM4IiBpbmtzY2FwZTpwYWdlb3BhY2l0eT0iMCIgaW5rc2NhcGU6cGFnZXNoYWRvdz0iMiIgaW5rc2NhcGU6d2luZG93LWhlaWdodD0iMTAxNyIgaW5rc2NhcGU6d2luZG93LW1heGltaXplZD0iMSIgaW5rc2NhcGU6d2luZG93LXdpZHRoPSIxOTIwIiBpbmtzY2FwZTp3aW5kb3cteD0iLTgiIGlua3NjYXBlOndpbmRvdy15PSItOCIgaW5rc2NhcGU6em9vbT0iOC41MjU1MTY2IiBvYmplY3R0b2xlcmFuY2U9IjEwIiBwYWdlY29sb3I9IiNmZmZmZmYiIHNob3dncmlkPSJmYWxzZSI+JiN4YTsJPC9zb2RpcG9kaTpuYW1lZHZpZXc+JiN4YTs8ZyBpZD0iZzE0NDk5MiIgdHJhbnNmb3JtPSJ0cmFuc2xhdGUoLTMuNTE1LC0zLjUxMDMpIj4mI3hhOwk8dGl0bGUgaWQ9InRpdGxlMTQ0OTU3Ij5QYWdlLTE8L3RpdGxlPiYjeGE7CTxnIGlkPSJncm91cDgzMzItMSIgdHJhbnNmb3JtPSJ0cmFuc2xhdGUoMCwtMC43NSkiPiYjeGE7CQk8dGl0bGUgaWQ9InRpdGxlMTQ0OTU5Ij5ETlM8L3RpdGxlPiYjeGE7CQk8ZyBpZD0ic2hhcGU4MzMzLTIiIHRyYW5zZm9ybT0idHJhbnNsYXRlKDMuNTE1MzcpIj4mI3hhOwkJCTx0aXRsZSBpZD0idGl0bGUxNDQ5NjEiPlNoZWV0LjgzMzM8L3RpdGxlPiYjeGE7CQkJPGNpcmNsZSBpZD0iZWxsaXBzZTE0NDk2MyIgc3R5bGU9ImZpbGw6IzAwNzJDNjsiIGN4PSIzNiIgY3k9IjQwLjI3IiByPSIzNiIvPiYjeGE7CQk8L2c+JiN4YTsJCTxnIGlkPSJzaGFwZTgzMzQtNCIgdHJhbnNmb3JtPSJ0cmFuc2xhdGUoMCwtMTAuNTQ0NykiPiYjeGE7CQkJPHRpdGxlIGlkPSJ0aXRsZTE0NDk2NiI+U2hlZXQuODMzNDwvdGl0bGU+JiN4YTsJCQk8cGF0aCBpZD0icGF0aDE0NDk2OCIgaW5rc2NhcGU6Y29ubmVjdG9yLWN1cnZhdHVyZT0iMCIgc3R5bGU9ImZpbGw6I0ZGRkZGRjtmaWxsLW9wYWNpdHk6MC4yOyIgZD0iTTE0LjA2LDc2LjI3ICAgICBDMCw2Mi4yMSwwLDM5LjQxLDE0LjA2LDI1LjM1czM2Ljg2LTE0LjA2LDUwLjkyLDBMMTQuMDYsNzYuMjd6Ii8+JiN4YTsJCTwvZz4mI3hhOwkJPGcgaWQ9InNoYXBlODMzNS02IiB0cmFuc2Zvcm09InRyYW5zbGF0ZSg2LjM5NTY0LC0zLjAxODUyKSI+JiN4YTsJCQk8dGl0bGUgaWQ9InRpdGxlMTQ0OTcxIj5TaGVldC44MzM1PC90aXRsZT4mI3hhOwkJCTxwYXRoIGlkPSJwYXRoMTQ0OTczIiBpbmtzY2FwZTpjb25uZWN0b3ItY3VydmF0dXJlPSIwIiBzdHlsZT0iZmlsbDojRkZGRkZGO2ZpbGwtb3BhY2l0eTowLjg7IiBkPSJNNjYuMjUsNDMuMjggICAgIGMwLTcuNDItMi41Mi0xNC41Ny03LjE2LTIwLjRsLTAuMjYtMC4yN2MtMC4xNC0wLjEzLTAuMTQtMC4yNi0wLjI3LTAuNGwtMi4xMi0yLjI1Yy02LjIzLTYuMzYtMTQuNDQtOS44LTIzLjMyLTkuOCAgICAgYzAsMCwwLDAtMC4xMywwaC0wLjEzYy04Ljc1LDAuMTMtMTYuODMsMy40NC0yMy4wNiw5LjY3bC0yLjI1LDIuMzhjLTAuMTMsMC4xNC0wLjEzLDAuMjctMC4yNiwwLjRsLTAuMjcsMC4xMyAgICAgQzIuNTIsMjguNTcsMCwzNS44NiwwLDQzLjI4czIuNTIsMTQuNTcsNy4xNSwyMC40bDAuMjcsMC4yN2MwLjEzLDAuMTMsMC4xMywwLjI2LDAuMjYsMC40TDkuOCw2Ni42ICAgICBjNi4yMyw2LjIzLDE0LjMxLDkuNjcsMjMuMDYsOS42N2gwLjEzYzAsMCwwLDAsMC4xMywwYzguNzUsMCwxNy4wOS0zLjQ0LDIzLjMyLTkuNjdsMi4xMi0yLjM5YzAuMTMtMC4xMywwLjEzLTAuMjYsMC4yNy0wLjM5ICAgICBsMC4yNi0wLjI3QzYzLjczLDU3Ljk5LDY2LjI1LDUwLjcsNjYuMjUsNDMuMjh6IE01Mi44NiwyMS42OGMtMC4xMywwLTAuMjYsMC4xNC0wLjM5LDAuMTRjLTAuMjcsMC4xMy0wLjUzLDAuMjYtMC42NywwLjI2ICAgICBjLTAuNTMsMC4yNy0xLjE5LDAuNC0xLjg1LDAuNjZjLTAuMTMsMC0wLjI3LDAuMTQtMC40LDAuMTRjLTAuNzksMC4yNi0xLjQ2LDAuMzktMi4yNSwwLjY2Yy0wLjEzLDAtMC40LDAuMTMtMC41MywwLjEzICAgICBjLTEuMTktMy4xOC0yLjY1LTUuOTYtNC4zNy04LjA4QzQ2LjI0LDE2Ljc4LDQ5LjgyLDE4LjksNTIuODYsMjEuNjh6IE0zMi44NiwxNGgwLjEzYzMuNTgsMCw3LjI5LDMuODQsOS45NCwxMC40NyAgICAgYy0zLjA1LDAuNTMtNi4zNiwwLjc5LTkuODEsMC43OWMtMy40NCwwLTYuODktMC4yNi0xMC4wNy0wLjc5QzI1LjU3LDE3Ljk3LDI5LjI4LDE0LjEzLDMyLjg2LDE0eiBNMjMuNDUsMTUuNzIgICAgIGMtMS41OSwyLjEyLTMuMDUsNC43Ny00LjI0LDcuOTVjLTAuMTMsMC0wLjEzLDAtMC4yNiwwYy0wLjgtMC4yNi0xLjU5LTAuNC0yLjI2LTAuNjZjLTAuMTMsMC0wLjI2LTAuMTMtMC4zOS0wLjEzICAgICBjLTAuNTMtMC4yNy0xLjItMC41My0xLjczLTAuOGMtMC4yNi0wLjEzLTAuMzktMC4xMy0wLjY2LTAuMjZjLTAuMTMtMC4xNC0wLjI2LTAuMTQtMC41My0wLjI3ICAgICBDMTYuNDMsMTkuMDMsMTkuNzQsMTYuOTEsMjMuNDUsMTUuNzJ6IE0xMy4zOCw2NC44OGMwLjEzLDAsMC4yNy0wLjE0LDAuNC0wLjE0YzAuMjYtMC4xMywwLjQtMC4xMywwLjY2LTAuMjYgICAgIGMwLjUzLTAuMjcsMS4xOS0wLjQsMS44Ni0wLjY2YzAuMTMsMCwwLjI2LTAuMTQsMC4zOS0wLjE0YzAuOC0wLjI2LDEuNDYtMC4zOSwyLjI2LTAuNjZjMC4xMywwLDAuMTMsMCwwLjI2LDAgICAgIGMxLjE5LDMuMDUsMi42NSw1LjgzLDQuMjQsNy45NUMxOS43NCw2OS42NSwxNi4zLDY3LjUzLDEzLjM4LDY0Ljg4eiBNMzIuOTksNzIuNTZoLTAuMTNjLTMuNTgtMC4xMy03LjI5LTMuODQtOS44MS0xMC4zMyAgICAgYzMuMTgtMC41Myw2LjYzLTAuOCwxMC4wNy0wLjhjMy40NSwwLDYuNjMsMC4yNyw5LjgxLDAuOEM0MC40MSw2OC43MiwzNi41Nyw3Mi41NiwzMi45OSw3Mi41NnogTTQyLjQsNzAuOTcgICAgIGMxLjcyLTIuMTIsMy4xOC00LjksNC4zNy04LjA4YzAuMTMsMCwwLjQsMC4xMywwLjUzLDAuMTNjMC43OSwwLjI3LDEuNTksMC40LDIuMjUsMC42NmMwLjEzLDAsMC4yNywwLjE0LDAuNCwwLjE0ICAgICBjMC42NiwwLjI2LDEuMTksMC4zOSwxLjg1LDAuNjZjMC4yNywwLjEzLDAuNCwwLjEzLDAuNjcsMC4yNmMwLjEzLDAsMC4yNiwwLjE0LDAuNTMsMC4yN0M0OS44Miw2Ny42Niw0Ni4yNCw2OS43OCw0Mi40LDcwLjk3eiAgICAgIE01NS43OCw2MS44M2MtMC40LDAtMC42Ni0wLjEzLTEuMDYtMC4yN2MtMC40LTAuMTMtMC45My0wLjM5LTEuMzMtMC41M2MtMC4xMywwLTAuMjYtMC4xMy0wLjM5LTAuMTMgICAgIGMtMS41OS0wLjY2LTMuMzItMS4wNi01LjA0LTEuNTljMC40LTEuNTksMC44LTMuMTgsMS4wNi00Ljc3aC0zLjk3Yy0wLjI3LDEuNDYtMC41MywyLjc4LTAuOTMsMy45OCAgICAgYy0zLjQ0LTAuNjctNy4xNS0wLjkzLTExLTAuOTNjLTMuOTcsMC03LjY4LDAuNC0xMS4yNiwxLjA2Yy0wLjQtMS4zMy0wLjY2LTIuNjUtMC45My00LjExaC0zLjk3YzAuMjYsMS43MiwwLjY2LDMuMzEsMS4wNiw0LjkgICAgIGMtMS41OSwwLjQtMy4xOCwwLjkzLTQuNjQsMS40NmMtMC4xMywwLjEzLTAuNCwwLjEzLTAuNTMsMC4yN2MtMC40LDAuMTMtMC45MywwLjM5LTEuMzIsMC41M2MtMC4yNywwLTAuNjcsMC4xMy0wLjkzLDAuMjYgICAgIGMtMy45OC00Ljc3LTYuMjMtMTAuNzMtNi42My0xNi44M2gzLjMydi0zLjg0SDMuOTdjMC40LTYuMDksMi42NS0xMS45Miw2LjUtMTYuNTZsMC4xMy0wLjEzYzAuMjYsMC4xMywwLjY2LDAuMjYsMC45MywwLjQgICAgIGMwLjUzLDAuMjYsMC45MiwwLjM5LDEuNDUsMC42NmMwLjE0LDAsMC4yNywwLjEzLDAuNCwwLjEzYzEuNDYsMC41MywzLjA1LDEuMDYsNC43NywxLjQ2Yy0wLjQsMS40Ni0wLjY2LDIuOTEtMC45Myw0LjM3aDMuOTggICAgIGMwLjI2LTEuMTksMC41My0yLjUyLDAuNzktMy41OGMzLjU4LDAuNjcsNy40MiwxLjA2LDExLjI3LDEuMDZjMy44NCwwLDcuNTUtMC4zOSwxMC45OS0wLjkyYzAuMjcsMS4wNiwwLjUzLDIuMjUsMC44LDMuNTdoMy45NyAgICAgYy0wLjI2LTEuNDUtMC41My0yLjkxLTAuOTMtNC4zN2MxLjczLTAuNCwzLjMyLTAuOTMsNC45MS0xLjU5YzAuMTMsMCwwLjM5LTAuMTMsMC41My0wLjEzYzAuNTMtMC4xMywwLjkyLTAuNCwxLjQ1LTAuNTMgICAgIGMwLjI3LTAuMTMsMC42Ny0wLjI3LDAuOTMtMC40YzMuODQsNC43Nyw2LjIzLDEwLjYsNi42MywxNi43aC0zLjk4djMuODRoMy45OEM2MS44Nyw1MS4yMyw1OS42Miw1Ny4xOSw1NS43OCw2MS44M3oiLz4mI3hhOwkJPC9nPiYjeGE7CQk8ZyBpZD0ic2hhcGU4MzM2LTgiIHRyYW5zZm9ybT0idHJhbnNsYXRlKDE2Ljk3OTIsLTI3LjQwNDMpIj4mI3hhOwkJCTx0aXRsZSBpZD0idGl0bGUxNDQ5NzYiPlNoZWV0LjgzMzY8L3RpdGxlPiYjeGE7CQkJPHBhdGggaWQ9InBhdGgxNDQ5NzgiIGlua3NjYXBlOmNvbm5lY3Rvci1jdXJ2YXR1cmU9IjAiIHN0eWxlPSJmaWxsOiNGRkZGRkY7IiBkPSJNMTQuMjIsNjcuNDZjMCwxLjU3LTAuMjEsMi45Mi0wLjYyLDQuMDMgICAgIGMtMC40MSwxLjEyLTEsMi4wMy0xLjc2LDIuNzNjLTAuNzcsMC43MS0xLjcsMS4yMy0yLjgsMS41NmMtMS4xLDAuMzMtMi40MSwwLjQ5LTMuOTIsMC40OUgxLjAzYy0wLjI5LDAtMC41NC0wLjA5LTAuNzMtMC4yNiAgICAgQzAuMSw3NS44NCwwLDc1LjU2LDAsNzUuMTdWNjAuMjVjMC0wLjM4LDAuMS0wLjY2LDAuMy0wLjgzYzAuMi0wLjE4LDAuNDQtMC4yNiwwLjczLTAuMjZoNC4zOWMxLjUzLDAsMi44MiwwLjE4LDMuODgsMC41MyAgICAgYzEuMDcsMC4zNiwxLjk2LDAuODksMi42OSwxLjU5czEuMjgsMS41NywxLjY2LDIuNlMxNC4yMiw2Ni4xMSwxNC4yMiw2Ny40NnogTTEwLjYyLDY3LjU4YzAtMC44MS0wLjA5LTEuNTYtMC4yOC0yLjI2ICAgICBjLTAuMTktMC43LTAuNS0xLjMtMC45Mi0xLjgxQzksNjMsOC40Nyw2Mi42LDcuODEsNjIuMzFjLTAuNjYtMC4yOS0xLjUyLTAuNDMtMi41OS0wLjQzSDMuNDZ2MTEuNjRoMS44MiAgICAgYzAuOTUsMCwxLjc1LTAuMTIsMi40LTAuMzdjMC42Ni0wLjI1LDEuMi0wLjYyLDEuNjQtMS4xMmMwLjQzLTAuNSwwLjc2LTEuMTIsMC45OC0xLjg2QzEwLjUxLDY5LjQzLDEwLjYyLDY4LjU3LDEwLjYyLDY3LjU4eiIvPiYjeGE7CQk8L2c+JiN4YTsJCTxnIGlkPSJzaGFwZTgzMzctMTAiIHRyYW5zZm9ybT0idHJhbnNsYXRlKDM0LjA1MiwtMjcuMzI1MSkiPiYjeGE7CQkJPHRpdGxlIGlkPSJ0aXRsZTE0NDk4MSI+U2hlZXQuODMzNzwvdGl0bGU+JiN4YTsJCQk8cGF0aCBpZD0icGF0aDE0NDk4MyIgaW5rc2NhcGU6Y29ubmVjdG9yLWN1cnZhdHVyZT0iMCIgc3R5bGU9ImZpbGw6I0ZGRkZGRjsiIGQ9Ik0xNC4xMSw3NC45OGMwLDAuMi0wLjAzLDAuMzgtMC4xLDAuNTQgICAgIGMtMC4wNywwLjE2LTAuMTcsMC4yOS0wLjI5LDAuNGMtMC4xMSwwLjEtMC4yNiwwLjE4LTAuNDIsMC4yM3MtMC4zMywwLjA3LTAuNSwwLjA3aC0xLjQ4Yy0wLjMxLDAtMC41Ny0wLjAzLTAuOC0wLjA5ICAgICBjLTAuMjItMC4wNi0wLjQzLTAuMTgtMC42Mi0wLjM0Yy0wLjE5LTAuMTYtMC4zNy0wLjM4LTAuNTUtMC42NmMtMC4xNy0wLjI4LTAuMzctMC42NC0wLjU5LTEuMDhsLTQuMjYtOCAgICAgYy0wLjI1LTAuNDgtMC41LTAuOTktMC43NS0xLjU0Yy0wLjI2LTAuNTUtMC40OS0xLjA5LTAuNjktMS42MUgzLjAzYzAuMDQsMC42NCwwLjA2LDEuMjcsMC4wOCwxLjkgICAgIGMwLjAyLDAuNjMsMC4wMywxLjI4LDAuMDMsMS45NXY4Ljk1YzAsMC4wOS0wLjAzLDAuMTctMC4wOCwwLjI0cy0wLjEzLDAuMTMtMC4yNSwwLjE4cy0wLjI4LDAuMDktMC40OCwwLjExICAgICBjLTAuMiwwLjAzLTAuNDcsMC4wNC0wLjc4LDAuMDRzLTAuNTctMC4wMS0wLjc3LTAuMDRzLTAuMzYtMC4wNi0wLjQ3LTAuMTFjLTAuMTItMC4wNS0wLjItMC4xMS0wLjI0LTAuMTggICAgIEMwLjAyLDc1Ljg3LDAsNzUuNzksMCw3NS43VjYwLjMyYzAtMC40MSwwLjEyLTAuNzIsMC4zNi0wLjkzczAuNTQtMC4zMSwwLjktMC4zMWgxLjg2YzAuMzMsMCwwLjYyLDAuMDIsMC44NSwwLjA4ICAgICBzMC40MywwLjE1LDAuNjEsMC4yOWMwLjE4LDAuMTMsMC4zNSwwLjMxLDAuNTEsMC41NWMwLjE2LDAuMjMsMC4zMiwwLjUyLDAuNDksMC44NmwzLjMzLDYuMjZjMC4xOSwwLjM4LDAuMzksMC43NSwwLjU4LDEuMTIgICAgIGMwLjE5LDAuMzYsMC4zNywwLjczLDAuNTUsMS4xYzAuMTcsMC4zNiwwLjM0LDAuNzIsMC41MSwxLjA3YzAuMTcsMC4zNiwwLjMzLDAuNzEsMC40OSwxLjA2aDAuMDEgICAgIGMtMC4wMi0wLjYyLTAuMDQtMS4yNi0wLjA2LTEuOTNjLTAuMDEtMC42Ny0wLjAxLTEuMzEtMC4wMS0xLjkydi04LjAzYzAtMC4wOCwwLjAyLTAuMTYsMC4wNy0wLjI0ICAgICBjMC4wNS0wLjA3LDAuMTQtMC4xMywwLjI3LTAuMThjMC4xMi0wLjA1LDAuMjgtMC4wOSwwLjQ5LTAuMTFjMC4yLTAuMDIsMC40Ni0wLjAzLDAuNzgtMC4wM2MwLjMsMCwwLjU1LDAuMDEsMC43NSwwLjAzICAgICBzMC4zNiwwLjA2LDAuNDcsMC4xMWMwLjExLDAuMDUsMC4xOSwwLjExLDAuMjMsMC4xOGMwLjA1LDAuMDgsMC4wNywwLjE1LDAuMDcsMC4yNEwxNC4xMSw3NC45OHoiLz4mI3hhOwkJPC9nPiYjeGE7CQk8ZyBpZD0ic2hhcGU4MzM4LTEyIiB0cmFuc2Zvcm09InRyYW5zbGF0ZSg1MC44NjQxLC0yNy4xMDA1KSI+JiN4YTsJCQk8dGl0bGUgaWQ9InRpdGxlMTQ0OTg2Ij5TaGVldC44MzM4PC90aXRsZT4mI3hhOwkJCTxwYXRoIGlkPSJwYXRoMTQ0OTg4IiBpbmtzY2FwZTpjb25uZWN0b3ItY3VydmF0dXJlPSIwIiBzdHlsZT0iZmlsbDojRkZGRkZGOyIgZD0iTTExLjE4LDcwLjg0YzAsMC45LTAuMTcsMS42OC0wLjUsMi4zNiAgICAgYy0wLjM0LDAuNjgtMC43OSwxLjI1LTEuMzcsMS43Yy0wLjU3LDAuNDYtMS4yNCwwLjgtMi4wMSwxLjAzYy0wLjc2LDAuMjMtMS41OSwwLjM0LTIuNDYsMC4zNGMtMC41OSwwLTEuMTQtMC4wNS0xLjY0LTAuMTQgICAgIGMtMC41MS0wLjEtMC45Ni0wLjIyLTEuMzUtMC4zNWMtMC4zOS0wLjE0LTAuNzEtMC4yOC0wLjk3LTAuNDRjLTAuMjYtMC4xNS0wLjQ1LTAuMjgtMC41Ni0wLjM5Yy0wLjEyLTAuMTItMC4yLTAuMjgtMC4yNS0wLjUgICAgIEMwLjAzLDc0LjI0LDAsNzMuOTIsMCw3My41MmMwLTAuMjgsMC4wMS0wLjUsMC4wMy0wLjY5YzAuMDEtMC4xOCwwLjA0LTAuMzMsMC4wOC0wLjQ1YzAuMDQtMC4xMSwwLjEtMC4xOSwwLjE2LTAuMjQgICAgIGMwLjA3LTAuMDUsMC4xNC0wLjA4LDAuMjMtMC4wOGMwLjEzLDAsMC4zLDAuMDgsMC41MywwLjIyYzAuMjIsMC4xNSwwLjUxLDAuMzEsMC44NiwwLjQ4YzAuMzYsMC4xOCwwLjc4LDAuMzQsMS4yNywwLjQ5ICAgICBjMC40OCwwLjE0LDEuMDUsMC4yMiwxLjY5LDAuMjJjMC40MywwLDAuODEtMC4wNiwxLjE0LTAuMTZjMC4zNC0wLjEsMC42Mi0wLjI0LDAuODUtMC40M2MwLjI0LTAuMTgsMC40MS0wLjQxLDAuNTQtMC42OCAgICAgYzAuMTItMC4yOCwwLjE5LTAuNTgsMC4xOS0wLjkyYzAtMC4zOS0wLjExLTAuNzItMC4zMi0xYy0wLjIxLTAuMjctMC40OS0wLjUyLTAuODMtMC43NGMtMC4zNC0wLjIxLTAuNzMtMC40Mi0xLjE2LTAuNjEgICAgIGMtMC40My0wLjE5LTAuODgtMC4zOS0xLjMzLTAuNmMtMC40Ni0wLjIxLTAuOTEtMC40NS0xLjM0LTAuNzJjLTAuNDMtMC4yNy0wLjgyLTAuNTktMS4xNS0wLjk3Yy0wLjM0LTAuMzctMC42Mi0wLjgxLTAuODMtMS4zMyAgICAgYy0wLjIyLTAuNTEtMC4zMi0xLjEyLTAuMzItMS44M2MwLTAuODIsMC4xNS0xLjU1LDAuNDYtMi4xN2MwLjMtMC42MiwwLjcxLTEuMTMsMS4yMy0xLjU1YzAuNTEtMC40MSwxLjEyLTAuNzEsMS44Mi0wLjkxICAgICBjMC43LTAuMjEsMS40NS0wLjMxLDIuMjMtMC4zMWMwLjQxLDAsMC44MSwwLjAzLDEuMjIsMC4wOWMwLjQsMC4wNywwLjc4LDAuMTUsMS4xMywwLjI2YzAuMzUsMC4xLDAuNjcsMC4yMiwwLjk0LDAuMzUgICAgIGMwLjI4LDAuMTQsMC40NiwwLjI0LDAuNTQsMC4zM2MwLjA5LDAuMDksMC4xNSwwLjE3LDAuMTgsMC4yM2MwLjAzLDAuMDYsMC4wNiwwLjE0LDAuMDgsMC4yNGMwLjAyLDAuMTEsMC4wNCwwLjIzLDAuMDUsMC4zOSAgICAgYzAsMC4xNSwwLjAxLDAuMzQsMC4wMSwwLjU3YzAsMC4yNi0wLjAxLDAuNDgtMC4wMiwwLjY1Yy0wLjAxLDAuMTgtMC4wNCwwLjMyLTAuMDcsMC40NGMtMC4wMywwLjExLTAuMDcsMC4yLTAuMTMsMC4yNSAgICAgcy0wLjEzLDAuMDgtMC4yMywwLjA4Yy0wLjEsMC0wLjI1LTAuMDYtMC40Ni0wLjE4Yy0wLjIyLTAuMTMtMC40OC0wLjI2LTAuNzgtMC40MWMtMC4zMS0wLjE0LTAuNjctMC4yOC0xLjA3LTAuNCAgICAgYy0wLjQxLTAuMTItMC44Ni0wLjE4LTEuMzQtMC4xOGMtMC4zOCwwLTAuNzEsMC4wNS0wLjk5LDAuMTRjLTAuMjgsMC4xLTAuNTIsMC4yMi0wLjcxLDAuMzljLTAuMTksMC4xNi0wLjMzLDAuMzYtMC40MiwwLjU5ICAgICBjLTAuMDksMC4yMy0wLjE0LDAuNDctMC4xNCwwLjcyYzAsMC4zOCwwLjEsMC43MSwwLjMxLDAuOTljMC4yMSwwLjI4LDAuNDksMC41MiwwLjgzLDAuNzRjMC4zNSwwLjIyLDAuNzUsMC40MiwxLjE5LDAuNjEgICAgIHMwLjg5LDAuMzksMS4zNSwwLjZzMC45MSwwLjQ1LDEuMzUsMC43MmMwLjQ0LDAuMjcsMC44MywwLjU5LDEuMTgsMC45N2MwLjM0LDAuMzcsMC42MiwwLjgxLDAuODMsMS4zMlMxMS4xOCw3MC4xNSwxMS4xOCw3MC44NHogICAgICIvPiYjeGE7CQk8L2c+JiN4YTsJPC9nPiYjeGE7PC9nPiYjeGE7PC9zdmc+;" vertex="1" parent="1">
          <mxGeometry x="439.99999999999983" y="392" width="72" height="72" as="geometry" />
        </mxCell>
        <mxCell id="a0yiWjh66o21EPFuuch4-2100" value="CDN&#xa;创世云&#xa;腾讯云&#xa;白山云" style="shape=image;verticalLabelPosition=bottom;labelBackgroundColor=#ffffff;verticalAlign=top;aspect=fixed;imageAspect=0;image=data:image/svg+xml,PHN2ZyB4bWxuczpjYz0iaHR0cDovL2NyZWF0aXZlY29tbW9ucy5vcmcvbnMjIiB4bWxuczpkYz0iaHR0cDovL3B1cmwub3JnL2RjL2VsZW1lbnRzLzEuMS8iIHhtbG5zOmlua3NjYXBlPSJodHRwOi8vd3d3Lmlua3NjYXBlLm9yZy9uYW1lc3BhY2VzL2lua3NjYXBlIiB4bWxuczpyZGY9Imh0dHA6Ly93d3cudzMub3JnLzE5OTkvMDIvMjItcmRmLXN5bnRheC1ucyMiIHhtbG5zOnNvZGlwb2RpPSJodHRwOi8vc29kaXBvZGkuc291cmNlZm9yZ2UubmV0L0RURC9zb2RpcG9kaS0wLmR0ZCIgeG1sbnM6c3ZnPSJodHRwOi8vd3d3LnczLm9yZy8yMDAwL3N2ZyIgeG1sbnM9Imh0dHA6Ly93d3cudzMub3JnLzIwMDAvc3ZnIiB4bWxuczp4bGluaz0iaHR0cDovL3d3dy53My5vcmcvMTk5OS94bGluayIgdmVyc2lvbj0iMS4xIiBpZD0ic3ZnNjI4NDMiIGlua3NjYXBlOnZlcnNpb249IjAuOTIuMyAoMjQwNTU0NiwgMjAxOC0wMy0xMSkiIHNvZGlwb2RpOmRvY25hbWU9ImNsb3VkLnN2ZyIgeD0iMHB4IiB5PSIwcHgiIHZpZXdCb3g9IjAgMCAzNy4zNCAyNS43MyIgc3R5bGU9ImVuYWJsZS1iYWNrZ3JvdW5kOm5ldyAwIDAgMzcuMzQgMjUuNzM7IiB4bWw6c3BhY2U9InByZXNlcnZlIj4mI3hhOzxzb2RpcG9kaTpuYW1lZHZpZXcgYm9yZGVyY29sb3I9IiM2NjY2NjYiIGJvcmRlcm9wYWNpdHk9IjEiIGZpdC1tYXJnaW4tYm90dG9tPSIwIiBmaXQtbWFyZ2luLWxlZnQ9IjAiIGZpdC1tYXJnaW4tcmlnaHQ9IjAiIGZpdC1tYXJnaW4tdG9wPSIwIiBncmlkdG9sZXJhbmNlPSIxMCIgZ3VpZGV0b2xlcmFuY2U9IjEwIiBpZD0ibmFtZWR2aWV3NjI4NDUiIGlua3NjYXBlOmN1cnJlbnQtbGF5ZXI9InN2ZzYyODQzIiBpbmtzY2FwZTpjeD0iMjQuODk0NzMyIiBpbmtzY2FwZTpjeT0iMTcuMTUxMDg3IiBpbmtzY2FwZTpwYWdlb3BhY2l0eT0iMCIgaW5rc2NhcGU6cGFnZXNoYWRvdz0iMiIgaW5rc2NhcGU6d2luZG93LWhlaWdodD0iMTAxNyIgaW5rc2NhcGU6d2luZG93LW1heGltaXplZD0iMSIgaW5rc2NhcGU6d2luZG93LXdpZHRoPSIxOTIwIiBpbmtzY2FwZTp3aW5kb3cteD0iLTgiIGlua3NjYXBlOndpbmRvdy15PSItOCIgaW5rc2NhcGU6em9vbT0iMjUuMjY4ODgzIiBvYmplY3R0b2xlcmFuY2U9IjEwIiBwYWdlY29sb3I9IiNmZmZmZmYiIHNob3dncmlkPSJmYWxzZSI+JiN4YTsJPC9zb2RpcG9kaTpuYW1lZHZpZXc+JiN4YTs8ZyBpZD0iZzYyODQxIiB0cmFuc2Zvcm09InRyYW5zbGF0ZSgtNi4zMzc1MDQzZS01KSI+JiN4YTsJPHRpdGxlIGlkPSJ0aXRsZTYyODM0Ij5QYWdlLTE8L3RpdGxlPiYjeGE7CTxnIGlkPSJzaGFwZTU0MjktMSI+JiN4YTsJCTx0aXRsZSBpZD0idGl0bGU2MjgzNiI+Q2xvdWQ8L3RpdGxlPiYjeGE7CQk8cGF0aCBpZD0icGF0aDYyODM4IiBpbmtzY2FwZTpjb25uZWN0b3ItY3VydmF0dXJlPSIwIiBzdHlsZT0iZmlsbDojM0Y1NzY1OyIgZD0iTTguMTksMjUuNzNjMTkuMjQsMCwxOS4yNCwwLDE5LjI0LDAgICAgYzUuNTUsMCw5LjkxLTQuMzYsOS45MS05LjkxYzAtNS4yOS00LjA1LTkuNjUtOS4zMy05Ljk2QzI2LjI4LDIuMzcsMjIuNzYsMCwxOC42NywwQzEzLjQzLDAsOC43Niw0LjEsOC4xOSw5LjM4bDAsMCAgICBDMy44Myw5LjM4LDAsMTMuMTcsMCwxNy41OEMwLDIyLjI1LDMuODMsMjUuNzMsOC4xOSwyNS43M3ogTTguMTksMTEuNzJjMC4zLDAsMC41NywwLDAuODgsMC4zYzEuNDUsMCwxLjQ1LDAsMS40NSwwICAgIGMwLTEuNDksMC0xLjQ5LDAtMS40OWMwLTQuMzYsMy43OS04LjE2LDguMTUtOC4xNmMzLjUyLDAsNi40MywyLjAzLDcuNjEsNS4yNWMwLjI3LDAuNTcsMC4yNywwLjU3LDAuMjcsMC41NyAgICBjMC44OCwwLDAuODgsMCwwLjg4LDBjNC4xLDAsNy41OCwzLjUzLDcuNTgsNy42M2MwLDQuMzYtMy40OCw3LjU4LTcuNTgsNy41OGMtMTkuMjQsMC0xOS4yNCwwLTE5LjI0LDAgICAgYy0zLjIyLDAtNS44Ni0yLjYxLTUuODYtNS44MkMyLjMzLDE0LjM2LDQuOTcsMTEuNzIsOC4xOSwxMS43MnoiLz4mI3hhOwk8L2c+JiN4YTs8L2c+JiN4YTs8L3N2Zz4=;" vertex="1" parent="1">
          <mxGeometry x="644" y="330.00000000000045" width="37" height="26" as="geometry" />
        </mxCell>
        <mxCell id="a0yiWjh66o21EPFuuch4-2101" value="高防服务&#xa;阿里/腾讯" style="shape=image;verticalLabelPosition=bottom;labelBackgroundColor=#ffffff;verticalAlign=top;aspect=fixed;imageAspect=0;image=data:image/svg+xml,PHN2ZyB4bWxuczpjYz0iaHR0cDovL2NyZWF0aXZlY29tbW9ucy5vcmcvbnMjIiB4bWxuczpkYz0iaHR0cDovL3B1cmwub3JnL2RjL2VsZW1lbnRzLzEuMS8iIHhtbG5zOmlua3NjYXBlPSJodHRwOi8vd3d3Lmlua3NjYXBlLm9yZy9uYW1lc3BhY2VzL2lua3NjYXBlIiB4bWxuczpyZGY9Imh0dHA6Ly93d3cudzMub3JnLzE5OTkvMDIvMjItcmRmLXN5bnRheC1ucyMiIHhtbG5zOnNvZGlwb2RpPSJodHRwOi8vc29kaXBvZGkuc291cmNlZm9yZ2UubmV0L0RURC9zb2RpcG9kaS0wLmR0ZCIgeG1sbnM6c3ZnPSJodHRwOi8vd3d3LnczLm9yZy8yMDAwL3N2ZyIgeG1sbnM9Imh0dHA6Ly93d3cudzMub3JnLzIwMDAvc3ZnIiB4bWxuczp4bGluaz0iaHR0cDovL3d3dy53My5vcmcvMTk5OS94bGluayIgdmVyc2lvbj0iMS4xIiBpZD0ic3ZnNjMzOTQiIGlua3NjYXBlOnZlcnNpb249IjAuOTIuMyAoMjQwNTU0NiwgMjAxOC0wMy0xMSkiIHNvZGlwb2RpOmRvY25hbWU9ImNsb3VkX3Byb2Nlc3Muc3ZnIiB4PSIwcHgiIHk9IjBweCIgdmlld0JveD0iMCAwIDU4LjM2IDMzLjEiIHN0eWxlPSJlbmFibGUtYmFja2dyb3VuZDpuZXcgMCAwIDU4LjM2IDMzLjE7IiB4bWw6c3BhY2U9InByZXNlcnZlIj4mI3hhOzxzb2RpcG9kaTpuYW1lZHZpZXcgYm9yZGVyY29sb3I9IiM2NjY2NjYiIGJvcmRlcm9wYWNpdHk9IjEiIGZpdC1tYXJnaW4tYm90dG9tPSIwIiBmaXQtbWFyZ2luLWxlZnQ9IjAiIGZpdC1tYXJnaW4tcmlnaHQ9IjAiIGZpdC1tYXJnaW4tdG9wPSIwIiBncmlkdG9sZXJhbmNlPSIxMCIgZ3VpZGV0b2xlcmFuY2U9IjEwIiBpZD0ibmFtZWR2aWV3NjMzOTYiIGlua3NjYXBlOmN1cnJlbnQtbGF5ZXI9InN2ZzYzMzk0IiBpbmtzY2FwZTpjeD0iMzguODkzMDgiIGlua3NjYXBlOmN5PSIyMi4wNjYxMTYiIGlua3NjYXBlOnBhZ2VvcGFjaXR5PSIwIiBpbmtzY2FwZTpwYWdlc2hhZG93PSIyIiBpbmtzY2FwZTp3aW5kb3ctaGVpZ2h0PSIxMDE3IiBpbmtzY2FwZTp3aW5kb3ctbWF4aW1pemVkPSIxIiBpbmtzY2FwZTp3aW5kb3ctd2lkdGg9IjE5MjAiIGlua3NjYXBlOndpbmRvdy14PSItOCIgaW5rc2NhcGU6d2luZG93LXk9Ii04IiBpbmtzY2FwZTp6b29tPSIxOC43OTI5NDQiIG9iamVjdHRvbGVyYW5jZT0iMTAiIHBhZ2Vjb2xvcj0iI2ZmZmZmZiIgc2hvd2dyaWQ9ImZhbHNlIj4mI3hhOwk8L3NvZGlwb2RpOm5hbWVkdmlldz4mI3hhOzxnIGlkPSJnNjMzOTIiIHRyYW5zZm9ybT0idHJhbnNsYXRlKC0wLjc2NjU2NjA5LC0wLjc1MDY0KSI+JiN4YTsJPHRpdGxlIGlkPSJ0aXRsZTYzMzc3Ij5QYWdlLTE8L3RpdGxlPiYjeGE7CTxnIGlkPSJncm91cDUyNzctMSIgdHJhbnNmb3JtPSJ0cmFuc2xhdGUoMS4zODQxOCwtMC43NSkiPiYjeGE7CQk8dGl0bGUgaWQ9InRpdGxlNjMzNzkiPkNsb3VkIFByb2Nlc3M8L3RpdGxlPiYjeGE7CQk8ZyBpZD0ic2hhcGU1Mjc4LTIiIHRyYW5zZm9ybT0idHJhbnNsYXRlKDMwLjkwNjEpIj4mI3hhOwkJCTx0aXRsZSBpZD0idGl0bGU2MzM4MSI+cGF0aDk2MDY8L3RpdGxlPiYjeGE7CQkJPHBhdGggaWQ9InBhdGg2MzM4MyIgaW5rc2NhcGU6Y29ubmVjdG9yLWN1cnZhdHVyZT0iMCIgc3R5bGU9ImZpbGw6I0M3QzdDNzsiIGQ9Ik0yMy43OCwxMy4zYzAuMTktMC4yLDAuMi0wLjUsMC4wMy0wLjcxICAgICBsLTAuOTUtMS4wNWMtMC4yMS0wLjE2LTAuNDktMC4xNy0wLjcxLTAuMDNsLTEuNjQsMS4wN2MtMC4zNS0wLjIzLTAuNzYtMC41NC0xLjExLTAuNzdsMC41Mi0xLjk2YzAuMDctMC4yMy0wLjA0LTAuNDgtMC4yNi0wLjU4ICAgICBsLTEuMTktMC41NmMtMC4yMS0wLjE0LTAuNDktMC4wOC0wLjYyLDAuMTNjLTAuMDEsMC4wMi0wLjAyLDAuMDMtMC4wMywwLjA1bC0xLjE1LDEuNzRjLTAuNDEtMC4xOC0wLjg0LTAuMjktMS4yOC0wLjMzICAgICBMMTUuMiw4LjI5YzAuMDItMC4yNy0wLjE4LTAuNS0wLjQ1LTAuNTJjLTAuMDEsMC0wLjAyLDAtMC4wMywwbC0xLjM2LDBjLTAuMi0wLjA4LTAuNDMsMC4xMi0wLjUxLDAuMzNsLTAuNDUsMi4wNSAgICAgYy0wLjQ1LDAuMDEtMC44OSwwLjA4LTEuMzEsMC4yM2wtMC45OC0xLjg0QzkuOTUsOC4zNiw5LjcyLDguMjcsOS40OCw4LjNMOC4xNyw4LjgyQzcuOTMsOC45LDcuNzksOS4xNCw3Ljg0LDkuMzhsMC40MSwxLjk2ICAgICBjLTAuMzYsMC4yLTAuNzQsMC41NC0xLjEsMC43M2wtMS41OS0xLjI4Yy0wLjE5LTAuMTctMC40OC0wLjE1LTAuNjUsMC4wNGMwLDAsMCwwLDAsMGwtMC45OCwwLjg5ICAgICBjLTAuMjEsMC4xNS0wLjI2LDAuNDQtMC4xMSwwLjY0YzAsMCwwLjAxLDAuMDEsMC4wMSwwLjAxbDEuMTMsMS43Yy0wLjMsMC40MS0wLjY4LDAuNzUtMC44NCwxLjE3bC0xLjk2LTAuNjUgICAgIGMtMC4yNy0wLjA0LTAuNTMsMC4wOS0wLjY1LDAuMzNsLTAuNTYsMS4xOWMtMC4wOSwwLjI3LDAuMDEsMC41NywwLjI1LDAuNzNsMS42NywxLjA3Yy0wLjE2LDAuNDItMC4xOCwwLjg1LTAuMzQsMS4yN2wtMi4wMiwwLjIgICAgIGMtMC4yNSwwLjA3LTAuNDMsMC4yOS0wLjQ1LDAuNTVMMCwyMS4yMmMwLDAuMjYsMC4xNiwwLjUsMC40LDAuNTlsMi4wNiwwLjNjMC4wMywwLjQ5LDAuMTEsMC45NywwLjIyLDEuNDRsLTEuODMsMC45OCAgICAgYy0wLjIzLDAuMDktMC4zNiwwLjM0LTAuMjcsMC41OGMwLjAxLDAuMDIsMC4wMiwwLjA0LDAuMDIsMC4wNmwwLjQ1LDEuMjRjMC4xMSwwLjI0LDAuMzYsMC40LDAuNjIsMC4zOWwyLjAzLTAuNDhsMC41OSwxLjEgICAgIEwzLDI4Ljk5Yy0wLjEsMC4yMS0wLjA5LDAuNDYsMC4wNCwwLjY1TDQsMzAuNjljMC4xNywwLjE4LDAuNDQsMC4yMiwwLjY1LDAuMWwxLjctMS4xM2MwLjM1LDAuMjMsMC43NiwwLjUzLDEuMTEsMC43NiAgICAgbC0wLjUyLDEuOTZjLTAuMDcsMC4yMywwLjA0LDAuNDgsMC4yNiwwLjU4bDEuMjUsMC42M2MwLjI0LDAuMDgsMC40OSwwLDAuNjUtMC4xOWwxLjA4LTEuNjZjMC40MywwLjAyLDAuODUsMC4xOCwxLjI4LDAuMiAgICAgbDAuMTIsMi4wOGMwLjA3LDAuMjUsMC4yOSwwLjQ0LDAuNTUsMC40NWwxLjM1LDAuMTNjMC4yMy0wLjA4LDAuNDMtMC4yNSwwLjUyLTAuNDhsMC4zOC0xLjk4YzAuNTEtMC4wNSwwLjk0LTAuMTgsMS40NC0wLjIyICAgICBsMC45MiwxLjc1YzAuMTEsMC4yNCwwLjM5LDAuMzQsMC42MywwLjI0bDEuMjQtMC40NGMwLjI2LTAuMDksMC40Mi0wLjM1LDAuMzktMC42M2wtMC40Mi0xLjk2YzAuNC0wLjIsMC43Ny0wLjQ1LDEuMTEtMC43NCAgICAgbDEuNTgsMS4yOWMwLjE3LDAuMiwwLjQ3LDAuMjQsMC42NywwLjA3YzAuMDEtMC4wMSwwLjAzLTAuMDIsMC4wNC0wLjA0bDAuOTktMC44OGMwLjItMC4xNywwLjI0LTAuNDcsMC4wNy0wLjY3ICAgICBjLTAuMDEtMC4wMS0wLjAyLTAuMDMtMC4wNC0wLjA0bC0xLjE0LTEuN2MwLjM2LTAuMzMsMC42NC0wLjczLDAuODQtMS4xOGwxLjk3LDAuNjVjMC4yMywwLjA3LDAuNDgtMC4wNCwwLjU4LTAuMjZsMC42My0xLjI1ICAgICBjMC4wNS0wLjIzLTAuMDItMC40OC0wLjE4LTAuNjVsLTEuNzQtMS4xNmMwLjE2LTAuMzgsMC4yNS0wLjc5LDAuMjctMS4ybDIuMDktMC4yN2MwLjIxLTAuMDYsMC40NC0wLjI2LDAuNDUtMC40MWwwLjA2LTEuNDIgICAgIGMwLjAyLTAuMjctMC4xOC0wLjUtMC40NS0wLjUyYy0wLjAxLDAtMC4wMSwwLTAuMDIsMGwtMS45Ni0wLjM4Yy0wLjAxLTAuNDYtMC4wNi0wLjkyLTAuMTUtMS4zN2wxLjY5LTAuOTggICAgIGMwLjI3LTAuMDgsMC40My0wLjM3LDAuMzUtMC42NWMtMC4wMS0wLjAyLTAuMDEtMC4wMy0wLjAyLTAuMDVsLTAuNDUtMS4yM2MtMC4wOS0wLjIzLTAuMzUtMC4zNS0wLjU4LTAuMjYgICAgIGMtMC4wMiwwLjAxLTAuMDMsMC4wMS0wLjA1LDAuMDJsLTIuMDIsMC4zMmwtMC41OS0xLjFMMjMuNzgsMTMuM3oiLz4mI3hhOwkJPC9nPiYjeGE7CQk8ZyBpZD0ic2hhcGU1Mjc5LTQiIHRyYW5zZm9ybT0idHJhbnNsYXRlKDAsLTMuNDg5MzYpIj4mI3hhOwkJCTx0aXRsZSBpZD0idGl0bGU2MzM4NiI+cGF0aDk2MDg8L3RpdGxlPiYjeGE7CQkJPHBhdGggaWQ9InBhdGg2MzM4OCIgaW5rc2NhcGU6Y29ubmVjdG9yLWN1cnZhdHVyZT0iMCIgc3R5bGU9ImZpbGw6I0FBRDJGMjsiIGQ9Ik00NC42NiwxNC4yYy0wLjQyLTUuMTYtNC42MS05LjIxLTkuNzMtOS4yMSAgICAgYy0zLjcxLDAuMDItNy4wOCwyLjE1LTguNyw1LjQ4Yy0xLjU1LTAuOTgtMy4zNS0xLjUtNS4xOS0xLjVjLTQuNjIsMC04LjUxLDMuMjItOS42Nyw3LjZjLTQuODMtMS41NS0xMCwxLjEyLTExLjU1LDUuOTUgICAgIGMtMS40MSw0LjQsMC42Nyw5LjE2LDQuODUsMTEuMTJjMC45LDAuNDMsMS44NywwLjcsMi44NiwwLjhsMC4yMywwLjAzYzEuMzEsMC4xMSwzLjE0LDAuMTMsNS44OSwwLjEzaDI5LjcgICAgIGMwLjY1LDAsMS4zLTAuMDgsMS45My0wLjIzYzQuNTgtMC45MSw4LjAyLTUuMDYsOC4wMi0xMC4wM0M1My4zMSwxOS4xNCw0OS41NCwxNC44NSw0NC42NiwxNC4yeiIvPiYjeGE7CQk8L2c+JiN4YTsJPC9nPiYjeGE7PC9nPiYjeGE7PC9zdmc+;" vertex="1" parent="1">
          <mxGeometry x="636" y="464" width="58" height="33" as="geometry" />
        </mxCell>
        <mxCell id="a0yiWjh66o21EPFuuch4-2102" value="首都在线代理服务器" style="shape=image;verticalLabelPosition=bottom;labelBackgroundColor=#ffffff;verticalAlign=top;aspect=fixed;imageAspect=0;image=data:image/svg+xml,PHN2ZyB4bWxuczpjYz0iaHR0cDovL2NyZWF0aXZlY29tbW9ucy5vcmcvbnMjIiB4bWxuczpkYz0iaHR0cDovL3B1cmwub3JnL2RjL2VsZW1lbnRzLzEuMS8iIHhtbG5zOmlua3NjYXBlPSJodHRwOi8vd3d3Lmlua3NjYXBlLm9yZy9uYW1lc3BhY2VzL2lua3NjYXBlIiB4bWxuczpyZGY9Imh0dHA6Ly93d3cudzMub3JnLzE5OTkvMDIvMjItcmRmLXN5bnRheC1ucyMiIHhtbG5zOnNvZGlwb2RpPSJodHRwOi8vc29kaXBvZGkuc291cmNlZm9yZ2UubmV0L0RURC9zb2RpcG9kaS0wLmR0ZCIgeG1sbnM6c3ZnPSJodHRwOi8vd3d3LnczLm9yZy8yMDAwL3N2ZyIgeG1sbnM9Imh0dHA6Ly93d3cudzMub3JnLzIwMDAvc3ZnIiB4bWxuczp4bGluaz0iaHR0cDovL3d3dy53My5vcmcvMTk5OS94bGluayIgdmVyc2lvbj0iMS4xIiBpZD0ic3ZnODU1MTkiIGlua3NjYXBlOnZlcnNpb249IjAuOTIuMyAoMjQwNTU0NiwgMjAxOC0wMy0xMSkiIHNvZGlwb2RpOmRvY25hbWU9Imh0dHAuc3ZnIiB4PSIwcHgiIHk9IjBweCIgdmlld0JveD0iMCAwIDQ4IDQ4IiBzdHlsZT0iZW5hYmxlLWJhY2tncm91bmQ6bmV3IDAgMCA0OCA0ODsiIHhtbDpzcGFjZT0icHJlc2VydmUiPiYjeGE7PHNvZGlwb2RpOm5hbWVkdmlldyBib3JkZXJjb2xvcj0iIzY2NjY2NiIgYm9yZGVyb3BhY2l0eT0iMSIgZml0LW1hcmdpbi1ib3R0b209IjAiIGZpdC1tYXJnaW4tbGVmdD0iMCIgZml0LW1hcmdpbi1yaWdodD0iMCIgZml0LW1hcmdpbi10b3A9IjAiIGdyaWR0b2xlcmFuY2U9IjEwIiBndWlkZXRvbGVyYW5jZT0iMTAiIGlkPSJuYW1lZHZpZXc4NTUyMSIgaW5rc2NhcGU6Y3VycmVudC1sYXllcj0ic3ZnODU1MTkiIGlua3NjYXBlOmN4PSIzMi4xMzUwMjQiIGlua3NjYXBlOmN5PSIzMi4wMDA3NjkiIGlua3NjYXBlOnBhZ2VvcGFjaXR5PSIwIiBpbmtzY2FwZTpwYWdlc2hhZG93PSIyIiBpbmtzY2FwZTp3aW5kb3ctaGVpZ2h0PSIxMDE3IiBpbmtzY2FwZTp3aW5kb3ctbWF4aW1pemVkPSIxIiBpbmtzY2FwZTp3aW5kb3ctd2lkdGg9IjE5MjAiIGlua3NjYXBlOndpbmRvdy14PSItOCIgaW5rc2NhcGU6d2luZG93LXk9Ii04IiBpbmtzY2FwZTp6b29tPSIxMy4xMzYzNjQiIG9iamVjdHRvbGVyYW5jZT0iMTAiIHBhZ2Vjb2xvcj0iI2ZmZmZmZiIgc2hvd2dyaWQ9ImZhbHNlIj4mI3hhOwk8L3NvZGlwb2RpOm5hbWVkdmlldz4mI3hhOzxnIGlkPSJnODU1MTciIHRyYW5zZm9ybT0idHJhbnNsYXRlKC0wLjc5NSwtMC43NSkiPiYjeGE7CTx0aXRsZSBpZD0idGl0bGU4NTQ0MCI+UGFnZS0xPC90aXRsZT4mI3hhOwk8ZyBpZD0iZ3JvdXA1MjQ5LTEiIHRyYW5zZm9ybT0idHJhbnNsYXRlKDAuNzk1LC0wLjc1KSI+JiN4YTsJCTx0aXRsZSBpZD0idGl0bGU4NTQ0MiI+SFRUUDwvdGl0bGU+JiN4YTsJCTxnIGlkPSJzaGFwZTUyNTAtMiI+JiN4YTsJCQk8dGl0bGUgaWQ9InRpdGxlODU0NDQiPmNpcmNsZTE1MDU1PC90aXRsZT4mI3hhOwkJCTxjaXJjbGUgaWQ9ImVsbGlwc2U4NTQ0NiIgc3R5bGU9ImZpbGw6I0ZGRkZGRjsiIGN4PSIyNCIgY3k9IjI1LjUiIHI9IjI0Ii8+JiN4YTsJCTwvZz4mI3hhOwkJPGcgaWQ9InNoYXBlNTI1MS00IiB0cmFuc2Zvcm09InRyYW5zbGF0ZSgxLjQ5NzE5LC0xLjMxMjUpIj4mI3hhOwkJCTx0aXRsZSBpZD0idGl0bGU4NTQ0OSI+cGF0aDE1MDU3PC90aXRsZT4mI3hhOwkJCTxwYXRoIGlkPSJwYXRoODU0NTEiIGlua3NjYXBlOmNvbm5lY3Rvci1jdXJ2YXR1cmU9IjAiIHN0eWxlPSJmaWxsOiNGRkZGRkY7IiBkPSJNNDUuMzgsMjYuNjNjMCwwLjA2LDAsMC4xMiwwLDAuMTggICAgIGMwLDEyLjUzLTEwLjE2LDIyLjY5LTIyLjY5LDIyLjY5UzAsMzkuMzQsMCwyNi44MWMwLTAuMDYsMC0wLjEyLDAtMC4xOEMwLDE0LjEsMTAuMTYsMy45NCwyMi42OSwzLjk0UzQ1LjM4LDE0LjEsNDUuMzgsMjYuNjN6Ii8+JiN4YTsJCTwvZz4mI3hhOwkJPGcgaWQ9InNoYXBlNTI1Mi02IiB0cmFuc2Zvcm09InRyYW5zbGF0ZSg0LjE2MjUsLTM1LjI1KSI+JiN4YTsJCQk8dGl0bGUgaWQ9InRpdGxlODU0NTQiPnBhdGgxNTA1OTwvdGl0bGU+JiN4YTsJCQk8cGF0aCBpZD0icGF0aDg1NDU2IiBpbmtzY2FwZTpjb25uZWN0b3ItY3VydmF0dXJlPSIwIiBzdHlsZT0iZmlsbDpub25lOyIgZD0iTTAsNDcuN2MzLjI1LDEuMDUsMTAuODQsMS44LDE5Ljc1LDEuOCAgICAgYzguNjUsMCwxNi4xMS0wLjcsMTkuNS0xLjcyTDAsNDcuN3oiLz4mI3hhOwkJCSYjeGE7CQkJCTxwYXRoIGlkPSJwYXRoODU0NTgiIGlua3NjYXBlOmNvbm5lY3Rvci1jdXJ2YXR1cmU9IjAiIHN0eWxlPSJmaWxsOm5vbmU7c3Ryb2tlOiNEM0QzRDM7c3Ryb2tlLXdpZHRoOjEuNTtzdHJva2UtbWl0ZXJsaW1pdDozOyIgZD0iICAgICBNMCw0Ny43YzMuMjUsMS4wNSwxMC44NCwxLjgsMTkuNzUsMS44YzguNjUsMCwxNi4xMS0wLjcsMTkuNS0xLjcyIi8+JiN4YTsJCTwvZz4mI3hhOwkJPGcgaWQ9InNoYXBlNTI1My05IiB0cmFuc2Zvcm09InRyYW5zbGF0ZSgxMy40NCwtMjIuNzcpIj4mI3hhOwkJCTx0aXRsZSBpZD0idGl0bGU4NTQ2MSI+cGF0aDE1MDYxPC90aXRsZT4mI3hhOwkJCTxwYXRoIGlkPSJwYXRoODU0NjMiIGlua3NjYXBlOmNvbm5lY3Rvci1jdXJ2YXR1cmU9IjAiIHN0eWxlPSJmaWxsOiNEM0QzRDM7IiBkPSJNMTAuNTYsMjYuMjVjNC4yMSwwLDguODgsOC45LDkuMDUsMjEuNzVIMS41MSAgICAgQzEuNjgsMzUuMTUsNi4zNiwyNi4yNSwxMC41NiwyNi4yNXogTTEwLjU2LDI0Ljc1QzQuNzIsMjQuNzUsMCwzNS41LDAsNDguNzVjMCwwLjI2LDAsMC41LDAsMC43NWgyMS4xMWMwLTAuMjUsMC0wLjQ5LDAtMC43NSAgICAgYzAtMTMuMjUtNC43Mi0yNC0xMC41Ni0yNEgxMC41NnoiLz4mI3hhOwkJPC9nPiYjeGE7CQk8ZyBpZD0ic2hhcGU1MjU0LTExIiB0cmFuc2Zvcm09InRyYW5zbGF0ZSgxLjEzMjUsLTEuMTI1KSI+JiN4YTsJCQk8dGl0bGUgaWQ9InRpdGxlODU0NjYiPnBhdGgxNTA2MzwvdGl0bGU+JiN4YTsJCQk8cGF0aCBpZD0icGF0aDg1NDY4IiBpbmtzY2FwZTpjb25uZWN0b3ItY3VydmF0dXJlPSIwIiBzdHlsZT0iZmlsbDojNTVEMkY2OyIgZD0iTTIzLjA1LDQ5LjVDMTAuNCw0OS40NywwLjEzLDM5LjI3LDAsMjYuNjMgICAgIHYtMC4zOGg0Ni4xMnYwLjM4QzQ1Ljk5LDM5LjI4LDM1LjcsNDkuNDgsMjMuMDUsNDkuNXoiLz4mI3hhOwkJPC9nPiYjeGE7CQk8ZyBpZD0ic2hhcGU1MjU1LTEzIiB0cmFuc2Zvcm09InRyYW5zbGF0ZSgxLjUsLTcuMDI5NDQpIj4mI3hhOwkJCTx0aXRsZSBpZD0idGl0bGU4NTQ3MSI+cGF0aDE1MDY1PC90aXRsZT4mI3hhOwkJCTxwYXRoIGlkPSJwYXRoODU0NzMiIGlua3NjYXBlOmNvbm5lY3Rvci1jdXJ2YXR1cmU9IjAiIHN0eWxlPSJmaWxsOiM1NTZBOEE7IiBkPSJNMjIuNSwxMC4wM2MxMi40MywwLDIyLjUsMTAuMDcsMjIuNSwyMi41ICAgICBzLTEwLjA3LDIyLjUtMjIuNSwyMi41UzAsNDQuOTYsMCwzMi41M2wwLDBDMCwyMC4xLDEwLjA3LDEwLjAzLDIyLjUsMTAuMDN6IE0yMi41LDguNTNjLTEzLjI1LDAtMjQsMTAuNzUtMjQsMjRzMTAuNzUsMjQsMjQsMjQgICAgIHMyNC0xMC43NSwyNC0yNGwwLDBDNDYuNSwxOS4yOCwzNS43NSw4LjUzLDIyLjUsOC41M3oiLz4mI3hhOwkJPC9nPiYjeGE7CQk8ZyBpZD0ic2hhcGU1MjU2LTE1IiB0cmFuc2Zvcm09InRyYW5zbGF0ZSg0LjE2MjUsLTExLjc2KSI+JiN4YTsJCQk8dGl0bGUgaWQ9InRpdGxlODU0NzYiPnBhdGgxNTA2NzwvdGl0bGU+JiN4YTsJCQk8cGF0aCBpZD0icGF0aDg1NDc4IiBpbmtzY2FwZTpjb25uZWN0b3ItY3VydmF0dXJlPSIwIiBzdHlsZT0iZmlsbDpub25lOyIgZD0iTTAsNDkuNWMzLjI1LTEuMDYsMTAuODctMS44LDE5Ljc1LTEuOCAgICAgYzguNjUsMCwxNi4xMSwwLjcxLDE5LjUsMS43M0wwLDQ5LjV6Ii8+JiN4YTsJCQkmI3hhOwkJCQk8cGF0aCBpZD0icGF0aDg1NDgwIiBpbmtzY2FwZTpjb25uZWN0b3ItY3VydmF0dXJlPSIwIiBzdHlsZT0iZmlsbDpub25lO3N0cm9rZTojNTU2QThBO3N0cm9rZS13aWR0aDoxLjU7c3Ryb2tlLW1pdGVybGltaXQ6MzsiIGQ9IiAgICAgTTAsNDkuNWMzLjI1LTEuMDYsMTAuODctMS44LDE5Ljc1LTEuOGM4LjY1LDAsMTYuMTEsMC43MSwxOS41LDEuNzMiLz4mI3hhOwkJPC9nPiYjeGE7CQk8ZyBpZD0ic2hhcGU1MjU3LTE4IiB0cmFuc2Zvcm09InRyYW5zbGF0ZSgwLjcwNSwtMjQpIj4mI3hhOwkJCTx0aXRsZSBpZD0idGl0bGU4NTQ4MyI+bGluZTE1MDY5PC90aXRsZT4mI3hhOwkJCSYjeGE7CQkJCTxwYXRoIGlkPSJwYXRoODU0ODUiIGlua3NjYXBlOmNvbm5lY3Rvci1jdXJ2YXR1cmU9IjAiIHN0eWxlPSJmaWxsOm5vbmU7c3Ryb2tlOiM1NTZBOEE7c3Ryb2tlLXdpZHRoOjEuNTtzdHJva2UtbWl0ZXJsaW1pdDozOyIgZD0iICAgICBNMCw0OS41aDQ2Ljc5Ii8+JiN4YTsJCTwvZz4mI3hhOwkJPGcgaWQ9Imdyb3VwNTI1OC0yMSIgdHJhbnNmb3JtPSJ0cmFuc2xhdGUoOC42Nzc1LC0yNi43NTI1KSI+JiN4YTsJCQk8dGl0bGUgaWQ9InRpdGxlODU0ODgiPmcxNTA3OTwvdGl0bGU+JiN4YTsJCQk8ZyBpZD0ic2hhcGU1MjU5LTIyIj4mI3hhOwkJCQk8dGl0bGUgaWQ9InRpdGxlODU0OTAiPnBhdGgxNTA3MTwvdGl0bGU+JiN4YTsJCQkJPHBhdGggaWQ9InBhdGg4NTQ5MiIgaW5rc2NhcGU6Y29ubmVjdG9yLWN1cnZhdHVyZT0iMCIgc3R5bGU9ImZpbGw6IzU1NkE4QTsiIGQ9Ik03LjU5LDQ5LjQ5SDYuMDFWNDUuNEgxLjU3djQuMUgwdi05LjQ2aDEuNTcgICAgICBWNDRoNC40NHYtMy45N2gxLjU4VjQ5LjQ5eiIvPiYjeGE7CQkJPC9nPiYjeGE7CQkJPGcgaWQ9InNoYXBlNTI2MC0yNCIgdHJhbnNmb3JtPSJ0cmFuc2xhdGUoOSwtMC4wMDc1KSI+JiN4YTsJCQkJPHRpdGxlIGlkPSJ0aXRsZTg1NDk1Ij5wYXRoMTUwNzM8L3RpdGxlPiYjeGE7CQkJCTxwYXRoIGlkPSJwYXRoODU0OTciIGlua3NjYXBlOmNvbm5lY3Rvci1jdXJ2YXR1cmU9IjAiIHN0eWxlPSJmaWxsOiM1NTZBOEE7IiBkPSJNNi45OSw0MS4zOUg0LjI3djguMTFIMi43MXYtOC4xMUgwdi0xLjM0aDcgICAgICBMNi45OSw0MS4zOXoiLz4mI3hhOwkJCTwvZz4mI3hhOwkJCTxnIGlkPSJzaGFwZTUyNjEtMjYiIHRyYW5zZm9ybT0idHJhbnNsYXRlKDE2LjcxLC0wLjAwNzUpIj4mI3hhOwkJCQk8dGl0bGUgaWQ9InRpdGxlODU1MDAiPnBhdGgxNTA3NTwvdGl0bGU+JiN4YTsJCQkJPHBhdGggaWQ9InBhdGg4NTUwMiIgaW5rc2NhcGU6Y29ubmVjdG9yLWN1cnZhdHVyZT0iMCIgc3R5bGU9ImZpbGw6IzU1NkE4QTsiIGQ9Ik02Ljk5LDQxLjM5SDQuMjd2OC4xMUgyLjcxdi04LjExSDB2LTEuMzRoNyAgICAgIEw2Ljk5LDQxLjM5eiIvPiYjeGE7CQkJPC9nPiYjeGE7CQkJPGcgaWQ9InNoYXBlNTI2Mi0yOCIgdHJhbnNmb3JtPSJ0cmFuc2xhdGUoMjUuMDcyNSwtMC4wMDc1KSI+JiN4YTsJCQkJPHRpdGxlIGlkPSJ0aXRsZTg1NTA1Ij5wYXRoMTUwNzc8L3RpdGxlPiYjeGE7CQkJCTxwYXRoIGlkPSJwYXRoODU1MDciIGlua3NjYXBlOmNvbm5lY3Rvci1jdXJ2YXR1cmU9IjAiIHN0eWxlPSJmaWxsOiM1NTZBOEE7IiBkPSJNMS41Nyw0Ni4wN3YzLjQzSDB2LTkuNDVoMi44NiAgICAgIGMwLjkxLTAuMDYsMS44LDAuMjEsMi41MywwLjc1YzAuNjEsMC41NCwwLjk1LDEuMzMsMC45LDIuMTRjMC4wMywwLjg1LTAuMzIsMS42Ny0wLjk0LDIuMjVjLTAuNjksMC42MS0xLjYsMC45My0yLjUyLDAuODhIMS41NyAgICAgIHogTTEuNTcsNDEuMzR2My40MmgxLjAyYzAuNTQsMC4wMywxLjA3LTAuMTMsMS41LTAuNDZjMC4zNi0wLjM0LDAuNTUtMC44MiwwLjUyLTEuMzJjMC0xLjExLTAuNjQtMS42Ny0xLjkzLTEuNjdMMS41Nyw0MS4zNHoiLz4mI3hhOwkJCTwvZz4mI3hhOwkJPC9nPiYjeGE7CQk8ZyBpZD0ic2hhcGU1MjYzLTMwIiB0cmFuc2Zvcm09InRyYW5zbGF0ZSgxMy40NDc1KSI+JiN4YTsJCQk8dGl0bGUgaWQ9InRpdGxlODU1MTEiPnBhdGgxNTA4MTwvdGl0bGU+JiN4YTsJCQk8cGF0aCBpZD0icGF0aDg1NTEzIiBpbmtzY2FwZTpjb25uZWN0b3ItY3VydmF0dXJlPSIwIiBzdHlsZT0iZmlsbDojNTU2QThBOyIgZD0iTTE5LjYsMjYuMjVDMTkuNDMsMzkuMTEsMTQuNzYsNDgsMTAuNTUsNDggICAgIFMxLjY3LDM5LjExLDEuNSwyNi4yNUgxOS42eiBNMjEuMSwyNC43NUgwYzAsMC4yNSwwLDAuNSwwLDAuNzVjMCwxMy4yNSw0LjcyLDI0LDEwLjU2LDI0YzUuODMsMCwxMC41NS0xMC43NSwxMC41NS0yNCAgICAgYzAtMC4yNSwwLTAuNSwwLTAuNzVIMjEuMXoiLz4mI3hhOwkJPC9nPiYjeGE7CTwvZz4mI3hhOzwvZz4mI3hhOzwvc3ZnPg==;" vertex="1" parent="1">
          <mxGeometry x="641" y="610" width="48" height="48" as="geometry" />
        </mxCell>
        <mxCell id="a0yiWjh66o21EPFuuch4-2103" value="Nginx代理服务器&#xa;上海机房(主)&#xa;北京机房(备)" style="shape=image;verticalLabelPosition=bottom;labelBackgroundColor=#ffffff;verticalAlign=top;aspect=fixed;imageAspect=0;image=data:image/svg+xml,PHN2ZyB4bWxuczpjYz0iaHR0cDovL2NyZWF0aXZlY29tbW9ucy5vcmcvbnMjIiB4bWxuczpkYz0iaHR0cDovL3B1cmwub3JnL2RjL2VsZW1lbnRzLzEuMS8iIHhtbG5zOmlua3NjYXBlPSJodHRwOi8vd3d3Lmlua3NjYXBlLm9yZy9uYW1lc3BhY2VzL2lua3NjYXBlIiB4bWxuczpyZGY9Imh0dHA6Ly93d3cudzMub3JnLzE5OTkvMDIvMjItcmRmLXN5bnRheC1ucyMiIHhtbG5zOnNvZGlwb2RpPSJodHRwOi8vc29kaXBvZGkuc291cmNlZm9yZ2UubmV0L0RURC9zb2RpcG9kaS0wLmR0ZCIgeG1sbnM6c3ZnPSJodHRwOi8vd3d3LnczLm9yZy8yMDAwL3N2ZyIgeG1sbnM9Imh0dHA6Ly93d3cudzMub3JnLzIwMDAvc3ZnIiB4bWxuczp4bGluaz0iaHR0cDovL3d3dy53My5vcmcvMTk5OS94bGluayIgdmVyc2lvbj0iMS4xIiBpZD0ic3ZnMTEzNDIyIiBpbmtzY2FwZTp2ZXJzaW9uPSIwLjkyLjMgKDI0MDU1NDYsIDIwMTgtMDMtMTEpIiBzb2RpcG9kaTpkb2NuYW1lPSJ3ZWIuc3ZnIiB4PSIwcHgiIHk9IjBweCIgdmlld0JveD0iMCAwIDM2IDM2IiBzdHlsZT0iZW5hYmxlLWJhY2tncm91bmQ6bmV3IDAgMCAzNiAzNjsiIHhtbDpzcGFjZT0icHJlc2VydmUiPiYjeGE7PHNvZGlwb2RpOm5hbWVkdmlldyBib3JkZXJjb2xvcj0iIzY2NjY2NiIgYm9yZGVyb3BhY2l0eT0iMSIgZml0LW1hcmdpbi1ib3R0b209IjAiIGZpdC1tYXJnaW4tbGVmdD0iMCIgZml0LW1hcmdpbi1yaWdodD0iMCIgZml0LW1hcmdpbi10b3A9IjAiIGdyaWR0b2xlcmFuY2U9IjEwIiBndWlkZXRvbGVyYW5jZT0iMTAiIGlkPSJuYW1lZHZpZXcxMTM0MjQiIGlua3NjYXBlOmN1cnJlbnQtbGF5ZXI9InN2ZzExMzQyMiIgaW5rc2NhcGU6Y3g9IjIzLjYwNDk5IiBpbmtzY2FwZTpjeT0iMjMuOTk5OTc1IiBpbmtzY2FwZTpwYWdlb3BhY2l0eT0iMCIgaW5rc2NhcGU6cGFnZXNoYWRvdz0iMiIgaW5rc2NhcGU6d2luZG93LWhlaWdodD0iMTAxNyIgaW5rc2NhcGU6d2luZG93LW1heGltaXplZD0iMSIgaW5rc2NhcGU6d2luZG93LXdpZHRoPSIxOTIwIiBpbmtzY2FwZTp3aW5kb3cteD0iLTgiIGlua3NjYXBlOndpbmRvdy15PSItOCIgaW5rc2NhcGU6em9vbT0iMTcuMzQwMDExIiBvYmplY3R0b2xlcmFuY2U9IjEwIiBwYWdlY29sb3I9IiNmZmZmZmYiIHNob3dncmlkPSJmYWxzZSI+JiN4YTsJPC9zb2RpcG9kaTpuYW1lZHZpZXc+JiN4YTs8ZyBpZD0iZzExMzQyMCIgdHJhbnNmb3JtPSJ0cmFuc2xhdGUoLTEuMzQyNDksLTAuNzQ3OTIpIj4mI3hhOwk8dGl0bGUgaWQ9InRpdGxlMTEzMzczIj5QYWdlLTE8L3RpdGxlPiYjeGE7CTxnIGlkPSJncm91cDUyNDAtMSIgdHJhbnNmb3JtPSJ0cmFuc2xhdGUoMS41LC0wLjc1KSI+JiN4YTsJCTx0aXRsZSBpZD0idGl0bGUxMTMzNzUiPldlYjwvdGl0bGU+JiN4YTsJCTxnIGlkPSJzaGFwZTUyNDEtMiIgdHJhbnNmb3JtPSJ0cmFuc2xhdGUoNS4zNzk3NCwtNS41MzcyNCkiPiYjeGE7CQkJPHRpdGxlIGlkPSJ0aXRsZTExMzM3NyI+cGF0aDk2MTA8L3RpdGxlPiYjeGE7CQkJPHBhdGggaWQ9InBhdGgxMTMzNzkiIGlua3NjYXBlOmNvbm5lY3Rvci1jdXJ2YXR1cmU9IjAiIHN0eWxlPSJmaWxsOiNGRkZGRkY7IiBkPSJNMzAuMDksMjUuMDRjMCw5LjczLTcuOSwxNy42Mi0xNy42MywxNy42MiAgICAgYy05LjczLDAtMTcuNjItNy45LTE3LjYyLTE3LjYzYzAtOS43Myw3Ljg5LTE3LjYyLDE3LjYyLTE3LjYyQzIyLjE5LDcuNDIsMzAuMDgsMTUuMzEsMzAuMDksMjUuMDR6Ii8+JiN4YTsJCTwvZz4mI3hhOwkJPGcgaWQ9InNoYXBlNTI0Mi00IiB0cmFuc2Zvcm09InRyYW5zbGF0ZSgwLjIxNzQ5MiwtMC4zNzUpIj4mI3hhOwkJCTx0aXRsZSBpZD0idGl0bGUxMTMzODIiPnBhdGg5NjEyPC90aXRsZT4mI3hhOwkJCTxwYXRoIGlkPSJwYXRoMTEzMzg0IiBpbmtzY2FwZTpjb25uZWN0b3ItY3VydmF0dXJlPSIwIiBzdHlsZT0iZmlsbDojRDRFMkY1OyIgZD0iTTM1LjI1LDE5Ljg3YzAsOS43My03Ljg5LDE3LjYzLTE3LjYzLDE3LjYzICAgICBTMCwyOS42LDAsMTkuODdsMCwwSDM1LjI1eiIvPiYjeGE7CQk8L2c+JiN4YTsJCTxnIGlkPSJzaGFwZTUyNDMtNiIgdHJhbnNmb3JtPSJ0cmFuc2xhdGUoMS4zNDI0OSwtNS4yNzIwOCkiPiYjeGE7CQkJPHRpdGxlIGlkPSJ0aXRsZTExMzM4NyI+cGF0aDk2MTQ8L3RpdGxlPiYjeGE7CQkJPHBhdGggaWQ9InBhdGgxMTMzODkiIGlua3NjYXBlOmNvbm5lY3Rvci1jdXJ2YXR1cmU9IjAiIHN0eWxlPSJmaWxsOiM0RDRFNEU7IiBkPSJNMTYuNSw4LjI3YzkuMTEsMCwxNi41LDcuMzksMTYuNSwxNi41ICAgICBzLTcuMzksMTYuNS0xNi41LDE2LjVTMCwzMy44OCwwLDI0Ljc3UzcuMzksOC4yNywxNi41LDguMjd6IE0xNi41LDYuNzdjLTkuOTQsMC0xOCw4LjA2LTE4LDE4czguMDYsMTgsMTgsMThzMTgtOC4wNiwxOC0xOCAgICAgUzI2LjQ0LDYuNzcsMTYuNSw2Ljc3eiIvPiYjeGE7CQk8L2c+JiN4YTsJCTxnIGlkPSJncm91cDUyNDQtOCI+JiN4YTsJCQk8dGl0bGUgaWQ9InRpdGxlMTEzMzkyIj5nOTYyMDwvdGl0bGU+JiN4YTsJCQk8ZyBpZD0ic2hhcGU1MjQ1LTkiIHRyYW5zZm9ybT0idHJhbnNsYXRlKDkuNTkyNDkpIj4mI3hhOwkJCQk8dGl0bGUgaWQ9InRpdGxlMTEzMzk0Ij5wYXRoOTYxNjwvdGl0bGU+JiN4YTsJCQkJPHBhdGggaWQ9InBhdGgxMTMzOTYiIGlua3NjYXBlOmNvbm5lY3Rvci1jdXJ2YXR1cmU9IjAiIHN0eWxlPSJmaWxsOiM0RDRFNEU7IiBkPSJNNy44NywzLjJjMywwLDYuMzgsNy4wMSw2LjM4LDE2LjQgICAgICBjMCw5LjM4LTMuMzgsMTYuNC02LjM4LDE2LjRTMS41LDI4Ljk5LDEuNSwxOS42QzEuNSwxMC4yMiw0Ljg3LDMuMiw3Ljg3LDMuMnogTTcuODcsMS43QzMuNTIsMS43LDAsOS43MSwwLDE5LjYgICAgICBjMCw5Ljg4LDMuNTIsMTcuOSw3Ljg3LDE3LjlzNy44OC04LjAxLDcuODgtMTcuOUMxNS43NSw5LjcyLDEyLjIyLDEuNyw3Ljg3LDEuN3oiLz4mI3hhOwkJCTwvZz4mI3hhOwkJCTxnIGlkPSJzaGFwZTUyNDYtMTEiIHRyYW5zZm9ybT0idHJhbnNsYXRlKDAsLTE4KSI+JiN4YTsJCQkJPHRpdGxlIGlkPSJ0aXRsZTExMzM5OSI+bGluZTk2MTg8L3RpdGxlPiYjeGE7CQkJCSYjeGE7CQkJCQk8cGF0aCBpZD0icGF0aDExMzQwMSIgaW5rc2NhcGU6Y29ubmVjdG9yLWN1cnZhdHVyZT0iMCIgc3R5bGU9ImZpbGw6bm9uZTtzdHJva2U6IzRENEU0RTtzdHJva2Utd2lkdGg6MS41O3N0cm9rZS1taXRlcmxpbWl0OjM7IiBkPSIgICAgICBNMCwzNy41aDM1LjA5Ii8+JiN4YTsJCQk8L2c+JiN4YTsJCTwvZz4mI3hhOwkJPGcgaWQ9InNoYXBlNTI0Ny0xNCIgdHJhbnNmb3JtPSJ0cmFuc2xhdGUoNC4zNDk5OSwtMjcpIj4mI3hhOwkJCTx0aXRsZSBpZD0idGl0bGUxMTM0MDUiPnBhdGg5NjIyPC90aXRsZT4mI3hhOwkJCTxwYXRoIGlkPSJwYXRoMTEzNDA3IiBpbmtzY2FwZTpjb25uZWN0b3ItY3VydmF0dXJlPSIwIiBzdHlsZT0iZmlsbDpub25lOyIgZD0iTTAsMzUuNDdjMy4yOSwxLjI4LDguMTIsMi4wMywxMy40OSwyLjAzICAgICBzMTAuMi0wLjc1LDEzLjUtMi4wM0gweiIvPiYjeGE7CQkJJiN4YTsJCQkJPHBhdGggaWQ9InBhdGgxMTM0MDkiIGlua3NjYXBlOmNvbm5lY3Rvci1jdXJ2YXR1cmU9IjAiIHN0eWxlPSJmaWxsOm5vbmU7c3Ryb2tlOiM0RDRFNEU7c3Ryb2tlLXdpZHRoOjEuNTtzdHJva2UtbWl0ZXJsaW1pdDozOyIgZD0iICAgICBNMCwzNS40N2MzLjI5LDEuMjgsOC4xMiwyLjAzLDEzLjQ5LDIuMDNzMTAuMi0wLjc1LDEzLjUtMi4wMyIvPiYjeGE7CQk8L2c+JiN4YTsJCTxnIGlkPSJzaGFwZTUyNDgtMTciIHRyYW5zZm9ybT0idHJhbnNsYXRlKDQuMzQ5OTksLTYuOTY3NSkiPiYjeGE7CQkJPHRpdGxlIGlkPSJ0aXRsZTExMzQxMiI+cGF0aDk2MjQ8L3RpdGxlPiYjeGE7CQkJPHBhdGggaWQ9InBhdGgxMTM0MTQiIGlua3NjYXBlOmNvbm5lY3Rvci1jdXJ2YXR1cmU9IjAiIHN0eWxlPSJmaWxsOm5vbmU7IiBkPSJNMCwzNy41YzMuMjktMS4yOCw4LjEyLTIuMDMsMTMuNDktMi4wMyAgICAgczEwLjIsMC43NSwxMy41LDIuMDNIMHoiLz4mI3hhOwkJCSYjeGE7CQkJCTxwYXRoIGlkPSJwYXRoMTEzNDE2IiBpbmtzY2FwZTpjb25uZWN0b3ItY3VydmF0dXJlPSIwIiBzdHlsZT0iZmlsbDpub25lO3N0cm9rZTojNEQ0RTRFO3N0cm9rZS13aWR0aDoxLjU7c3Ryb2tlLW1pdGVybGltaXQ6MzsiIGQ9IiAgICAgTTAsMzcuNWMzLjI5LTEuMjgsOC4xMi0yLjAzLDEzLjQ5LTIuMDNzMTAuMiwwLjc1LDEzLjUsMi4wMyIvPiYjeGE7CQk8L2c+JiN4YTsJPC9nPiYjeGE7PC9nPiYjeGE7PC9zdmc+;" vertex="1" parent="1">
          <mxGeometry x="825" y="366" width="36" height="36" as="geometry" />
        </mxCell>
        <mxCell id="a0yiWjh66o21EPFuuch4-2104" value="" style="shape=image;verticalLabelPosition=bottom;labelBackgroundColor=#ffffff;verticalAlign=top;aspect=fixed;imageAspect=0;image=data:image/svg+xml,PHN2ZyB4bWxuczpjYz0iaHR0cDovL2NyZWF0aXZlY29tbW9ucy5vcmcvbnMjIiB4bWxuczpkYz0iaHR0cDovL3B1cmwub3JnL2RjL2VsZW1lbnRzLzEuMS8iIHhtbG5zOmlua3NjYXBlPSJodHRwOi8vd3d3Lmlua3NjYXBlLm9yZy9uYW1lc3BhY2VzL2lua3NjYXBlIiB4bWxuczpyZGY9Imh0dHA6Ly93d3cudzMub3JnLzE5OTkvMDIvMjItcmRmLXN5bnRheC1ucyMiIHhtbG5zOnNvZGlwb2RpPSJodHRwOi8vc29kaXBvZGkuc291cmNlZm9yZ2UubmV0L0RURC9zb2RpcG9kaS0wLmR0ZCIgeG1sbnM6c3ZnPSJodHRwOi8vd3d3LnczLm9yZy8yMDAwL3N2ZyIgeG1sbnM9Imh0dHA6Ly93d3cudzMub3JnLzIwMDAvc3ZnIiB4bWxuczp4bGluaz0iaHR0cDovL3d3dy53My5vcmcvMTk5OS94bGluayIgdmVyc2lvbj0iMS4xIiBpZD0ic3ZnMTg1NTk3IiBpbmtzY2FwZTp2ZXJzaW9uPSIwLjkyLjMgKDI0MDU1NDYsIDIwMTgtMDMtMTEpIiBzb2RpcG9kaTpkb2NuYW1lPSJub2RlanNfc2RrLnN2ZyIgeD0iMHB4IiB5PSIwcHgiIHZpZXdCb3g9IjAgMCA5MC40MyA1NS4zOCIgc3R5bGU9ImVuYWJsZS1iYWNrZ3JvdW5kOm5ldyAwIDAgOTAuNDMgNTUuMzg7IiB4bWw6c3BhY2U9InByZXNlcnZlIj4mI3hhOzxzb2RpcG9kaTpuYW1lZHZpZXcgYm9yZGVyY29sb3I9IiM2NjY2NjYiIGJvcmRlcm9wYWNpdHk9IjEiIGZpdC1tYXJnaW4tYm90dG9tPSIwIiBmaXQtbWFyZ2luLWxlZnQ9IjAiIGZpdC1tYXJnaW4tcmlnaHQ9IjAiIGZpdC1tYXJnaW4tdG9wPSIwIiBncmlkdG9sZXJhbmNlPSIxMCIgZ3VpZGV0b2xlcmFuY2U9IjEwIiBpZD0ibmFtZWR2aWV3MTg1NTk5IiBpbmtzY2FwZTpjdXJyZW50LWxheWVyPSJzdmcxODU1OTciIGlua3NjYXBlOmN4PSI2MC4yODMzNTkiIGlua3NjYXBlOmN5PSIzNi45MTk2ODQiIGlua3NjYXBlOnBhZ2VvcGFjaXR5PSIwIiBpbmtzY2FwZTpwYWdlc2hhZG93PSIyIiBpbmtzY2FwZTp3aW5kb3ctaGVpZ2h0PSIxMDE3IiBpbmtzY2FwZTp3aW5kb3ctbWF4aW1pemVkPSIxIiBpbmtzY2FwZTp3aW5kb3ctd2lkdGg9IjE5MjAiIGlua3NjYXBlOndpbmRvdy14PSItOCIgaW5rc2NhcGU6d2luZG93LXk9Ii04IiBpbmtzY2FwZTp6b29tPSI5LjE5OTg0NjIiIG9iamVjdHRvbGVyYW5jZT0iMTAiIHBhZ2Vjb2xvcj0iI2ZmZmZmZiIgc2hvd2dyaWQ9ImZhbHNlIj4mI3hhOwk8L3NvZGlwb2RpOm5hbWVkdmlldz4mI3hhOzxnIGlkPSJnMTg1NTk1IiB0cmFuc2Zvcm09InRyYW5zbGF0ZSgtNy42NTAyMzc3LC03LjY0NzUwMDYpIj4mI3hhOwk8dGl0bGUgaWQ9InRpdGxlMTg1NTIwIj5QYWdlLTE8L3RpdGxlPiYjeGE7CTxnIGlkPSJncm91cDEyOTQtMSIgdHJhbnNmb3JtPSJ0cmFuc2xhdGUoNy42NSwtNy42NSkiPiYjeGE7CQk8dGl0bGUgaWQ9InRpdGxlMTg1NTIyIj5Ob2RlLmpzIFNESzwvdGl0bGU+JiN4YTsJCTxnIGlkPSJncm91cDEyOTUtMiIgdHJhbnNmb3JtPSJ0cmFuc2xhdGUoMzQuODEyNikiPiYjeGE7CQkJPHRpdGxlIGlkPSJ0aXRsZTE4NTUyNCI+U2hlZXQuMTI5NTwvdGl0bGU+JiN4YTsJCQk8ZyBpZD0ic2hhcGUxMjk2LTMiPiYjeGE7CQkJCTx0aXRsZSBpZD0idGl0bGUxODU1MjYiPlNoZWV0LjEyOTY8L3RpdGxlPiYjeGE7CQkJCTxwYXRoIGlkPSJwYXRoMTg1NTI4IiBpbmtzY2FwZTpjb25uZWN0b3ItY3VydmF0dXJlPSIwIiBzdHlsZT0iZmlsbDojNjk5RjYzOyIgZD0iTTkuODgsNzAuNjhjLTAuMywwLTAuNTktMC4wOC0wLjg2LTAuMjMgICAgICBMNi4zLDY4Ljg0Yy0wLjQxLTAuMjMtMC4yMS0wLjMxLTAuMDgtMC4zNmMwLjU1LTAuMTksMC42Ni0wLjIzLDEuMjQtMC41NmMwLjA2LTAuMDMsMC4xNC0wLjAyLDAuMiwwLjAybDIuMDksMS4yNCAgICAgIGMwLjA4LDAuMDQsMC4xOSwwLjA0LDAuMjYsMGw4LjE2LTQuNzFjMC4wOC0wLjA0LDAuMTMtMC4xMywwLjEzLTAuMjJ2LTkuNDNjMC0wLjA5LTAuMDUtMC4xOC0wLjEzLTAuMjJsLTguMTYtNC43MSAgICAgIGMtMC4wOC0wLjA1LTAuMTgtMC4wNS0wLjI1LDBMMS42LDU0LjZjLTAuMDgsMC4wNC0wLjEzLDAuMTMtMC4xMywwLjIydjkuNDNjMCwwLjA5LDAuMDUsMC4xNywwLjEyLDAuMjJsMi4yNCwxLjI5ICAgICAgYzEuMjIsMC42LDEuOTYtMC4xMSwxLjk2LTAuODN2LTkuM2MwLTAuMTMsMC4xLTAuMjQsMC4yNC0wLjI0aDEuMDNjMC4xMywwLDAuMjQsMC4xMSwwLjI0LDAuMjR2OS4zYzAsMS42Mi0wLjg4LDIuNTUtMi40MiwyLjU1ICAgICAgYy0wLjQ3LDAtMC44NCwwLTEuODgtMC41MWwtMi4xNC0xLjIzQzAuMzMsNjUuNDMsMCw2NC44NiwwLDY0LjI1di05LjQzYzAtMC42MSwwLjMzLTEuMTgsMC44Ni0xLjQ5bDguMTYtNC43MiAgICAgIGMwLjUyLTAuMjksMS4yMS0wLjI5LDEuNzIsMGw4LjE2LDQuNzJjMC41MywwLjMxLDAuODYsMC44OCwwLjg2LDEuNDl2OS40M2MwLDAuNjEtMC4zMywxLjE4LTAuODYsMS40OWwtOC4xNiw0LjcxICAgICAgQzEwLjQ4LDcwLjYsMTAuMTgsNzAuNjgsOS44OCw3MC42OHoiLz4mI3hhOwkJCTwvZz4mI3hhOwkJCTxnIGlkPSJzaGFwZTEyOTctNSIgdHJhbnNmb3JtPSJ0cmFuc2xhdGUoOC4wODE3NSwtNi40OTI1MykiPiYjeGE7CQkJCTx0aXRsZSBpZD0idGl0bGUxODU1MzEiPlNoZWV0LjEyOTc8L3RpdGxlPiYjeGE7CQkJCTxwYXRoIGlkPSJwYXRoMTg1NTMzIiBpbmtzY2FwZTpjb25uZWN0b3ItY3VydmF0dXJlPSIwIiBzdHlsZT0iZmlsbDojNjk5RjYzOyIgZD0iTTQuMzIsNzAuNjhDMC43NSw3MC42OCwwLDY5LjA0LDAsNjcuNjYgICAgICBjMC0wLjEzLDAuMTEtMC4yMywwLjI0LTAuMjNoMS4wNWMwLjEyLDAsMC4yMiwwLjA4LDAuMjQsMC4yYzAuMTYsMS4wNywwLjYzLDEuNjIsMi43OSwxLjYyYzEuNzIsMCwyLjQ2LTAuMzksMi40Ni0xLjMgICAgICBjMC0wLjUzLTAuMjEtMC45Mi0yLjg5LTEuMThjLTIuMjMtMC4yMy0zLjYxLTAuNzItMy42MS0yLjUxYzAtMS42NCwxLjM5LTIuNjMsMy43Mi0yLjYzYzIuNjEsMCwzLjkxLDAuOTEsNC4wNywyLjg2ICAgICAgYzAuMDEsMC4wNy0wLjAyLDAuMTMtMC4wNiwwLjE4Yy0wLjA1LDAuMDUtMC4xMSwwLjA4LTAuMTcsMC4wOEg2Ljc4Yy0wLjExLDAtMC4yMS0wLjA4LTAuMjMtMC4xOSAgICAgIEM2LjI5LDYzLjQzLDUuNjcsNjMuMDcsNCw2My4wN2MtMS44OCwwLTIuMSwwLjY2LTIuMSwxLjE1YzAsMC41OSwwLjI2LDAuNzYsMi43OSwxLjFjMi41MSwwLjMzLDMuNywwLjgsMy43LDIuNTYgICAgICBDOC4zOSw2OS42Niw2LjkxLDcwLjY4LDQuMzIsNzAuNjh6Ii8+JiN4YTsJCQk8L2c+JiN4YTsJCTwvZz4mI3hhOwkJPGcgaWQ9InNoYXBlMTI5OC03IiB0cmFuc2Zvcm09InRyYW5zbGF0ZSg1NS44NDQzLC0xNC44MDI2KSI+JiN4YTsJCQk8dGl0bGUgaWQ9InRpdGxlMTg1NTM3Ij5TaGVldC4xMjk4PC90aXRsZT4mI3hhOwkJCTxwYXRoIGlkPSJwYXRoMTg1NTM5IiBpbmtzY2FwZTpjb25uZWN0b3ItY3VydmF0dXJlPSIwIiBzdHlsZT0iZmlsbDojNjk5RjYzOyIgZD0iTTMuMTUsNjkuMTFjMCwwLjg2LTAuNzEsMS41Ny0xLjU4LDEuNTcgICAgIGMtMC44NSwwLTEuNTctMC43LTEuNTctMS41N2MwLTAuODksMC43My0xLjU4LDEuNTctMS41OEMyLjQyLDY3LjUzLDMuMTUsNjguMjIsMy4xNSw2OS4xMXogTTAuMjUsNjkuMSAgICAgYzAsMC43NCwwLjU5LDEuMzMsMS4zMiwxLjMzczEuMzItMC42MSwxLjMyLTEuMzNjMC0wLjczLTAuNi0xLjMxLTEuMzItMS4zMVMwLjI1LDY4LjM2LDAuMjUsNjkuMXogTTAuOTgsNjguMjJoMC42MSAgICAgYzAuMjEsMCwwLjYyLDAsMC42MiwwLjQ3YzAsMC4zMy0wLjIxLDAuMzktMC4zNCwwLjQzYzAuMjQsMC4wMiwwLjI2LDAuMTgsMC4yOSwwLjRjMC4wMiwwLjE1LDAuMDUsMC4zOSwwLjEsMC40N0gxLjg4ICAgICBjLTAuMDEtMC4wOC0wLjA2LTAuNTMtMC4wNi0wLjU2Yy0wLjAzLTAuMS0wLjA2LTAuMTUtMC4xOS0wLjE1SDEuMzJ2MC43MUgwLjk4VjY4LjIyeiBNMS4zMiw2OWgwLjI3YzAuMjMsMCwwLjI3LTAuMTYsMC4yNy0wLjI1ICAgICBjMC0wLjI0LTAuMTctMC4yNC0wLjI2LTAuMjRIMS4zMlY2OXoiLz4mI3hhOwkJPC9nPiYjeGE7CQk8ZyBpZD0ic2hhcGUxMjk5LTkiIHRyYW5zZm9ybT0idHJhbnNsYXRlKDAsLTIyLjkwNTgpIj4mI3hhOwkJCTx0aXRsZSBpZD0idGl0bGUxODU1NDIiPlNoZWV0LjEyOTk8L3RpdGxlPiYjeGE7CQkJPHBhdGggaWQ9InBhdGgxODU1NDQiIGlua3NjYXBlOmNvbm5lY3Rvci1jdXJ2YXR1cmU9IjAiIHN0eWxlPSJmaWxsOiMzRjU3NjU7IiBkPSJNMTkuNDEsNTYuNzJjMC0wLjM4LTAuMi0wLjczLTAuNTMtMC45MSAgICAgbC04LjY2LTQuOTljLTAuMTQtMC4wOC0wLjMxLTAuMTMtMC40Ny0wLjEzYy0wLjAyLDAtMC4wOCwwLTAuMDksMGMtMC4xNywwLTAuMzMsMC4wNS0wLjQ4LDAuMTNsLTguNjYsNC45OSAgICAgQzAuMiw1NS45OSwwLDU2LjM0LDAsNTYuNzJsMC4wMiwxMy40MWMwLDAuMTksMC4xLDAuMzYsMC4yNiwwLjQ1YzAuMTYsMC4xLDAuMzYsMC4xLDAuNTIsMGw1LjE0LTIuOTQgICAgIGMwLjMzLTAuMiwwLjUzLTAuNTQsMC41My0wLjkxdi02LjI3YzAtMC4zNywwLjItMC43MiwwLjUyLTAuOWwyLjE5LTEuMjdjMC4xNi0wLjA5LDAuMzQtMC4xNCwwLjUyLTAuMTQgICAgIGMwLjE4LDAsMC4zNywwLjA1LDAuNTIsMC4xNGwyLjIsMS4yN2MwLjMyLDAuMTgsMC41MiwwLjUzLDAuNTIsMC45djYuMjdjMCwwLjM3LDAuMiwwLjcyLDAuNTIsMC45MWw1LjE1LDIuOTQgICAgIGMwLjE2LDAuMSwwLjM2LDAuMSwwLjUyLDBjMC4xNi0wLjA5LDAuMjYtMC4yNiwwLjI2LTAuNDVMMTkuNDEsNTYuNzJ6Ii8+JiN4YTsJCTwvZz4mI3hhOwkJPGcgaWQ9InNoYXBlMTMwMC0xMSIgdHJhbnNmb3JtPSJ0cmFuc2xhdGUoNDcuMzM5OCwtMjAuNTA2MikiPiYjeGE7CQkJPHRpdGxlIGlkPSJ0aXRsZTE4NTU0NyI+U2hlZXQuMTMwMDwvdGl0bGU+JiN4YTsJCQk8cGF0aCBpZD0icGF0aDE4NTU0OSIgaW5rc2NhcGU6Y29ubmVjdG9yLWN1cnZhdHVyZT0iMCIgc3R5bGU9ImZpbGw6IzNGNTc2NTsiIGQ9Ik0xMy43MiwzNS44N2MtMC4xNi0wLjA5LTAuMzYtMC4wOS0wLjUyLDAuMDEgICAgIGMtMC4xNiwwLjA5LTAuMjUsMC4yNi0wLjI1LDAuNDV2MTMuMjljMCwwLjEzLTAuMDcsMC4yNS0wLjE5LDAuMzFjLTAuMTEsMC4wNy0wLjI1LDAuMDctMC4zNiwwbC0yLjE3LTEuMjUgICAgIGMtMC4zMi0wLjE4LTAuNzItMC4xOC0xLjA1LDBsLTguNjYsNUMwLjIsNTMuODcsMCw1NC4yMSwwLDU0LjU5djEwYzAsMC4zNywwLjIsMC43MSwwLjUyLDAuOWw4LjY2LDVjMC4zMywwLjE5LDAuNzMsMC4xOSwxLjA1LDAgICAgIGw4LjY2LTVjMC4zMy0wLjE5LDAuNTMtMC41MywwLjUzLTAuOVYzOS42NmMwLTAuMzgtMC4yMS0wLjczLTAuNTQtMC45MUwxMy43MiwzNS44N3ogTTEyLjkyLDYxLjNjMCwwLjA5LTAuMDUsMC4xOC0wLjEzLDAuMjMgICAgIGwtMi45NywxLjcxYy0wLjA4LDAuMDUtMC4xOSwwLjA1LTAuMjcsMGwtMi45Ny0xLjcxYy0wLjA4LTAuMDUtMC4xMy0wLjE0LTAuMTMtMC4yM3YtMy40M2MwLTAuMSwwLjA1LTAuMTgsMC4xMy0wLjIzbDIuOTctMS43MiAgICAgYzAuMDgtMC4wNCwwLjE4LTAuMDQsMC4yNywwbDIuOTcsMS43MmMwLjA4LDAuMDUsMC4xMywwLjEzLDAuMTMsMC4yM0wxMi45Miw2MS4zeiIvPiYjeGE7CQk8L2c+JiN4YTsJCTxnIGlkPSJncm91cDEzMDEtMTMiIHRyYW5zZm9ybT0idHJhbnNsYXRlKDcxLjA2OTcsLTIwLjc0MjQpIj4mI3hhOwkJCTx0aXRsZSBpZD0idGl0bGUxODU1NTIiPlNoZWV0LjEzMDE8L3RpdGxlPiYjeGE7CQkJPGcgaWQ9InNoYXBlMTMwMi0xNCI+JiN4YTsJCQkJPHRpdGxlIGlkPSJ0aXRsZTE4NTU1NCI+U2hlZXQuMTMwMjwvdGl0bGU+JiN4YTsJCQkJPHBhdGggaWQ9InBhdGgxODU1NTYiIGlua3NjYXBlOmNvbm5lY3Rvci1jdXJ2YXR1cmU9IjAiIHN0eWxlPSJmaWxsOiMzRjU3NjU7IiBkPSJNMTguODQsNTguMDFjMC4zMi0wLjE4LDAuNTItMC41MywwLjUyLTAuOSAgICAgIHYtMi40MmMwLTAuMzgtMC4yLTAuNzItMC41My0wLjkxbC04LjYtNC45OWMtMC4zMi0wLjE5LTAuNzItMC4xOS0xLjA1LDBsLTguNjYsNC45OUMwLjIsNTMuOTcsMCw1NC4zMiwwLDU0LjY5djEwICAgICAgYzAsMC4zNywwLjIsMC43MiwwLjUzLDAuOWw4LjYsNC45MWMwLjMyLDAuMTgsMC43MSwwLjE4LDEuMDMsMGw1LjItMi44OWMwLjE3LTAuMDksMC4yNy0wLjI3LDAuMjctMC40NSAgICAgIGMwLTAuMTktMC4xLTAuMzctMC4yNi0wLjQ2bC04LjcxLTVjLTAuMTctMC4xLTAuMjctMC4yNy0wLjI3LTAuNDZ2LTMuMTNjMC0wLjE5LDAuMS0wLjM2LDAuMjctMC40NWwyLjcxLTEuNTcgICAgICBjMC4xNi0wLjA5LDAuMzYtMC4wOSwwLjUyLDBsMi43MSwxLjU3YzAuMTYsMC4wOSwwLjI3LDAuMjYsMC4yNywwLjQ1djIuNDdjMCwwLjE4LDAuMSwwLjM2LDAuMjYsMC40NXMwLjM2LDAuMDksMC41MiwwICAgICAgTDE4Ljg0LDU4LjAxeiIvPiYjeGE7CQkJPC9nPiYjeGE7CQkJPGcgaWQ9InNoYXBlMTMwMy0xNiIgdHJhbnNmb3JtPSJ0cmFuc2xhdGUoNy44MTYxMywtOC45MTM2NikiPiYjeGE7CQkJCTx0aXRsZSBpZD0idGl0bGUxODU1NTkiPlNoZWV0LjEzMDM8L3RpdGxlPiYjeGE7CQkJCTxwYXRoIGlkPSJwYXRoMTg1NTYxIiBpbmtzY2FwZTpjb25uZWN0b3ItY3VydmF0dXJlPSIwIiBzdHlsZT0iZmlsbDojNjk5RjYzOyIgZD0iTTEuNzYsNjYuNDZjMC4wNi0wLjA0LDAuMTQtMC4wNCwwLjIsMCAgICAgIGwxLjY2LDAuOTZjMC4wNywwLjAzLDAuMSwwLjEsMC4xLDAuMTd2MS45MmMwLDAuMDctMC4wMywwLjE0LTAuMSwwLjE4bC0xLjY2LDAuOTVjLTAuMDYsMC4wNC0wLjE0LDAuMDQtMC4yLDBMMC4xLDY5LjY4ICAgICAgQzAuMDQsNjkuNjUsMCw2OS41OCwwLDY5LjUxdi0xLjkyYzAtMC4wNywwLjA0LTAuMTQsMC4xLTAuMTdMMS43Niw2Ni40NnoiLz4mI3hhOwkJCTwvZz4mI3hhOwkJPC9nPiYjeGE7CQk8ZyBpZD0iZ3JvdXAxMzA0LTE4IiB0cmFuc2Zvcm09InRyYW5zbGF0ZSgyMy43MjA4LC0yMC43MDc0KSI+JiN4YTsJCQk8dGl0bGUgaWQ9InRpdGxlMTg1NTY1Ij5TaGVldC4xMzA0PC90aXRsZT4mI3hhOwkJCTxnIGlkPSJzaGFwZTEzMDUtMTkiPiYjeGE7CQkJCTx0aXRsZSBpZD0idGl0bGUxODU1NjciPlhNTElEXzE0M188L3RpdGxlPiYjeGE7CQkJCSYjeGE7CQkJCQk8bGluZWFyR3JhZGllbnQgaWQ9InBhdGgxODU1NjlfMV8iIGdyYWRpZW50VW5pdHM9InVzZXJTcGFjZU9uVXNlIiB4MT0iLTYuMzE4NSIgeTE9IjYxLjExOTciIHgyPSIxNC4yNzMzIiB5Mj0iNjEuMTE5NyIgZ3JhZGllbnRUcmFuc2Zvcm09Im1hdHJpeCgwLjkzNzMgMCAwIC0xLjA2NjkgNS45MjIzIDEyNC44NjA1KSI+JiN4YTsJCQkJCTxzdG9wIG9mZnNldD0iMCIgc3R5bGU9InN0b3AtY29sb3I6IzQxODczRiIvPiYjeGE7CQkJCQk8c3RvcCBvZmZzZXQ9IjAuMzMiIHN0eWxlPSJzdG9wLWNvbG9yOiM0MThCM0QiLz4mI3hhOwkJCQkJPHN0b3Agb2Zmc2V0PSIwLjYzNSIgc3R5bGU9InN0b3AtY29sb3I6IzQxOTYzNyIvPiYjeGE7CQkJCQk8c3RvcCBvZmZzZXQ9IjAuOTMiIHN0eWxlPSJzdG9wLWNvbG9yOiMzRkE5MkQiLz4mI3hhOwkJCQkJPHN0b3Agb2Zmc2V0PSIxIiBzdHlsZT0ic3RvcC1jb2xvcjojM0ZBRTJBIi8+JiN4YTsJCQkJPC9saW5lYXJHcmFkaWVudD4mI3hhOwkJCQk8cGF0aCBpZD0icGF0aDE4NTU2OSIgaW5rc2NhcGU6Y29ubmVjdG9yLWN1cnZhdHVyZT0iMCIgc3R5bGU9ImZpbGw6dXJsKCNwYXRoMTg1NTY5XzFfKTsiIGQ9Ik0xMC4xNyw0OC44ICAgICAgYy0wLjMyLTAuMTgtMC43MS0wLjE4LTEuMDQsMGwtOC42MSw0Ljk3QzAuMiw1My45NiwwLDU0LjMsMCw1NC42N3Y5Ljk1YzAsMC4zNywwLjIsMC43MSwwLjUyLDAuOWw4LjYxLDQuOTggICAgICBjMC4zMywwLjE4LDAuNzIsMC4xOCwxLjA0LDBsOC42MS00Ljk4YzAuMzMtMC4xOSwwLjUyLTAuNTMsMC41Mi0wLjl2LTkuOTVjMC0wLjM3LTAuMTktMC43MS0wLjUyLTAuOUwxMC4xNyw0OC44eiIvPiYjeGE7CQkJPC9nPiYjeGE7CQkJPGcgaWQ9Imdyb3VwMTMwNi0yMyIgdHJhbnNmb3JtPSJ0cmFuc2xhdGUoMC4wMTU4MjQ0LC0wLjAxMTMwMzEpIj4mI3hhOwkJCQk8dGl0bGUgaWQ9InRpdGxlMTg1NTcyIj5TaGVldC4xMzA2PC90aXRsZT4mI3hhOwkJCQk8ZyBpZD0ic2hhcGUxMzA3LTI0IiB0cmFuc2Zvcm09InRyYW5zbGF0ZSgwLC01LjM4NzA4KSI+JiN4YTsJCQkJCTx0aXRsZSBpZD0idGl0bGUxODU1NzQiPlNoZWV0LjEzMDc8L3RpdGxlPiYjeGE7CQkJCQk8cGF0aCBpZD0icGF0aDE4NTU3NiIgaW5rc2NhcGU6Y29ubmVjdG9yLWN1cnZhdHVyZT0iMCIgc3R5bGU9ImZpbGw6bm9uZTsiIGQ9Ik05LjEsNTQuMmwtOC41OSw0Ljk3QzAuMTksNTkuMzYsMCw1OS43LDAsNjAuMDcgICAgICAgdjkuOTVjMCwwLjI0LDAuMDYsMC40OCwwLjIyLDAuNjZMOS45LDU0LjA5QzkuNjQsNTQuMDMsOS4zNCw1NC4wNiw5LjEsNTQuMnoiLz4mI3hhOwkJCQk8L2c+JiN4YTsJCQkJPGcgaWQ9InNoYXBlMTMwOC0yNiIgdHJhbnNmb3JtPSJ0cmFuc2xhdGUoOS45MjY0MiwtMC4wNzM0NzA1KSI+JiN4YTsJCQkJCTx0aXRsZSBpZD0idGl0bGUxODU1NzkiPlNoZWV0LjEzMDg8L3RpdGxlPiYjeGE7CQkJCQk8cGF0aCBpZD0icGF0aDE4NTU4MSIgaW5rc2NhcGU6Y29ubmVjdG9yLWN1cnZhdHVyZT0iMCIgc3R5bGU9ImZpbGw6bm9uZTsiIGQ9Ik0wLDcwLjY4YzAuMDgtMC4wMiwwLjE3LTAuMDYsMC4yNC0wLjEgICAgICAgbDkuMTMtNC45N2MwLjMyLTAuMTksMS4wNS0wLjUzLDEuMDUtMC45MXYtOS45NGMwLTAuMjgtMC42My0wLjUzLTAuODItMC43M0wwLDcwLjY4eiIvPiYjeGE7CQkJCTwvZz4mI3hhOwkJCQk8ZyBpZD0ic2hhcGUxMzA5LTI4IiB0cmFuc2Zvcm09InRyYW5zbGF0ZSgwLjE4MDg1KSI+JiN4YTsJCQkJCTx0aXRsZSBpZD0idGl0bGUxODU1ODQiPlNoZWV0LjEzMDk8L3RpdGxlPiYjeGE7CQkJCQkmI3hhOwkJCQkJCTxsaW5lYXJHcmFkaWVudCBpZD0icGF0aDE4NTU4Nl8xXyIgZ3JhZGllbnRVbml0cz0idXNlclNwYWNlT25Vc2UiIHgxPSItMy4zMDAzIiB5MT0iNjUuNjkwNyIgeDI9IjE3LjAzMzYiIHkyPSI2NS42OTA3IiBncmFkaWVudFRyYW5zZm9ybT0ibWF0cml4KDAuOTI2NSAwIDAgLTEuMDc5MyAzLjA1OCAxMzAuNTcyOSkiPiYjeGE7CQkJCQkJPHN0b3Agb2Zmc2V0PSIwLjE0IiBzdHlsZT0ic3RvcC1jb2xvcjojNDE4NzNGIi8+JiN4YTsJCQkJCQk8c3RvcCBvZmZzZXQ9IjAuNDA1IiBzdHlsZT0ic3RvcC1jb2xvcjojNTRBMDQ0Ii8+JiN4YTsJCQkJCQk8c3RvcCBvZmZzZXQ9IjAuNzE1IiBzdHlsZT0ic3RvcC1jb2xvcjojNjZCODQ4Ii8+JiN4YTsJCQkJCQk8c3RvcCBvZmZzZXQ9IjAuOTEiIHN0eWxlPSJzdG9wLWNvbG9yOiM2Q0MwNEEiLz4mI3hhOwkJCQkJPC9saW5lYXJHcmFkaWVudD4mI3hhOwkJCQkJPHBhdGggaWQ9InBhdGgxODU1ODYiIGlua3NjYXBlOmNvbm5lY3Rvci1jdXJ2YXR1cmU9IjAiIHN0eWxlPSJmaWxsOnVybCgjcGF0aDE4NTU4Nl8xXyk7IiBkPSJNMTguNiw1My43OGwtOC42My00Ljk3ICAgICAgIGMtMC4wOS0wLjA1LTAuMTgtMC4wOC0wLjI3LTAuMTFMMCw2NS4yOWMwLjA4LDAuMSwwLjE4LDAuMTgsMC4yOSwwLjI0bDguNjUsNC45OGMwLjI1LDAuMTQsMC41NCwwLjE3LDAuODEsMC4xbDkuMDktMTYuNjUgICAgICAgQzE4Ljc3LDUzLjg5LDE4LjY5LDUzLjgzLDE4LjYsNTMuNzh6Ii8+JiN4YTsJCQkJPC9nPiYjeGE7CQkJPC9nPiYjeGE7CQkJPGcgaWQ9Imdyb3VwMTMxMC0zMiI+JiN4YTsJCQkJPHRpdGxlIGlkPSJ0aXRsZTE4NTU5MCI+U2hlZXQuMTMxMDwvdGl0bGU+JiN4YTsJCQk8L2c+JiN4YTsJCTwvZz4mI3hhOwk8L2c+JiN4YTs8L2c+JiN4YTs8L3N2Zz4=;" vertex="1" parent="1">
          <mxGeometry x="978" y="230" width="90" height="55" as="geometry" />
        </mxCell>
        <mxCell id="a0yiWjh66o21EPFuuch4-2105" value="" style="shape=image;verticalLabelPosition=bottom;labelBackgroundColor=#ffffff;verticalAlign=top;aspect=fixed;imageAspect=0;image=data:image/svg+xml,PHN2ZyB4bWxuczpjYz0iaHR0cDovL2NyZWF0aXZlY29tbW9ucy5vcmcvbnMjIiB4bWxuczpkYz0iaHR0cDovL3B1cmwub3JnL2RjL2VsZW1lbnRzLzEuMS8iIHhtbG5zOmlua3NjYXBlPSJodHRwOi8vd3d3Lmlua3NjYXBlLm9yZy9uYW1lc3BhY2VzL2lua3NjYXBlIiB4bWxuczpyZGY9Imh0dHA6Ly93d3cudzMub3JnLzE5OTkvMDIvMjItcmRmLXN5bnRheC1ucyMiIHhtbG5zOnNvZGlwb2RpPSJodHRwOi8vc29kaXBvZGkuc291cmNlZm9yZ2UubmV0L0RURC9zb2RpcG9kaS0wLmR0ZCIgeG1sbnM6c3ZnPSJodHRwOi8vd3d3LnczLm9yZy8yMDAwL3N2ZyIgeG1sbnM9Imh0dHA6Ly93d3cudzMub3JnLzIwMDAvc3ZnIiB4bWxuczp4bGluaz0iaHR0cDovL3d3dy53My5vcmcvMTk5OS94bGluayIgdmVyc2lvbj0iMS4xIiBpZD0ic3ZnMTkxNjExIiBpbmtzY2FwZTp2ZXJzaW9uPSIwLjkyLjMgKDI0MDU1NDYsIDIwMTgtMDMtMTEpIiBzb2RpcG9kaTpkb2NuYW1lPSJwaHAuc3ZnIiB4PSIwcHgiIHk9IjBweCIgdmlld0JveD0iMCAwIDM1Ljk1IDE4LjIyIiBzdHlsZT0iZW5hYmxlLWJhY2tncm91bmQ6bmV3IDAgMCAzNS45NSAxOC4yMjsiIHhtbDpzcGFjZT0icHJlc2VydmUiPiYjeGE7PHNvZGlwb2RpOm5hbWVkdmlldyBib3JkZXJjb2xvcj0iIzY2NjY2NiIgYm9yZGVyb3BhY2l0eT0iMSIgZml0LW1hcmdpbi1ib3R0b209IjAiIGZpdC1tYXJnaW4tbGVmdD0iMCIgZml0LW1hcmdpbi1yaWdodD0iMCIgZml0LW1hcmdpbi10b3A9IjAiIGdyaWR0b2xlcmFuY2U9IjEwIiBndWlkZXRvbGVyYW5jZT0iMTAiIGlkPSJuYW1lZHZpZXcxOTE2MTMiIGlua3NjYXBlOmN1cnJlbnQtbGF5ZXI9InN2ZzE5MTYxMSIgaW5rc2NhcGU6Y3g9IjIzLjk2ODIwMiIgaW5rc2NhcGU6Y3k9IjEyLjE0MzQ3IiBpbmtzY2FwZTpwYWdlb3BhY2l0eT0iMCIgaW5rc2NhcGU6cGFnZXNoYWRvdz0iMiIgaW5rc2NhcGU6d2luZG93LWhlaWdodD0iMTAxNyIgaW5rc2NhcGU6d2luZG93LW1heGltaXplZD0iMSIgaW5rc2NhcGU6d2luZG93LXdpZHRoPSIxOTIwIiBpbmtzY2FwZTp3aW5kb3cteD0iLTgiIGlua3NjYXBlOndpbmRvdy15PSItOCIgaW5rc2NhcGU6em9vbT0iMjMuNDA1MjA2IiBvYmplY3R0b2xlcmFuY2U9IjEwIiBwYWdlY29sb3I9IiNmZmZmZmYiIHNob3dncmlkPSJmYWxzZSI+JiN4YTsJPC9zb2RpcG9kaTpuYW1lZHZpZXc+JiN4YTs8ZyBpZD0iZzE5MTYwOSIgdHJhbnNmb3JtPSJ0cmFuc2xhdGUoLTQuNzgxMjUsLTQuNzc4NzUpIj4mI3hhOwk8dGl0bGUgaWQ9InRpdGxlMTkxNjAyIj5QYWdlLTE8L3RpdGxlPiYjeGE7CTxnIGlkPSJzaGFwZTExNTAtMSIgdHJhbnNmb3JtPSJ0cmFuc2xhdGUoNC43ODEyNSwtNC43ODEyNSkiPiYjeGE7CQk8dGl0bGUgaWQ9InRpdGxlMTkxNjA0Ij5QSFA8L3RpdGxlPiYjeGE7CQk8cGF0aCBpZD0icGF0aDE5MTYwNiIgaW5rc2NhcGU6Y29ubmVjdG9yLWN1cnZhdHVyZT0iMCIgc3R5bGU9ImZpbGw6IzYxODFCNjsiIGQ9Ik0xNy45OCw5LjU2QzguMDUsOS41NiwwLDEzLjY0LDAsMTguNjcgICAgczguMDUsOS4xMSwxNy45OCw5LjExYzkuOTIsMCwxNy45Ny00LjA4LDE3Ljk3LTkuMTFTMjcuOSw5LjU2LDE3Ljk4LDkuNTZ6IE0xMy4zLDIwLjQ1Yy0wLjQzLDAuNC0wLjkxLDAuNTYtMS40MywwLjczICAgIGMtMC41MywwLjE4LTEuMTksMC4xNC0yLjAxLDAuMTRIOC4wMmwtMC41MSwyLjk0SDUuMzdsMS45MS0xMGg0LjEzYzEuMjUsMCwyLjE1LDAuMzYsMi43MiwxLjAxYzAuNTcsMC42NSwwLjc1LDEuNTgsMC41MiwyLjc1ICAgIGMtMC4xLDAuNDgtMC4yNSwwLjkzLTAuNDgsMS4zMkMxMy45NSwxOS43NCwxMy42NiwyMC4xMiwxMy4zLDIwLjQ1eiBNMTkuNTcsMjEuMzJsMC44NS00LjI0YzAuMDktMC41LDAuMDYtMC44Ny0wLjExLTEuMDUgICAgYy0wLjE3LTAuMTgtMC41Mi0wLjMtMS4wNy0wLjNoLTEuN2wtMS4xLDUuNTloLTIuMTNsMS45Mi05LjcxaDIuMTNsLTAuNTEsMi42NWgxLjljMS4xOSwwLDIuMDEsMC4yNCwyLjQ3LDAuNjYgICAgYzAuNDUsMC40MSwwLjU5LDAuOTgsMC40MSwxLjkybC0wLjksNC40OEwxOS41NywyMS4zMnogTTMxLjQxLDE4LjAzYy0wLjA5LDAuNDgtMC4yNSwwLjkyLTAuNDcsMS4zMnMtMC41MSwwLjc3LTAuODcsMS4xICAgIGMtMC40MywwLjQtMC45MSwwLjU2LTEuNDMsMC43M2MtMC41MywwLjE4LTEuMiwwLjE0LTIuMDEsMC4xNGgtMS44NGwtMC41MSwyLjk0aC0yLjE1bDEuOTItMTBoNC4xM2MxLjI0LDAsMi4xNSwwLjM2LDIuNzIsMS4wMSAgICBDMzEuNDcsMTUuOTIsMzEuNjQsMTYuODYsMzEuNDEsMTguMDN6IE0yNy4zNywxNS43M0gyNS45bC0wLjgxLDQuMTJoMS4zMWMwLjg3LDAsMS41MS0wLjA5LDEuOTQtMC40MSAgICBjMC40Mi0wLjMzLDAuNzEtMC44MywwLjg1LTEuNmMwLjE1LTAuNzMsMC4wOC0xLjMtMC4xOS0xLjZDMjguNzMsMTUuOTQsMjguMTgsMTUuNzMsMjcuMzcsMTUuNzN6IE0xMC42LDE1LjczSDkuMTNsLTAuOCw0LjEyaDEuMyAgICBjMC44NywwLDEuNTEtMC4wOSwxLjk0LTAuNDFjMC40Mi0wLjMzLDAuNzEtMC44MywwLjg2LTEuNmMwLjE0LTAuNzMsMC4wNy0xLjMtMC4yLTEuNkMxMS45NiwxNS45NCwxMS40MiwxNS43MywxMC42LDE1LjczeiIvPiYjeGE7CTwvZz4mI3hhOzwvZz4mI3hhOzwvc3ZnPg==;" vertex="1" parent="1">
          <mxGeometry x="1000" y="315" width="36" height="18" as="geometry" />
        </mxCell>
        <mxCell id="a0yiWjh66o21EPFuuch4-2106" value="" style="shape=image;verticalLabelPosition=bottom;labelBackgroundColor=#ffffff;verticalAlign=top;aspect=fixed;imageAspect=0;image=data:image/svg+xml,PHN2ZyB4bWxuczpjYz0iaHR0cDovL2NyZWF0aXZlY29tbW9ucy5vcmcvbnMjIiB4bWxuczpkYz0iaHR0cDovL3B1cmwub3JnL2RjL2VsZW1lbnRzLzEuMS8iIHhtbG5zOmlua3NjYXBlPSJodHRwOi8vd3d3Lmlua3NjYXBlLm9yZy9uYW1lc3BhY2VzL2lua3NjYXBlIiB4bWxuczpyZGY9Imh0dHA6Ly93d3cudzMub3JnLzE5OTkvMDIvMjItcmRmLXN5bnRheC1ucyMiIHhtbG5zOnNvZGlwb2RpPSJodHRwOi8vc29kaXBvZGkuc291cmNlZm9yZ2UubmV0L0RURC9zb2RpcG9kaS0wLmR0ZCIgeG1sbnM6c3ZnPSJodHRwOi8vd3d3LnczLm9yZy8yMDAwL3N2ZyIgeG1sbnM9Imh0dHA6Ly93d3cudzMub3JnLzIwMDAvc3ZnIiB4bWxuczp4bGluaz0iaHR0cDovL3d3dy53My5vcmcvMTk5OS94bGluayIgdmVyc2lvbj0iMS4xIiBpZD0ic3ZnMTk2MzI1IiBpbmtzY2FwZTp2ZXJzaW9uPSIwLjkyLjMgKDI0MDU1NDYsIDIwMTgtMDMtMTEpIiBzb2RpcG9kaTpkb2NuYW1lPSJweXRob25fbGV0dGVyaW5nLnN2ZyIgeD0iMHB4IiB5PSIwcHgiIHZpZXdCb3g9IjAgMCA1Ni44MiAxNC41OCIgc3R5bGU9ImVuYWJsZS1iYWNrZ3JvdW5kOm5ldyAwIDAgNTYuODIgMTQuNTg7IiB4bWw6c3BhY2U9InByZXNlcnZlIj4mI3hhOzxzb2RpcG9kaTpuYW1lZHZpZXcgYm9yZGVyY29sb3I9IiM2NjY2NjYiIGJvcmRlcm9wYWNpdHk9IjEiIGZpdC1tYXJnaW4tYm90dG9tPSIwIiBmaXQtbWFyZ2luLWxlZnQ9IjAiIGZpdC1tYXJnaW4tcmlnaHQ9IjAiIGZpdC1tYXJnaW4tdG9wPSIwIiBncmlkdG9sZXJhbmNlPSIxMCIgZ3VpZGV0b2xlcmFuY2U9IjEwIiBpZD0ibmFtZWR2aWV3MTk2MzI3IiBpbmtzY2FwZTpjdXJyZW50LWxheWVyPSJzdmcxOTYzMjUiIGlua3NjYXBlOmN4PSIzNy44ODEzNzkiIGlua3NjYXBlOmN5PSI5LjcxOTAwODciIGlua3NjYXBlOnBhZ2VvcGFjaXR5PSIwIiBpbmtzY2FwZTpwYWdlc2hhZG93PSIyIiBpbmtzY2FwZTp3aW5kb3ctaGVpZ2h0PSIxMDE3IiBpbmtzY2FwZTp3aW5kb3ctbWF4aW1pemVkPSIxIiBpbmtzY2FwZTp3aW5kb3ctd2lkdGg9IjE5MjAiIGlua3NjYXBlOndpbmRvdy14PSItOCIgaW5rc2NhcGU6d2luZG93LXk9Ii04IiBpbmtzY2FwZTp6b29tPSIyMy41MjA5MjIiIG9iamVjdHRvbGVyYW5jZT0iMTAiIHBhZ2Vjb2xvcj0iI2ZmZmZmZiIgc2hvd2dyaWQ9ImZhbHNlIj4mI3hhOwk8L3NvZGlwb2RpOm5hbWVkdmlldz4mI3hhOzxnIGlkPSJnMTk2MzIzIiB0cmFuc2Zvcm09InRyYW5zbGF0ZSgxLjU4MjI1OThlLTQsMC4wMDE3MykiPiYjeGE7CTx0aXRsZSBpZD0idGl0bGUxOTYyNjgiPlBhZ2UtMTwvdGl0bGU+JiN4YTsJPGcgaWQ9Imdyb3VwMTE2Ni0xIj4mI3hhOwkJPHRpdGxlIGlkPSJ0aXRsZTE5NjI3MCI+UHl0aG9uIChMZXR0ZXJpbmcpPC90aXRsZT4mI3hhOwkJPGcgaWQ9InNoYXBlMTE2Ny0yIiB0cmFuc2Zvcm09InRyYW5zbGF0ZSgxNy4wMzA5LC0wLjQ4ODI0MykiPiYjeGE7CQkJPHRpdGxlIGlkPSJ0aXRsZTE5NjI3MiI+U2hlZXQuMTE2NzwvdGl0bGU+JiN4YTsJCQk8cGF0aCBpZD0icGF0aDE5NjI3NCIgaW5rc2NhcGU6Y29ubmVjdG9yLWN1cnZhdHVyZT0iMCIgc3R5bGU9ImZpbGw6IzNGNTc2NTsiIGQ9Ik00LjMyLDguMTVjMC0xLjY5LTAuNDktMi41Ny0xLjQ5LTIuNjUgICAgIGMtMC40MiwwLTAuNzYsMC4wNC0xLjE1LDAuMkMxLjM4LDUuODEsMS4xOSw1Ljg5LDEuMDcsNmMwLDQuMTQsMCw0LjE0LDAsNC4xNGMwLjY1LDAuMzgsMS4xOSwwLjU3LDEuNjgsMC41MyAgICAgQzMuNzksMTAuNiw0LjMyLDkuNzksNC4zMiw4LjE1eiBNNS41MSw4LjIyYzAsMC44OC0wLjE5LDEuNjUtMC42MSwyLjE5Yy0wLjQ2LDAuNjktMS4xMSwwLjk5LTEuOTIsMS4wMyAgICAgYy0wLjYxLDAtMS4yNi0wLjE1LTEuOTEtMC41N2MwLDMuNzEsMCwzLjcxLDAsMy43MUMwLDE0LjI0LDAsMTQuMjQsMCwxNC4yNGMwLTguMzUsMC04LjM1LDAtOC4zNUMwLjE5LDUuNywwLjQyLDUuNSwwLjY5LDUuMzUgICAgIEMxLjMsNC45NywyLjEsNC43OCwyLjk4LDQuNzhjMC4wNCwwLDAuMDQsMCwwLjA0LDBjMC44MSwwLDEuNDIsMC4zNCwxLjg4LDEuMDdDNS4zMiw2LjQ2LDUuNTEsNy4yNyw1LjUxLDguMjJ6Ii8+JiN4YTsJCTwvZz4mI3hhOwkJPGcgaWQ9InNoYXBlMTE2OC00IiB0cmFuc2Zvcm09InRyYW5zbGF0ZSgyMy43NjQ3LC0wLjQ4ODI0MykiPiYjeGE7CQkJPHRpdGxlIGlkPSJ0aXRsZTE5NjI3NyI+U2hlZXQuMTE2ODwvdGl0bGU+JiN4YTsJCQk8cGF0aCBpZD0icGF0aDE5NjI3OSIgaW5rc2NhcGU6Y29ubmVjdG9yLWN1cnZhdHVyZT0iMCIgc3R5bGU9ImZpbGw6IzNGNTc2NTsiIGQ9Ik01LjUxLDEwLjcxYzAsMS4xNS0wLjE1LDEuOTktMC4zOCwyLjQ1ICAgICBjLTAuMjMsMC40Mi0wLjczLDAuODEtMS40MiwxLjA4Yy0wLjUzLDAuMjMtMS4xNSwwLjM0LTEuOCwwLjM0Yy0wLjE5LTAuNjUtMC4xOS0wLjY1LTAuMTktMC42NWMwLjY5LTAuMTIsMS4xNS0wLjE5LDEuNDItMC4zMSAgICAgYzAuNTMtMC4xNSwwLjg4LTAuMzgsMS4wNy0wLjc2YzAuMTUtMC4zMSwwLjI3LTAuODUsMC4yNy0xLjY1YzAtMC4yNywwLTAuMjcsMC0wLjI3QzMuNzEsMTEuMjUsMi45MSwxMS40LDIuMSwxMS40ICAgICBjLTAuNTMsMC0wLjk5LTAuMTUtMS40MS0wLjQ2QzAuMjMsMTAuNTYsMCwxMC4xNCwwLDkuNTZjMC00LjQsMC00LjQsMC00LjRjMS4wNy0wLjM4LDEuMDctMC4zOCwxLjA3LTAuMzhjMCw0LjQ0LDAsNC40NCwwLDQuNDQgICAgIGMwLDAuNSwwLjE5LDAuODQsMC41LDEuMDdjMC4zLDAuMjcsMC43MywwLjQyLDEuMjIsMC4zOGMwLjUsMCwxLjA0LTAuMTksMS42MS0wLjUzYzAtNS4yMSwwLTUuMjEsMC01LjIxYzEuMTEsMCwxLjExLDAsMS4xMSwwICAgICBWMTAuNzF6Ii8+JiN4YTsJCTwvZz4mI3hhOwkJPGcgaWQ9InNoYXBlMTE2OS02IiB0cmFuc2Zvcm09InRyYW5zbGF0ZSgzMC40OTg2LC0zLjU1MTczKSI+JiN4YTsJCQk8dGl0bGUgaWQ9InRpdGxlMTk2MjgyIj5TaGVldC4xMTY5PC90aXRsZT4mI3hhOwkJCTxwYXRoIGlkPSJwYXRoMTk2Mjg0IiBpbmtzY2FwZTpjb25uZWN0b3ItY3VydmF0dXJlPSIwIiBzdHlsZT0iZmlsbDojM0Y1NzY1OyIgZD0iTTMuMDYsMTQuNThjLTAuMTEsMC0wLjIzLDAtMC4zNCwwICAgICBjLTAuNjIsMC0xLjExLTAuMTEtMS40Ni0wLjQyYy0wLjM0LTAuMzEtMC41My0wLjczLTAuNTMtMS4yNmMwLTQuNDgsMC00LjQ4LDAtNC40OEMwLDguNDIsMCw4LjQyLDAsOC40MmMwLTAuNzMsMC0wLjczLDAtMC43MyAgICAgYzAuNzMsMCwwLjczLDAsMC43MywwYzAtMS44NCwwLTEuODQsMC0xLjg0YzEuMTEtMC40NiwxLjExLTAuNDYsMS4xMS0wLjQ2YzAsMi4zLDAsMi4zLDAsMi4zYzEuMjIsMCwxLjIyLDAsMS4yMiwwICAgICBjMCwwLjczLDAsMC43MywwLDAuNzNjLTEuMjIsMC0xLjIyLDAtMS4yMiwwYzAsNC40NCwwLDQuNDQsMCw0LjQ0YzAsMC40MiwwLjExLDAuNzIsMC4zNCwwLjkyYzAuMTksMC4xNSwwLjQ2LDAuMjMsMC44OCwwLjIzICAgICBWMTQuNTh6Ii8+JiN4YTsJCTwvZz4mI3hhOwkJPGcgaWQ9InNoYXBlMTE3MC04IiB0cmFuc2Zvcm09InRyYW5zbGF0ZSgzNC43ODM3LC0zLjU1MTczKSI+JiN4YTsJCQk8dGl0bGUgaWQ9InRpdGxlMTk2Mjg3Ij5TaGVldC4xMTcwPC90aXRsZT4mI3hhOwkJCTxwYXRoIGlkPSJwYXRoMTk2Mjg5IiBpbmtzY2FwZTpjb25uZWN0b3ItY3VydmF0dXJlPSIwIiBzdHlsZT0iZmlsbDojM0Y1NzY1OyIgZD0iTTQuOSwxNC41OGMtMC45NiwwLTAuOTYsMC0wLjk2LDAgICAgIGMwLTQuNDgsMC00LjQ4LDAtNC40OGMwLTAuNDItMC4xMS0wLjgtMC4zMS0xLjE1QzMuNDQsOC41NywzLjE0LDguNDIsMi43NSw4LjQyYy0wLjQ5LDAtMS4wMywwLjI2LTEuNzYsMC44ICAgICBjMCw1LjM2LDAsNS4zNiwwLDUuMzZjLTAuOTksMC0wLjk5LDAtMC45OSwwQzAsMy45MywwLDMuOTMsMCwzLjkzYzAuOTktMC4zOCwwLjk5LTAuMzgsMC45OS0wLjM4YzAsNC44NywwLDQuODcsMCw0Ljg3ICAgICBjMC42OS0wLjU0LDEuMzgtMC44MSwyLjE1LTAuODFjMC40OSwwLDAuOTUsMC4xOSwxLjMsMC42MUM0Ljc0LDguNjQsNC45LDkuMTQsNC45LDkuNzZDNC45LDE0LjU4LDQuOSwxNC41OCw0LjksMTQuNTh6Ii8+JiN4YTsJCTwvZz4mI3hhOwkJPGcgaWQ9InNoYXBlMTE3MS0xMCIgdHJhbnNmb3JtPSJ0cmFuc2xhdGUoNDAuOTA1NCwtMy41NTE3MykiPiYjeGE7CQkJPHRpdGxlIGlkPSJ0aXRsZTE5NjI5MiI+U2hlZXQuMTE3MTwvdGl0bGU+JiN4YTsJCQk8cGF0aCBpZD0icGF0aDE5NjI5NCIgaW5rc2NhcGU6Y29ubmVjdG9yLWN1cnZhdHVyZT0iMCIgc3R5bGU9ImZpbGw6IzNGNTc2NTsiIGQ9Ik00LjQ0LDExLjEzYzAtMC42OS0wLjEyLTEuMjItMC4zNS0xLjY4ICAgICBDMy44Myw4LjkxLDMuMzcsOC42MSwyLjc1LDguNjFjLTEuMDcsMC4wMy0xLjY0LDAuOTItMS42NCwyLjUyYzAsMC43NywwLjE1LDEuMzQsMC4zNCwxLjg0YzAuMzEsMC42NSwwLjczLDEsMS4zNCwwLjk2ICAgICBDMy44NiwxMy45Myw0LjQ0LDEyLjk3LDQuNDQsMTEuMTN6IE01LjUxLDExLjEzYzAsMC45Ni0wLjE5LDEuNzctMC42NSwyLjQyYy0wLjU0LDAuNzItMS4xOSwxLjAzLTIuMTEsMS4wMyAgICAgYy0wLjg4LDAtMS41My0wLjMxLTIuMDItMS4wM0MwLjI3LDEyLjksMCwxMi4wOSwwLDExLjEzYzAtMC45MiwwLjI3LTEuNjQsMC43Ny0yLjI5YzAuNDktMC42NSwxLjE4LTEsMi4wMi0xICAgICBjMC44MSwwLDEuNSwwLjM1LDIuMDMsMUM1LjI4LDkuNDksNS41MSwxMC4yMSw1LjUxLDExLjEzeiIvPiYjeGE7CQk8L2c+JiN4YTsJCTxnIGlkPSJzaGFwZTExNzItMTIiIHRyYW5zZm9ybT0idHJhbnNsYXRlKDQ3LjYzOTIsLTMuNTUxNzMpIj4mI3hhOwkJCTx0aXRsZSBpZD0idGl0bGUxOTYyOTciPlNoZWV0LjExNzI8L3RpdGxlPiYjeGE7CQkJPHBhdGggaWQ9InBhdGgxOTYyOTkiIGlua3NjYXBlOmNvbm5lY3Rvci1jdXJ2YXR1cmU9IjAiIHN0eWxlPSJmaWxsOiMzRjU3NjU7IiBkPSJNNC45LDE0LjU4Yy0xLDAtMSwwLTEsMGMwLTQuNDgsMC00LjQ4LDAtNC40OCAgICAgYzAtMC41LTAuMTEtMC44OC0wLjQyLTEuMTVDMy4yMSw4LjY4LDIuODcsOC41NywyLjQxLDguNTdzLTAuOTYsMC4xOS0xLjM4LDAuNWMwLDUuNTEsMCw1LjUxLDAsNS41MWMtMS4wMywwLTEuMDMsMC0xLjAzLDAgICAgIGMwLTUuNjMsMC01LjYzLDAtNS42M2MwLjU3LTAuNDYsMS4xNS0wLjc2LDEuNjEtMC45MmMwLjQ2LTAuMTEsMC44OC0wLjE5LDEuMjYtMC4xOWMwLjIzLDAsMC40NiwwLjA0LDAuNjUsMC4wOCAgICAgQzMuOSw4LjAzLDQuMjUsOC4xOSw0LjQ4LDguNDVDNC43OCw4Ljc2LDQuOSw5LjE0LDQuOSw5LjU2VjE0LjU4eiIvPiYjeGE7CQk8L2c+JiN4YTsJCTxnIGlkPSJzaGFwZTExNzMtMTQiIHRyYW5zZm9ybT0idHJhbnNsYXRlKDAsLTMuNTUxNzMpIj4mI3hhOwkJCTx0aXRsZSBpZD0idGl0bGUxOTYzMDIiPlNoZWV0LjExNzM8L3RpdGxlPiYjeGE7CQkJPHBhdGggaWQ9InBhdGgxOTYzMDQiIGlua3NjYXBlOmNvbm5lY3Rvci1jdXJ2YXR1cmU9IjAiIHN0eWxlPSJmaWxsOiMzRjU3NjU7IiBkPSJNNi44OSw0LjE2Yy0wLjU3LDAtMS4xNSwwLjA0LTEuNjEsMC4yICAgICBDMy44Myw0LjU5LDMuNiw1LjA4LDMuNiw2LjA0YzAsMS4zLDAsMS4zLDAsMS4zYzMuMzcsMCwzLjM3LDAsMy4zNywwYzAsMC40MiwwLDAuNDIsMCwwLjQyYy0zLjM3LDAtMy4zNywwLTMuMzcsMCAgICAgYy0xLjI2LDAtMS4yNiwwLTEuMjYsMGMtMSwwLTEuOCwwLjU4LTIuMDcsMS43M2MtMC4zNCwxLjI2LTAuMzgsMi4wNywwLDMuNDFjMC4yMywwLjk1LDAuNzcsMS42OCwxLjcyLDEuNjggICAgIGMxLjE5LDAsMS4xOSwwLDEuMTksMGMwLTEuNTMsMC0xLjUzLDAtMS41M2MwLTEuMTEsMS0yLjA3LDIuMS0yLjA3YzMuMzcsMCwzLjM3LDAsMy4zNywwYzAuOTIsMCwxLjY1LTAuOCwxLjY1LTEuNzIgICAgIGMwLTMuMjIsMC0zLjIyLDAtMy4yMmMwLTAuODgtMC43Ny0xLjU3LTEuNjUtMS42OEM4LjA0LDQuMiw3LjQ3LDQuMTYsNi44OSw0LjE2eiBNNS4wNiw1LjJjMC4zNCwwLDAuNjEsMC4zLDAuNjEsMC42NSAgICAgYzAsMC4zNC0wLjI3LDAuNjUtMC42MSwwLjY1Yy0wLjM1LDAtMC42Mi0wLjMxLTAuNjItMC42NUM0LjQ0LDUuNSw0LjcxLDUuMiw1LjA2LDUuMnoiLz4mI3hhOwkJPC9nPiYjeGE7CQk8ZyBpZD0ic2hhcGUxMTc0LTE2IiB0cmFuc2Zvcm09InRyYW5zbGF0ZSgzLjU2MzE5KSI+JiN4YTsJCQk8dGl0bGUgaWQ9InRpdGxlMTk2MzA3Ij5TaGVldC4xMTc0PC90aXRsZT4mI3hhOwkJCTxwYXRoIGlkPSJwYXRoMTk2MzA5IiBpbmtzY2FwZTpjb25uZWN0b3ItY3VydmF0dXJlPSIwIiBzdHlsZT0iZmlsbDojM0Y1NzY1OyIgZD0iTTYuNyw0LjI5YzAsMS40NSwwLDEuNDUsMCwxLjQ1ICAgICBjMCwxLjE1LTAuOTIsMi4xMS0xLjk2LDIuMTFjLTMuMTMsMC0zLjEzLDAtMy4xMywwQzAuNzMsNy44NSwwLDguNjIsMCw5LjVjMCwzLjE0LDAsMy4xNCwwLDMuMTRjMCwwLjkyLDAuNzcsMS40MSwxLjYxLDEuNjggICAgIGMwLjk5LDAuMzEsMS45NSwwLjM4LDMuMTMsMGMwLjc3LTAuMjMsMS41Ny0wLjczLDEuNTctMS42OGMwLTEuMjMsMC0xLjIzLDAtMS4yM2MtMy4xMywwLTMuMTMsMC0zLjEzLDBjMC0wLjQyLDAtMC40MiwwLTAuNDIgICAgIGMzLjEzLDAsMy4xMywwLDMuMTMsMGMxLjYxLDAsMS42MSwwLDEuNjEsMGMwLjkyLDAsMS4yMi0wLjY5LDEuNTctMS42OGMwLjMtMS4wNCwwLjMtMi4wMywwLTMuMzRDOS4yNiw1LjAyLDguODQsNC4yOSw3LjkyLDQuMjkgICAgIEg2Ljd6IE00Ljk0LDEyLjIyYzAuMzQsMCwwLjU3LDAuMywwLjU3LDAuNjVjMCwwLjM0LTAuMjMsMC42MS0wLjU3LDAuNjFjLTAuMzUsMC0wLjU4LTAuMjctMC41OC0wLjYxICAgICBDNC4zNiwxMi41Miw0LjU5LDEyLjIyLDQuOTQsMTIuMjJ6Ii8+JiN4YTsJCTwvZz4mI3hhOwkJPGcgaWQ9InNoYXBlMTE3NS0xOCIgdHJhbnNmb3JtPSJ0cmFuc2xhdGUoNTQuMzczMSwtMTEuNTE2OCkiPiYjeGE7CQkJPHRpdGxlIGlkPSJ0aXRsZTE5NjMxMiI+U2hlZXQuMTE3NTwvdGl0bGU+JiN4YTsJCQk8cGF0aCBpZD0icGF0aDE5NjMxNCIgaW5rc2NhcGU6Y29ubmVjdG9yLWN1cnZhdHVyZT0iMCIgc3R5bGU9ImZpbGw6IzNGNTc2NTsiIGQ9Ik0wLjU0LDE0LjU4aDAuMDd2LTEuMTFoMC41NHYtMC4xMkgwdjAuMTJoMC41NCAgICAgVjE0LjU4eiBNMS4yMiwxNC41OGgwLjIzdi0xLjAzbDAuMzEsMS4wM2gwLjE5bDAuMzEtMS4wM3YxLjAzaDAuMTl2LTEuMjNIMi4yNmwtMC40MiwxLjA4bC0wLjMxLTEuMDhIMS4yMlYxNC41OHoiLz4mI3hhOwkJPC9nPiYjeGE7CQk8ZyBpZD0ic2hhcGUxMTc2LTIwIiB0cmFuc2Zvcm09InRyYW5zbGF0ZSg1NC4zNzMxLC0xMS41MTY4KSI+JiN4YTsJCQk8dGl0bGUgaWQ9InRpdGxlMTk2MzE3Ij5TaGVldC4xMTc2PC90aXRsZT4mI3hhOwkJCTxwYXRoIGlkPSJwYXRoMTk2MzE5IiBpbmtzY2FwZTpjb25uZWN0b3ItY3VydmF0dXJlPSIwIiBzdHlsZT0iZmlsbDojM0Y1NzY1OyIgZD0iTTAuNTQsMTQuNThoMC4wN3YtMS4xMWgwLjU0di0wLjEySDB2MC4xMmgwLjU0ICAgICBWMTQuNTh6IE0xLjIyLDE0LjU4aDAuMjN2LTEuMDNsMC4zMSwxLjAzaDAuMTlsMC4zMS0xLjAzdjEuMDNoMC4xOXYtMS4yM0gyLjI2bC0wLjQyLDEuMDhsLTAuMzEtMS4wOEgxLjIyVjE0LjU4eiIvPiYjeGE7CQk8L2c+JiN4YTsJPC9nPiYjeGE7PC9nPiYjeGE7PC9zdmc+;" vertex="1" parent="1">
          <mxGeometry x="1000" y="390" width="57" height="15" as="geometry" />
        </mxCell>
        <mxCell id="a0yiWjh66o21EPFuuch4-2107" value="Go" style="shape=image;verticalLabelPosition=bottom;labelBackgroundColor=#ffffff;verticalAlign=top;aspect=fixed;imageAspect=0;image=data:image/svg+xml,PHN2ZyB4bWxuczpjYz0iaHR0cDovL2NyZWF0aXZlY29tbW9ucy5vcmcvbnMjIiB4bWxuczpkYz0iaHR0cDovL3B1cmwub3JnL2RjL2VsZW1lbnRzLzEuMS8iIHhtbG5zOmlua3NjYXBlPSJodHRwOi8vd3d3Lmlua3NjYXBlLm9yZy9uYW1lc3BhY2VzL2lua3NjYXBlIiB4bWxuczpyZGY9Imh0dHA6Ly93d3cudzMub3JnLzE5OTkvMDIvMjItcmRmLXN5bnRheC1ucyMiIHhtbG5zOnNvZGlwb2RpPSJodHRwOi8vc29kaXBvZGkuc291cmNlZm9yZ2UubmV0L0RURC9zb2RpcG9kaS0wLmR0ZCIgeG1sbnM6c3ZnPSJodHRwOi8vd3d3LnczLm9yZy8yMDAwL3N2ZyIgeG1sbnM9Imh0dHA6Ly93d3cudzMub3JnLzIwMDAvc3ZnIiB4bWxuczp4bGluaz0iaHR0cDovL3d3dy53My5vcmcvMTk5OS94bGluayIgdmVyc2lvbj0iMS4xIiBpZD0ic3ZnMjE0MTU0IiBpbmtzY2FwZTp2ZXJzaW9uPSIwLjkyLjMgKDI0MDU1NDYsIDIwMTgtMDMtMTEpIiBzb2RpcG9kaTpkb2NuYW1lPSJ1bmlkZW50aWZpZWRfZmVhdHVyZS5zdmciIHg9IjBweCIgeT0iMHB4IiB2aWV3Qm94PSIwIDAgNTIuNzUgNDYuMTkiIHN0eWxlPSJlbmFibGUtYmFja2dyb3VuZDpuZXcgMCAwIDUyLjc1IDQ2LjE5OyIgeG1sOnNwYWNlPSJwcmVzZXJ2ZSI+JiN4YTs8c29kaXBvZGk6bmFtZWR2aWV3IGJvcmRlcmNvbG9yPSIjNjY2NjY2IiBib3JkZXJvcGFjaXR5PSIxIiBmaXQtbWFyZ2luLWJvdHRvbT0iMCIgZml0LW1hcmdpbi1sZWZ0PSIwIiBmaXQtbWFyZ2luLXJpZ2h0PSIwIiBmaXQtbWFyZ2luLXRvcD0iMCIgZ3JpZHRvbGVyYW5jZT0iMTAiIGd1aWRldG9sZXJhbmNlPSIxMCIgaWQ9Im5hbWVkdmlldzIxNDE1NiIgaW5rc2NhcGU6Y3VycmVudC1sYXllcj0ic3ZnMjE0MTU0IiBpbmtzY2FwZTpjeD0iMzUuMTY0NTQ3IiBpbmtzY2FwZTpjeT0iMzAuNzkzMjA4IiBpbmtzY2FwZTpwYWdlb3BhY2l0eT0iMCIgaW5rc2NhcGU6cGFnZXNoYWRvdz0iMiIgaW5rc2NhcGU6d2luZG93LWhlaWdodD0iMTAxNyIgaW5rc2NhcGU6d2luZG93LW1heGltaXplZD0iMSIgaW5rc2NhcGU6d2luZG93LXdpZHRoPSIxOTIwIiBpbmtzY2FwZTp3aW5kb3cteD0iLTgiIGlua3NjYXBlOndpbmRvdy15PSItOCIgaW5rc2NhcGU6em9vbT0iMTEuOTg4OTE1IiBvYmplY3R0b2xlcmFuY2U9IjEwIiBwYWdlY29sb3I9IiNmZmZmZmYiIHNob3dncmlkPSJmYWxzZSI+JiN4YTsJPC9zb2RpcG9kaTpuYW1lZHZpZXc+JiN4YTs8ZyBpZD0iZzIxNDE1MiIgdHJhbnNmb3JtPSJ0cmFuc2xhdGUoLTQuMDI2MzIsLTQuMDI2NjcpIj4mI3hhOwk8dGl0bGUgaWQ9InRpdGxlMjE0MTI4Ij5QYWdlLTE8L3RpdGxlPiYjeGE7CTxnIGlkPSJncm91cDMwMTQtMSIgdHJhbnNmb3JtPSJ0cmFuc2xhdGUoNC4wMjYzMiwtNC4wMjYzMikiPiYjeGE7CQk8dGl0bGUgaWQ9InRpdGxlMjE0MTMwIj5VbmlkZW50aWZpZWQgRmVhdHVyZTwvdGl0bGU+JiN4YTsJCTxnIGlkPSJncm91cDMwMTUtMiI+JiN4YTsJCQk8dGl0bGUgaWQ9InRpdGxlMjE0MTMyIj5TaGVldC4zMDE1PC90aXRsZT4mI3hhOwkJPC9nPiYjeGE7CQk8ZyBpZD0iZ3JvdXAzMDE2LTMiPiYjeGE7CQkJPHRpdGxlIGlkPSJ0aXRsZTIxNDEzNSI+cGF0aHM8L3RpdGxlPiYjeGE7CQkJPGcgaWQ9Imdyb3VwMzAxNy00Ij4mI3hhOwkJCQk8dGl0bGUgaWQ9InRpdGxlMjE0MTM3Ij5TaGVldC4zMDE3PC90aXRsZT4mI3hhOwkJCQk8ZyBpZD0ic2hhcGUzMDE4LTUiIHRyYW5zZm9ybT0idHJhbnNsYXRlKDAsLTguNzA3MDEpIj4mI3hhOwkJCQkJPHRpdGxlIGlkPSJ0aXRsZTIxNDEzOSI+U2hlZXQuMzAxODwvdGl0bGU+JiN4YTsJCQkJCTxwYXRoIGlkPSJwYXRoMjE0MTQxIiBpbmtzY2FwZTpjb25uZWN0b3ItY3VydmF0dXJlPSIwIiBzdHlsZT0iZmlsbDojM0Y1NzY1OyIgZD0iTTQyLjI3LDQ1LjkxVjMyLjE1ICAgICAgIGMwLTguMzItNy4zMi0xNS4zOS0xNS45LTE1LjM5cy0xNS45LDcuMDctMTUuOSwxNS4zOXYxMy43NkMyLjE1LDQ5LjE5LDAsNTQuMTEsMCw1NC4xMWwwLjEzLDAuMTNoNTIuNDlsMC4xMy0wLjEzICAgICAgIEM1Mi43NSw1NC4yNCw1MC42LDQ5LjMyLDQyLjI3LDQ1LjkxeiBNMTIuMzcsNDUuMjhWMzIuMTVjMC03LjMxLDYuNDMtMTMuNSwxNC0xMy41czE0LjAxLDYuMTksMTQuMDEsMTMuNXYxMy4xM2gtMC4xMyAgICAgICBjLTAuMjUtMC4xMy0wLjUtMC4xMy0wLjc1LTAuMjVoLTkuMzRjMi4xNC0wLjg5LDUuMy0yLjc4LDYuMTgtNi40NGMwLTAuMjUsMC0wLjUtMC4yNS0wLjYzcy0wLjUtMC4xMy0wLjYzLDAuMTMgICAgICAgYzAsMC0zLjUzLDMuNC02LjQ0LDMuNGMwLDAsMCwwLTAuMTIsMGMxLjEzLTIuMDIsMi41Mi0zLjkxLDMuOTEtNi44MWMyLjktNS42OC0xLjE0LTExLjQ4LTYuNjktMTEuNjEgICAgICAgYy01LjU1LTAuMTMtOS44NCw1LjU1LTcuMTksMTEuMzZjMS4zOSwyLjksMi42NSw1LjA0LDMuNjYsNy4wNmMtMi45LTAuMTItNi4zMS0zLjQtNi4zMS0zLjRjLTAuMTMtMC4yNi0wLjUxLTAuMjYtMC42My0wLjEzICAgICAgIGMtMC4yNiwwLjEzLTAuMzgsMC4zOC0wLjI2LDAuNjNjMS4wMSwzLjY2LDQuMDQsNS41NSw2LjE5LDYuNDRoLTguNDZDMTIuODcsNDUuMTUsMTIuNjIsNDUuMTUsMTIuMzcsNDUuMjh6IE0zMS45MywzMy41NCAgICAgICBjMCwwLjUxLTMuMDMsNC4xNy01LjY4LDQuMTdjLTIuNzgtMC4xMy01LjE4LTMuNjYtNS4xOC00LjE3QzIwLjk1LDMzLjE2LDMxLjkzLDMzLjE2LDMxLjkzLDMzLjU0eiBNMjcuMTMsMzAuODkgICAgICAgYzAtMS4wMSwxLjI2LTIuNTIsMS43Ny0yLjUyYzAuNjMsMCwxLjUxLDEuNjQsMS41MSwyLjc4YzAsMS0wLjg4LDEuMjYtMS41MSwxLjI2QzI4LjM5LDMyLjI4LDI3LjEzLDMyLjAzLDI3LjEzLDMwLjg5eiAgICAgICAgTTIzLjg1LDMyLjI4Yy0wLjYzLDAtMS4zOS0wLjI1LTEuNTEtMS4yNmMwLTEuMDEsMC44OC0yLjc4LDEuNTEtMi43OGMwLjYzLDAsMS43NywxLjUyLDEuNzcsMi41MyAgICAgICBDMjUuNjIsMzIuMDMsMjQuNDgsMzIuMjgsMjMuODUsMzIuMjh6Ii8+JiN4YTsJCQkJPC9nPiYjeGE7CQkJCTxnIGlkPSJzaGFwZTMwMTktNyIgdHJhbnNmb3JtPSJ0cmFuc2xhdGUoMi43NzYxNSkiPiYjeGE7CQkJCQk8dGl0bGUgaWQ9InRpdGxlMjE0MTQ0Ij5TaGVldC4zMDE5PC90aXRsZT4mI3hhOwkJCQkJPHBhdGggaWQ9InBhdGgyMTQxNDYiIGlua3NjYXBlOmNvbm5lY3Rvci1jdXJ2YXR1cmU9IjAiIHN0eWxlPSJmaWxsOiMzRjU3NjU7IiBkPSJNMjMuNiw1NC4yNGMxNC41MSwwLDIyLjcxLTUuMywyMy41OS03LjJIMCAgICAgICBDMC44OCw0OC45NCw4Ljk2LDU0LjI0LDIzLjYsNTQuMjR6Ii8+JiN4YTsJCQkJPC9nPiYjeGE7CQkJPC9nPiYjeGE7CQk8L2c+JiN4YTsJPC9nPiYjeGE7PC9nPiYjeGE7PC9zdmc+;" vertex="1" parent="1">
          <mxGeometry x="1000" y="470" width="53" height="46" as="geometry" />
        </mxCell>
        <mxCell id="a0yiWjh66o21EPFuuch4-2108" value="" style="arrow;html=1;endArrow=block;endFill=1;strokeColor=none;strokeWidth=4;fontFamily=Helvetica;fontSize=36;fontColor=#FFB366;fillColor=#FFB366;" edge="1" parent="1">
          <mxGeometry width="100" height="100" relative="1" as="geometry">
            <mxPoint x="1077" y="434" as="sourcePoint" />
            <mxPoint x="1157" y="434" as="targetPoint" />
          </mxGeometry>
        </mxCell>
        <mxCell id="a0yiWjh66o21EPFuuch4-2109" value="redis" style="shape=image;verticalLabelPosition=bottom;labelBackgroundColor=#ffffff;verticalAlign=top;aspect=fixed;imageAspect=0;image=data:image/svg+xml,PHN2ZyB4bWxuczpjYz0iaHR0cDovL2NyZWF0aXZlY29tbW9ucy5vcmcvbnMjIiB4bWxuczpkYz0iaHR0cDovL3B1cmwub3JnL2RjL2VsZW1lbnRzLzEuMS8iIHhtbG5zOmlua3NjYXBlPSJodHRwOi8vd3d3Lmlua3NjYXBlLm9yZy9uYW1lc3BhY2VzL2lua3NjYXBlIiB4bWxuczpyZGY9Imh0dHA6Ly93d3cudzMub3JnLzE5OTkvMDIvMjItcmRmLXN5bnRheC1ucyMiIHhtbG5zOnNvZGlwb2RpPSJodHRwOi8vc29kaXBvZGkuc291cmNlZm9yZ2UubmV0L0RURC9zb2RpcG9kaS0wLmR0ZCIgeG1sbnM6c3ZnPSJodHRwOi8vd3d3LnczLm9yZy8yMDAwL3N2ZyIgeG1sbnM9Imh0dHA6Ly93d3cudzMub3JnLzIwMDAvc3ZnIiB4bWxuczp4bGluaz0iaHR0cDovL3d3dy53My5vcmcvMTk5OS94bGluayIgdmVyc2lvbj0iMS4xIiBpZD0ic3ZnODU1MTEiIGlua3NjYXBlOnZlcnNpb249IjAuOTIuMyAoMjQwNTU0NiwgMjAxOC0wMy0xMSkiIHNvZGlwb2RpOmRvY25hbWU9InJlZGlzX2NhY2hlLnN2ZyIgeD0iMHB4IiB5PSIwcHgiIHZpZXdCb3g9IjAgMCAzNy41MSAzMS42IiBzdHlsZT0iZW5hYmxlLWJhY2tncm91bmQ6bmV3IDAgMCAzNy41MSAzMS42OyIgeG1sOnNwYWNlPSJwcmVzZXJ2ZSI+JiN4YTs8c29kaXBvZGk6bmFtZWR2aWV3IGJvcmRlcmNvbG9yPSIjNjY2NjY2IiBib3JkZXJvcGFjaXR5PSIxIiBmaXQtbWFyZ2luLWJvdHRvbT0iMCIgZml0LW1hcmdpbi1sZWZ0PSIwIiBmaXQtbWFyZ2luLXJpZ2h0PSIwIiBmaXQtbWFyZ2luLXRvcD0iMCIgZ3JpZHRvbGVyYW5jZT0iMTAiIGd1aWRldG9sZXJhbmNlPSIxMCIgaWQ9Im5hbWVkdmlldzg1NTEzIiBpbmtzY2FwZTpjdXJyZW50LWxheWVyPSJzdmc4NTUxMSIgaW5rc2NhcGU6Y3g9IjMwLjA3NTIzMSIgaW5rc2NhcGU6Y3k9IjAuMzQ3MzA4NDYiIGlua3NjYXBlOnBhZ2VvcGFjaXR5PSIwIiBpbmtzY2FwZTpwYWdlc2hhZG93PSIyIiBpbmtzY2FwZTp3aW5kb3ctaGVpZ2h0PSIxMDE3IiBpbmtzY2FwZTp3aW5kb3ctbWF4aW1pemVkPSIxIiBpbmtzY2FwZTp3aW5kb3ctd2lkdGg9IjE5MjAiIGlua3NjYXBlOndpbmRvdy14PSItOCIgaW5rc2NhcGU6d2luZG93LXk9Ii04IiBpbmtzY2FwZTp6b29tPSI2Ljk0NDY3MzkiIG9iamVjdHRvbGVyYW5jZT0iMTAiIHBhZ2Vjb2xvcj0iI2ZmZmZmZiIgc2hvd2dyaWQ9ImZhbHNlIj4mI3hhOwk8L3NvZGlwb2RpOm5hbWVkdmlldz4mI3hhOzxnIGlkPSJnODU1MDkiIHRyYW5zZm9ybT0idHJhbnNsYXRlKC0wLjc0NjgyNzEsLTAuNzUxNjI1KSI+JiN4YTsJPHRpdGxlIGlkPSJ0aXRsZTg1NDI1Ij5QYWdlLTE8L3RpdGxlPiYjeGE7CTxnIGlkPSJncm91cDQ0MTEtMSIgdHJhbnNmb3JtPSJ0cmFuc2xhdGUoMC40MDcyOSwtMC42MDkzNzUpIj4mI3hhOwkJPHRpdGxlIGlkPSJ0aXRsZTg1NDI3Ij5SZWRpcyBDYWNoZTwvdGl0bGU+JiN4YTsJCTxnIGlkPSJncm91cDQ0MTItMiI+JiN4YTsJCQk8dGl0bGUgaWQ9InRpdGxlODU0MjkiPlNoZWV0LjQ0MTI8L3RpdGxlPiYjeGE7CQkJPGcgaWQ9InNoYXBlNDQxMy0zIiB0cmFuc2Zvcm09InRyYW5zbGF0ZSgwLjIzNykiPiYjeGE7CQkJCTx0aXRsZSBpZD0idGl0bGU4NTQzMSI+U2hlZXQuNDQxMzwvdGl0bGU+JiN4YTsJCQkJPHBhdGggaWQ9InBhdGg4NTQzMyIgaW5rc2NhcGU6Y29ubmVjdG9yLWN1cnZhdHVyZT0iMCIgc3R5bGU9ImZpbGw6I0JBMTQxQTsiIGQ9Ik0wLjExLDI1LjE5Yy0wLjA2LDAuNCwwLjI4LDAuOCwxLjAyLDEuMTEgICAgICBsMTUuMjQsNi4yNGMxLjM3LDAuNTYsMy42LDAuNTYsNC45NywwbDE1LjI0LTYuMjRjMC43NC0wLjMxLDEuMDgtMC43MSwxLjAyLTEuMTF2LTMuNThjMC4wNSwwLjM5LTAuMjksMC43OS0xLjAyLDEuMDkgICAgICBsLTE1LjI0LDYuMjRjLTEuMzcsMC41Ni0zLjYsMC41Ni00Ljk3LDBMMS4xMywyMi43Yy0wLjgtMC4zMy0xLjEzLTAuNzgtMS0xLjJMMC4xMSwyNS4xOXoiLz4mI3hhOwkJCTwvZz4mI3hhOwkJCTxnIGlkPSJzaGFwZTQ0MTQtNSIgdHJhbnNmb3JtPSJ0cmFuc2xhdGUoMCwtMy42KSI+JiN4YTsJCQkJPHRpdGxlIGlkPSJ0aXRsZTg1NDM2Ij5TaGVldC40NDE0PC90aXRsZT4mI3hhOwkJCQk8cGF0aCBpZD0icGF0aDg1NDM4IiBpbmtzY2FwZTpjb25uZWN0b3ItY3VydmF0dXJlPSIwIiBzdHlsZT0iZmlsbDojQkExNDFBOyIgZD0iTTM2LjgxLDI0LjI2YzEuMzgsMC41NywxLjM4LDEuNDgsMCwyLjA0ICAgICAgbC0xNS4yMyw2LjI0Yy0xLjM3LDAuNTYtMy42LDAuNTYtNC45NywwTDEuMzcsMjYuM0MwLDI1Ljc0LDAsMjQuODMsMS4zNywyNC4yNmwxNS4yNC02LjI0YzEuMzctMC41NiwzLjYtMC41Niw0Ljk3LDAgICAgICBMMzYuODEsMjQuMjZ6Ii8+JiN4YTsJCQk8L2c+JiN4YTsJCTwvZz4mI3hhOwkJPGcgaWQ9Imdyb3VwNDQxNS03IiB0cmFuc2Zvcm09InRyYW5zbGF0ZSgwLC02LjMxOTUpIj4mI3hhOwkJCTx0aXRsZSBpZD0idGl0bGU4NTQ0MiI+U2hlZXQuNDQxNTwvdGl0bGU+JiN4YTsJCQk8ZyBpZD0ic2hhcGU0NDE2LTgiIHRyYW5zZm9ybT0idHJhbnNsYXRlKDAuMjM3KSI+JiN4YTsJCQkJPHRpdGxlIGlkPSJ0aXRsZTg1NDQ0Ij5TaGVldC40NDE2PC90aXRsZT4mI3hhOwkJCQk8cGF0aCBpZD0icGF0aDg1NDQ2IiBpbmtzY2FwZTpjb25uZWN0b3ItY3VydmF0dXJlPSIwIiBzdHlsZT0iZmlsbDojQkExNDFBOyIgZD0iTTAuMTEsMjUuMTljLTAuMDYsMC40LDAuMjgsMC44LDEuMDIsMS4xMSAgICAgIGwxNS4yNCw2LjI0YzEuMzcsMC41NiwzLjYsMC41Niw0Ljk3LDBsMTUuMjQtNi4yNGMwLjc0LTAuMzEsMS4wOC0wLjcxLDEuMDItMS4xMXYtMy41OGMwLjA1LDAuMzktMC4yOSwwLjc5LTEuMDIsMS4wOSAgICAgIGwtMTUuMjQsNi4yNGMtMS4zNywwLjU2LTMuNiwwLjU2LTQuOTcsMEwxLjEzLDIyLjdjLTAuOC0wLjMzLTEuMTMtMC43OC0xLTEuMkwwLjExLDI1LjE5eiIvPiYjeGE7CQkJPC9nPiYjeGE7CQkJPGcgaWQ9InNoYXBlNDQxNy0xMCIgdHJhbnNmb3JtPSJ0cmFuc2xhdGUoMCwtMy42KSI+JiN4YTsJCQkJPHRpdGxlIGlkPSJ0aXRsZTg1NDQ5Ij5TaGVldC40NDE3PC90aXRsZT4mI3hhOwkJCQk8cGF0aCBpZD0icGF0aDg1NDUxIiBpbmtzY2FwZTpjb25uZWN0b3ItY3VydmF0dXJlPSIwIiBzdHlsZT0iZmlsbDojQkExNDFBOyIgZD0iTTM2LjgxLDI0LjI2YzEuMzgsMC41NywxLjM4LDEuNDgsMCwyLjA0ICAgICAgbC0xNS4yMyw2LjI0Yy0xLjM3LDAuNTYtMy42LDAuNTYtNC45NywwTDEuMzcsMjYuM0MwLDI1Ljc0LDAsMjQuODMsMS4zNywyNC4yNmwxNS4yNC02LjI0YzEuMzctMC41NiwzLjYtMC41Niw0Ljk3LDAgICAgICBMMzYuODEsMjQuMjZ6Ii8+JiN4YTsJCQk8L2c+JiN4YTsJCTwvZz4mI3hhOwkJPGcgaWQ9Imdyb3VwNDQxOC0xMiI+JiN4YTsJCQk8dGl0bGUgaWQ9InRpdGxlODU0NTUiPlNoZWV0LjQ0MTg8L3RpdGxlPiYjeGE7CQkJPGcgaWQ9InNoYXBlNDQxOS0xMyIgdHJhbnNmb3JtPSJ0cmFuc2xhdGUoMC4yMzcsLTEyLjYzOSkiPiYjeGE7CQkJCTx0aXRsZSBpZD0idGl0bGU4NTQ1NyI+U2hlZXQuNDQxOTwvdGl0bGU+JiN4YTsJCQkJPHBhdGggaWQ9InBhdGg4NTQ1OSIgaW5rc2NhcGU6Y29ubmVjdG9yLWN1cnZhdHVyZT0iMCIgc3R5bGU9ImZpbGw6I0JBMTQxQTsiIGQ9Ik0wLjExLDI1LjE5Yy0wLjA2LDAuNCwwLjI4LDAuOCwxLjAyLDEuMTEgICAgICBsMTUuMjQsNi4yNGMxLjM3LDAuNTYsMy42LDAuNTYsNC45NywwbDE1LjI0LTYuMjRjMC43NC0wLjMxLDEuMDgtMC43MSwxLjAyLTEuMTF2LTMuNThjMC4wNSwwLjM5LTAuMjksMC43OS0xLjAyLDEuMDkgICAgICBsLTE1LjI0LDYuMjRjLTEuMzcsMC41Ni0zLjYsMC41Ni00Ljk3LDBMMS4xMywyMi43Yy0wLjgtMC4zMy0xLjEzLTAuNzgtMS0xLjJMMC4xMSwyNS4xOXoiLz4mI3hhOwkJCTwvZz4mI3hhOwkJCTxnIGlkPSJzaGFwZTQ0MjAtMTUiIHRyYW5zZm9ybT0idHJhbnNsYXRlKDAuMjM3KSI+JiN4YTsJCQkJPHRpdGxlIGlkPSJ0aXRsZTg1NDYyIj5TaGVldC40NDIwPC90aXRsZT4mI3hhOwkJCQk8cGF0aCBpZD0icGF0aDg1NDY0IiBpbmtzY2FwZTpjb25uZWN0b3ItY3VydmF0dXJlPSIwIiBzdHlsZT0iZmlsbDojMUUxRTFFO2ZpbGwtb3BhY2l0eTowLjI1OyIgZD0iTTAuMTEsMjUuMTkgICAgICBjLTAuMDYsMC40LDAuMjgsMC44LDEuMDIsMS4xMWwxNS4yNCw2LjI0YzEuMzcsMC41NiwzLjYsMC41Niw0Ljk3LDBsMTUuMjQtNi4yNGMwLjc0LTAuMzEsMS4wOC0wLjcxLDEuMDItMS4xMXYtMy41OCAgICAgIGMwLjA1LDAuMzktMC4yOSwwLjc5LTEuMDIsMS4wOWwtMTUuMjQsNi4yNGMtMS4zNywwLjU2LTMuNiwwLjU2LTQuOTcsMEwxLjEzLDIyLjdjLTAuOC0wLjMzLTEuMTMtMC43OC0xLTEuMkwwLjExLDI1LjE5eiIvPiYjeGE7CQkJPC9nPiYjeGE7CQkJPGcgaWQ9InNoYXBlNDQyMS0xNyIgdHJhbnNmb3JtPSJ0cmFuc2xhdGUoMC4yMzcsLTYuMzE5NSkiPiYjeGE7CQkJCTx0aXRsZSBpZD0idGl0bGU4NTQ2NyI+U2hlZXQuNDQyMTwvdGl0bGU+JiN4YTsJCQkJPHBhdGggaWQ9InBhdGg4NTQ2OSIgaW5rc2NhcGU6Y29ubmVjdG9yLWN1cnZhdHVyZT0iMCIgc3R5bGU9ImZpbGw6IzFFMUUxRTtmaWxsLW9wYWNpdHk6MC4yNTsiIGQ9Ik0wLjExLDI1LjE5ICAgICAgYy0wLjA2LDAuNCwwLjI4LDAuOCwxLjAyLDEuMTFsMTUuMjQsNi4yNGMxLjM3LDAuNTYsMy42LDAuNTYsNC45NywwbDE1LjI0LTYuMjRjMC43NC0wLjMxLDEuMDgtMC43MSwxLjAyLTEuMTF2LTMuNTggICAgICBjMC4wNSwwLjM5LTAuMjksMC43OS0xLjAyLDEuMDlsLTE1LjI0LDYuMjRjLTEuMzcsMC41Ni0zLjYsMC41Ni00Ljk3LDBMMS4xMywyMi43Yy0wLjgtMC4zMy0xLjEzLTAuNzgtMS0xLjJMMC4xMSwyNS4xOXoiLz4mI3hhOwkJCTwvZz4mI3hhOwkJCTxnIGlkPSJzaGFwZTQ0MjItMTkiIHRyYW5zZm9ybT0idHJhbnNsYXRlKDAuMjM3LC0xMi42MzkpIj4mI3hhOwkJCQk8dGl0bGUgaWQ9InRpdGxlODU0NzIiPlNoZWV0LjQ0MjI8L3RpdGxlPiYjeGE7CQkJCTxwYXRoIGlkPSJwYXRoODU0NzQiIGlua3NjYXBlOmNvbm5lY3Rvci1jdXJ2YXR1cmU9IjAiIHN0eWxlPSJmaWxsOiMxRTFFMUU7ZmlsbC1vcGFjaXR5OjAuMjU7IiBkPSJNMC4xMSwyNS4xOSAgICAgIGMtMC4wNiwwLjQsMC4yOCwwLjgsMS4wMiwxLjExbDE1LjI0LDYuMjRjMS4zNywwLjU2LDMuNiwwLjU2LDQuOTcsMGwxNS4yNC02LjI0YzAuNzQtMC4zMSwxLjA4LTAuNzEsMS4wMi0xLjExdi0zLjU4ICAgICAgYzAuMDUsMC4zOS0wLjI5LDAuNzktMS4wMiwxLjA5bC0xNS4yNCw2LjI0Yy0xLjM3LDAuNTYtMy42LDAuNTYtNC45NywwTDEuMTMsMjIuN2MtMC44LTAuMzMtMS4xMy0wLjc4LTEtMS4yTDAuMTEsMjUuMTl6Ii8+JiN4YTsJCQk8L2c+JiN4YTsJCQk8ZyBpZD0ic2hhcGU0NDIzLTIxIiB0cmFuc2Zvcm09InRyYW5zbGF0ZSgwLC0xNi4yMzkpIj4mI3hhOwkJCQk8dGl0bGUgaWQ9InRpdGxlODU0NzciPlNoZWV0LjQ0MjM8L3RpdGxlPiYjeGE7CQkJCTxwYXRoIGlkPSJwYXRoODU0NzkiIGlua3NjYXBlOmNvbm5lY3Rvci1jdXJ2YXR1cmU9IjAiIHN0eWxlPSJmaWxsOiNCQTE0MUE7IiBkPSJNMzYuODEsMjQuMjZjMS4zOCwwLjU3LDEuMzgsMS40OCwwLDIuMDQgICAgICBsLTE1LjIzLDYuMjRjLTEuMzcsMC41Ni0zLjYsMC41Ni00Ljk3LDBMMS4zNywyNi4zQzAsMjUuNzQsMCwyNC44MywxLjM3LDI0LjI2bDE1LjI0LTYuMjRjMS4zNy0wLjU2LDMuNi0wLjU2LDQuOTcsMCAgICAgIEwzNi44MSwyNC4yNnoiLz4mI3hhOwkJCTwvZz4mI3hhOwkJPC9nPiYjeGE7CQk8ZyBpZD0ic2hhcGU0NDI0LTIzIiB0cmFuc2Zvcm09InRyYW5zbGF0ZSg2LjM2MTUsLTIyLjExMjMpIj4mI3hhOwkJCTx0aXRsZSBpZD0idGl0bGU4NTQ4MyI+U2hlZXQuNDQyNDwvdGl0bGU+JiN4YTsJCQk8cGF0aCBpZD0icGF0aDg1NDg1IiBpbmtzY2FwZTpjb25uZWN0b3ItY3VydmF0dXJlPSIwIiBzdHlsZT0iZmlsbDojRkZGRkZGOyIgZD0iTTguMDQsMzIuMzNjLTEuNzQsMC43Ny00LjU2LDAuNzctNi4zLDAgICAgIEMwLDMxLjU2LDAsMzAuMywxLjc0LDI5LjUzYzEuNzQtMC43Nyw0LjU2LTAuNzcsNi4zLDBDOS43NywzMC4zLDkuNzgsMzEuNTYsOC4wNCwzMi4zM3oiLz4mI3hhOwkJPC9nPiYjeGE7CQk8ZyBpZD0ic2hhcGU0NDI1LTI1IiB0cmFuc2Zvcm09InRyYW5zbGF0ZSgxMy4yMTgsLTE3Ljk4OCkiPiYjeGE7CQkJPHRpdGxlIGlkPSJ0aXRsZTg1NDg4Ij5TaGVldC40NDI1PC90aXRsZT4mI3hhOwkJCTxwYXRoIGlkPSJwYXRoODU0OTAiIGlua3NjYXBlOmNvbm5lY3Rvci1jdXJ2YXR1cmU9IjAiIHN0eWxlPSJmaWxsOiNGRkZGRkY7IiBkPSJNMCwzMC4ybDguOTItMS4wNkw2LjUzLDMzLjFMMCwzMC4yeiIvPiYjeGE7CQk8L2c+JiN4YTsJCTxnIGlkPSJzaGFwZTQ0MjYtMjciIHRyYW5zZm9ybT0idHJhbnNsYXRlKDIxLjg2NCwtMjEuODkxKSI+JiN4YTsJCQk8dGl0bGUgaWQ9InRpdGxlODU0OTMiPlNoZWV0LjQ0MjY8L3RpdGxlPiYjeGE7CQkJPHBhdGggaWQ9InBhdGg4NTQ5NSIgaW5rc2NhcGU6Y29ubmVjdG9yLWN1cnZhdHVyZT0iMCIgc3R5bGU9ImZpbGw6IzFFMUUxRTtmaWxsLW9wYWNpdHk6MC4yNTsiIGQ9Ik01LjM0LDMzLjFMMCwzMC43M2w1LjM0LTIuMzcgICAgIGw1LjMzLDIuMzdMNS4zNCwzMy4xeiIvPiYjeGE7CQk8L2c+JiN4YTsJCTxnIGlkPSJzaGFwZTQ0MjctMjkiIHRyYW5zZm9ybT0idHJhbnNsYXRlKDIxLjg2NCwtMjEuODkxKSI+JiN4YTsJCQk8dGl0bGUgaWQ9InRpdGxlODU0OTgiPlNoZWV0LjQ0Mjc8L3RpdGxlPiYjeGE7CQkJPHBhdGggaWQ9InBhdGg4NTUwMCIgaW5rc2NhcGU6Y29ubmVjdG9yLWN1cnZhdHVyZT0iMCIgc3R5bGU9ImZpbGw6IzFFMUUxRTtmaWxsLW9wYWNpdHk6MC4yNTsiIGQ9Ik01LjM0LDMzLjFMMCwzMC43M2w1LjM0LTIuMzcgICAgIFYzMy4xeiIvPiYjeGE7CQk8L2c+JiN4YTsJCTxnIGlkPSJzaGFwZTQ0MjgtMzEiIHRyYW5zZm9ybT0idHJhbnNsYXRlKDEzLjg5NjcsLTI1LjYxNTUpIj4mI3hhOwkJCTx0aXRsZSBpZD0idGl0bGU4NTUwMyI+U2hlZXQuNDQyODwvdGl0bGU+JiN4YTsJCQk8cGF0aCBpZD0icGF0aDg1NTA1IiBpbmtzY2FwZTpjb25uZWN0b3ItY3VydmF0dXJlPSIwIiBzdHlsZT0iZmlsbDojRkZGRkZGOyIgZD0iTTMuNDgsMzEuNTVMMCwzMS4yNGwzLjA5LTAuNzhsLTAuNC0xLjU3ICAgICBsMi42MiwxLjA3bDMuMjQtMC42NmwtMS40OCwxLjQ0bDIuNDEsMS4xN2wtMy41NC0wLjE4TDQuMTksMzMuMUwzLjQ4LDMxLjU1eiIvPiYjeGE7CQk8L2c+JiN4YTsJPC9nPiYjeGE7PC9nPiYjeGE7PC9zdmc+;" vertex="1" parent="1">
          <mxGeometry x="1204" y="356" width="38" height="32" as="geometry" />
        </mxCell>
        <mxCell id="a0yiWjh66o21EPFuuch4-2110" value="kafka" style="shape=image;verticalLabelPosition=bottom;labelBackgroundColor=#ffffff;verticalAlign=top;aspect=fixed;imageAspect=0;image=data:image/svg+xml,PHN2ZyB4bWxuczpjYz0iaHR0cDovL2NyZWF0aXZlY29tbW9ucy5vcmcvbnMjIiB4bWxuczpkYz0iaHR0cDovL3B1cmwub3JnL2RjL2VsZW1lbnRzLzEuMS8iIHhtbG5zOmlua3NjYXBlPSJodHRwOi8vd3d3Lmlua3NjYXBlLm9yZy9uYW1lc3BhY2VzL2lua3NjYXBlIiB4bWxuczpyZGY9Imh0dHA6Ly93d3cudzMub3JnLzE5OTkvMDIvMjItcmRmLXN5bnRheC1ucyMiIHhtbG5zOnNvZGlwb2RpPSJodHRwOi8vc29kaXBvZGkuc291cmNlZm9yZ2UubmV0L0RURC9zb2RpcG9kaS0wLmR0ZCIgeG1sbnM6c3ZnPSJodHRwOi8vd3d3LnczLm9yZy8yMDAwL3N2ZyIgeG1sbnM9Imh0dHA6Ly93d3cudzMub3JnLzIwMDAvc3ZnIiB4bWxuczp4bGluaz0iaHR0cDovL3d3dy53My5vcmcvMTk5OS94bGluayIgdmVyc2lvbj0iMS4xIiBpZD0ic3ZnODU1MTEiIGlua3NjYXBlOnZlcnNpb249IjAuOTIuMyAoMjQwNTU0NiwgMjAxOC0wMy0xMSkiIHNvZGlwb2RpOmRvY25hbWU9InJlZGlzX2NhY2hlLnN2ZyIgeD0iMHB4IiB5PSIwcHgiIHZpZXdCb3g9IjAgMCAzNy41MSAzMS42IiBzdHlsZT0iZW5hYmxlLWJhY2tncm91bmQ6bmV3IDAgMCAzNy41MSAzMS42OyIgeG1sOnNwYWNlPSJwcmVzZXJ2ZSI+JiN4YTs8c29kaXBvZGk6bmFtZWR2aWV3IGJvcmRlcmNvbG9yPSIjNjY2NjY2IiBib3JkZXJvcGFjaXR5PSIxIiBmaXQtbWFyZ2luLWJvdHRvbT0iMCIgZml0LW1hcmdpbi1sZWZ0PSIwIiBmaXQtbWFyZ2luLXJpZ2h0PSIwIiBmaXQtbWFyZ2luLXRvcD0iMCIgZ3JpZHRvbGVyYW5jZT0iMTAiIGd1aWRldG9sZXJhbmNlPSIxMCIgaWQ9Im5hbWVkdmlldzg1NTEzIiBpbmtzY2FwZTpjdXJyZW50LWxheWVyPSJzdmc4NTUxMSIgaW5rc2NhcGU6Y3g9IjMwLjA3NTIzMSIgaW5rc2NhcGU6Y3k9IjAuMzQ3MzA4NDYiIGlua3NjYXBlOnBhZ2VvcGFjaXR5PSIwIiBpbmtzY2FwZTpwYWdlc2hhZG93PSIyIiBpbmtzY2FwZTp3aW5kb3ctaGVpZ2h0PSIxMDE3IiBpbmtzY2FwZTp3aW5kb3ctbWF4aW1pemVkPSIxIiBpbmtzY2FwZTp3aW5kb3ctd2lkdGg9IjE5MjAiIGlua3NjYXBlOndpbmRvdy14PSItOCIgaW5rc2NhcGU6d2luZG93LXk9Ii04IiBpbmtzY2FwZTp6b29tPSI2Ljk0NDY3MzkiIG9iamVjdHRvbGVyYW5jZT0iMTAiIHBhZ2Vjb2xvcj0iI2ZmZmZmZiIgc2hvd2dyaWQ9ImZhbHNlIj4mI3hhOwk8L3NvZGlwb2RpOm5hbWVkdmlldz4mI3hhOzxnIGlkPSJnODU1MDkiIHRyYW5zZm9ybT0idHJhbnNsYXRlKC0wLjc0NjgyNzEsLTAuNzUxNjI1KSI+JiN4YTsJPHRpdGxlIGlkPSJ0aXRsZTg1NDI1Ij5QYWdlLTE8L3RpdGxlPiYjeGE7CTxnIGlkPSJncm91cDQ0MTEtMSIgdHJhbnNmb3JtPSJ0cmFuc2xhdGUoMC40MDcyOSwtMC42MDkzNzUpIj4mI3hhOwkJPHRpdGxlIGlkPSJ0aXRsZTg1NDI3Ij5SZWRpcyBDYWNoZTwvdGl0bGU+JiN4YTsJCTxnIGlkPSJncm91cDQ0MTItMiI+JiN4YTsJCQk8dGl0bGUgaWQ9InRpdGxlODU0MjkiPlNoZWV0LjQ0MTI8L3RpdGxlPiYjeGE7CQkJPGcgaWQ9InNoYXBlNDQxMy0zIiB0cmFuc2Zvcm09InRyYW5zbGF0ZSgwLjIzNykiPiYjeGE7CQkJCTx0aXRsZSBpZD0idGl0bGU4NTQzMSI+U2hlZXQuNDQxMzwvdGl0bGU+JiN4YTsJCQkJPHBhdGggaWQ9InBhdGg4NTQzMyIgaW5rc2NhcGU6Y29ubmVjdG9yLWN1cnZhdHVyZT0iMCIgc3R5bGU9ImZpbGw6I0JBMTQxQTsiIGQ9Ik0wLjExLDI1LjE5Yy0wLjA2LDAuNCwwLjI4LDAuOCwxLjAyLDEuMTEgICAgICBsMTUuMjQsNi4yNGMxLjM3LDAuNTYsMy42LDAuNTYsNC45NywwbDE1LjI0LTYuMjRjMC43NC0wLjMxLDEuMDgtMC43MSwxLjAyLTEuMTF2LTMuNThjMC4wNSwwLjM5LTAuMjksMC43OS0xLjAyLDEuMDkgICAgICBsLTE1LjI0LDYuMjRjLTEuMzcsMC41Ni0zLjYsMC41Ni00Ljk3LDBMMS4xMywyMi43Yy0wLjgtMC4zMy0xLjEzLTAuNzgtMS0xLjJMMC4xMSwyNS4xOXoiLz4mI3hhOwkJCTwvZz4mI3hhOwkJCTxnIGlkPSJzaGFwZTQ0MTQtNSIgdHJhbnNmb3JtPSJ0cmFuc2xhdGUoMCwtMy42KSI+JiN4YTsJCQkJPHRpdGxlIGlkPSJ0aXRsZTg1NDM2Ij5TaGVldC40NDE0PC90aXRsZT4mI3hhOwkJCQk8cGF0aCBpZD0icGF0aDg1NDM4IiBpbmtzY2FwZTpjb25uZWN0b3ItY3VydmF0dXJlPSIwIiBzdHlsZT0iZmlsbDojQkExNDFBOyIgZD0iTTM2LjgxLDI0LjI2YzEuMzgsMC41NywxLjM4LDEuNDgsMCwyLjA0ICAgICAgbC0xNS4yMyw2LjI0Yy0xLjM3LDAuNTYtMy42LDAuNTYtNC45NywwTDEuMzcsMjYuM0MwLDI1Ljc0LDAsMjQuODMsMS4zNywyNC4yNmwxNS4yNC02LjI0YzEuMzctMC41NiwzLjYtMC41Niw0Ljk3LDAgICAgICBMMzYuODEsMjQuMjZ6Ii8+JiN4YTsJCQk8L2c+JiN4YTsJCTwvZz4mI3hhOwkJPGcgaWQ9Imdyb3VwNDQxNS03IiB0cmFuc2Zvcm09InRyYW5zbGF0ZSgwLC02LjMxOTUpIj4mI3hhOwkJCTx0aXRsZSBpZD0idGl0bGU4NTQ0MiI+U2hlZXQuNDQxNTwvdGl0bGU+JiN4YTsJCQk8ZyBpZD0ic2hhcGU0NDE2LTgiIHRyYW5zZm9ybT0idHJhbnNsYXRlKDAuMjM3KSI+JiN4YTsJCQkJPHRpdGxlIGlkPSJ0aXRsZTg1NDQ0Ij5TaGVldC40NDE2PC90aXRsZT4mI3hhOwkJCQk8cGF0aCBpZD0icGF0aDg1NDQ2IiBpbmtzY2FwZTpjb25uZWN0b3ItY3VydmF0dXJlPSIwIiBzdHlsZT0iZmlsbDojQkExNDFBOyIgZD0iTTAuMTEsMjUuMTljLTAuMDYsMC40LDAuMjgsMC44LDEuMDIsMS4xMSAgICAgIGwxNS4yNCw2LjI0YzEuMzcsMC41NiwzLjYsMC41Niw0Ljk3LDBsMTUuMjQtNi4yNGMwLjc0LTAuMzEsMS4wOC0wLjcxLDEuMDItMS4xMXYtMy41OGMwLjA1LDAuMzktMC4yOSwwLjc5LTEuMDIsMS4wOSAgICAgIGwtMTUuMjQsNi4yNGMtMS4zNywwLjU2LTMuNiwwLjU2LTQuOTcsMEwxLjEzLDIyLjdjLTAuOC0wLjMzLTEuMTMtMC43OC0xLTEuMkwwLjExLDI1LjE5eiIvPiYjeGE7CQkJPC9nPiYjeGE7CQkJPGcgaWQ9InNoYXBlNDQxNy0xMCIgdHJhbnNmb3JtPSJ0cmFuc2xhdGUoMCwtMy42KSI+JiN4YTsJCQkJPHRpdGxlIGlkPSJ0aXRsZTg1NDQ5Ij5TaGVldC40NDE3PC90aXRsZT4mI3hhOwkJCQk8cGF0aCBpZD0icGF0aDg1NDUxIiBpbmtzY2FwZTpjb25uZWN0b3ItY3VydmF0dXJlPSIwIiBzdHlsZT0iZmlsbDojQkExNDFBOyIgZD0iTTM2LjgxLDI0LjI2YzEuMzgsMC41NywxLjM4LDEuNDgsMCwyLjA0ICAgICAgbC0xNS4yMyw2LjI0Yy0xLjM3LDAuNTYtMy42LDAuNTYtNC45NywwTDEuMzcsMjYuM0MwLDI1Ljc0LDAsMjQuODMsMS4zNywyNC4yNmwxNS4yNC02LjI0YzEuMzctMC41NiwzLjYtMC41Niw0Ljk3LDAgICAgICBMMzYuODEsMjQuMjZ6Ii8+JiN4YTsJCQk8L2c+JiN4YTsJCTwvZz4mI3hhOwkJPGcgaWQ9Imdyb3VwNDQxOC0xMiI+JiN4YTsJCQk8dGl0bGUgaWQ9InRpdGxlODU0NTUiPlNoZWV0LjQ0MTg8L3RpdGxlPiYjeGE7CQkJPGcgaWQ9InNoYXBlNDQxOS0xMyIgdHJhbnNmb3JtPSJ0cmFuc2xhdGUoMC4yMzcsLTEyLjYzOSkiPiYjeGE7CQkJCTx0aXRsZSBpZD0idGl0bGU4NTQ1NyI+U2hlZXQuNDQxOTwvdGl0bGU+JiN4YTsJCQkJPHBhdGggaWQ9InBhdGg4NTQ1OSIgaW5rc2NhcGU6Y29ubmVjdG9yLWN1cnZhdHVyZT0iMCIgc3R5bGU9ImZpbGw6I0JBMTQxQTsiIGQ9Ik0wLjExLDI1LjE5Yy0wLjA2LDAuNCwwLjI4LDAuOCwxLjAyLDEuMTEgICAgICBsMTUuMjQsNi4yNGMxLjM3LDAuNTYsMy42LDAuNTYsNC45NywwbDE1LjI0LTYuMjRjMC43NC0wLjMxLDEuMDgtMC43MSwxLjAyLTEuMTF2LTMuNThjMC4wNSwwLjM5LTAuMjksMC43OS0xLjAyLDEuMDkgICAgICBsLTE1LjI0LDYuMjRjLTEuMzcsMC41Ni0zLjYsMC41Ni00Ljk3LDBMMS4xMywyMi43Yy0wLjgtMC4zMy0xLjEzLTAuNzgtMS0xLjJMMC4xMSwyNS4xOXoiLz4mI3hhOwkJCTwvZz4mI3hhOwkJCTxnIGlkPSJzaGFwZTQ0MjAtMTUiIHRyYW5zZm9ybT0idHJhbnNsYXRlKDAuMjM3KSI+JiN4YTsJCQkJPHRpdGxlIGlkPSJ0aXRsZTg1NDYyIj5TaGVldC40NDIwPC90aXRsZT4mI3hhOwkJCQk8cGF0aCBpZD0icGF0aDg1NDY0IiBpbmtzY2FwZTpjb25uZWN0b3ItY3VydmF0dXJlPSIwIiBzdHlsZT0iZmlsbDojMUUxRTFFO2ZpbGwtb3BhY2l0eTowLjI1OyIgZD0iTTAuMTEsMjUuMTkgICAgICBjLTAuMDYsMC40LDAuMjgsMC44LDEuMDIsMS4xMWwxNS4yNCw2LjI0YzEuMzcsMC41NiwzLjYsMC41Niw0Ljk3LDBsMTUuMjQtNi4yNGMwLjc0LTAuMzEsMS4wOC0wLjcxLDEuMDItMS4xMXYtMy41OCAgICAgIGMwLjA1LDAuMzktMC4yOSwwLjc5LTEuMDIsMS4wOWwtMTUuMjQsNi4yNGMtMS4zNywwLjU2LTMuNiwwLjU2LTQuOTcsMEwxLjEzLDIyLjdjLTAuOC0wLjMzLTEuMTMtMC43OC0xLTEuMkwwLjExLDI1LjE5eiIvPiYjeGE7CQkJPC9nPiYjeGE7CQkJPGcgaWQ9InNoYXBlNDQyMS0xNyIgdHJhbnNmb3JtPSJ0cmFuc2xhdGUoMC4yMzcsLTYuMzE5NSkiPiYjeGE7CQkJCTx0aXRsZSBpZD0idGl0bGU4NTQ2NyI+U2hlZXQuNDQyMTwvdGl0bGU+JiN4YTsJCQkJPHBhdGggaWQ9InBhdGg4NTQ2OSIgaW5rc2NhcGU6Y29ubmVjdG9yLWN1cnZhdHVyZT0iMCIgc3R5bGU9ImZpbGw6IzFFMUUxRTtmaWxsLW9wYWNpdHk6MC4yNTsiIGQ9Ik0wLjExLDI1LjE5ICAgICAgYy0wLjA2LDAuNCwwLjI4LDAuOCwxLjAyLDEuMTFsMTUuMjQsNi4yNGMxLjM3LDAuNTYsMy42LDAuNTYsNC45NywwbDE1LjI0LTYuMjRjMC43NC0wLjMxLDEuMDgtMC43MSwxLjAyLTEuMTF2LTMuNTggICAgICBjMC4wNSwwLjM5LTAuMjksMC43OS0xLjAyLDEuMDlsLTE1LjI0LDYuMjRjLTEuMzcsMC41Ni0zLjYsMC41Ni00Ljk3LDBMMS4xMywyMi43Yy0wLjgtMC4zMy0xLjEzLTAuNzgtMS0xLjJMMC4xMSwyNS4xOXoiLz4mI3hhOwkJCTwvZz4mI3hhOwkJCTxnIGlkPSJzaGFwZTQ0MjItMTkiIHRyYW5zZm9ybT0idHJhbnNsYXRlKDAuMjM3LC0xMi42MzkpIj4mI3hhOwkJCQk8dGl0bGUgaWQ9InRpdGxlODU0NzIiPlNoZWV0LjQ0MjI8L3RpdGxlPiYjeGE7CQkJCTxwYXRoIGlkPSJwYXRoODU0NzQiIGlua3NjYXBlOmNvbm5lY3Rvci1jdXJ2YXR1cmU9IjAiIHN0eWxlPSJmaWxsOiMxRTFFMUU7ZmlsbC1vcGFjaXR5OjAuMjU7IiBkPSJNMC4xMSwyNS4xOSAgICAgIGMtMC4wNiwwLjQsMC4yOCwwLjgsMS4wMiwxLjExbDE1LjI0LDYuMjRjMS4zNywwLjU2LDMuNiwwLjU2LDQuOTcsMGwxNS4yNC02LjI0YzAuNzQtMC4zMSwxLjA4LTAuNzEsMS4wMi0xLjExdi0zLjU4ICAgICAgYzAuMDUsMC4zOS0wLjI5LDAuNzktMS4wMiwxLjA5bC0xNS4yNCw2LjI0Yy0xLjM3LDAuNTYtMy42LDAuNTYtNC45NywwTDEuMTMsMjIuN2MtMC44LTAuMzMtMS4xMy0wLjc4LTEtMS4yTDAuMTEsMjUuMTl6Ii8+JiN4YTsJCQk8L2c+JiN4YTsJCQk8ZyBpZD0ic2hhcGU0NDIzLTIxIiB0cmFuc2Zvcm09InRyYW5zbGF0ZSgwLC0xNi4yMzkpIj4mI3hhOwkJCQk8dGl0bGUgaWQ9InRpdGxlODU0NzciPlNoZWV0LjQ0MjM8L3RpdGxlPiYjeGE7CQkJCTxwYXRoIGlkPSJwYXRoODU0NzkiIGlua3NjYXBlOmNvbm5lY3Rvci1jdXJ2YXR1cmU9IjAiIHN0eWxlPSJmaWxsOiNCQTE0MUE7IiBkPSJNMzYuODEsMjQuMjZjMS4zOCwwLjU3LDEuMzgsMS40OCwwLDIuMDQgICAgICBsLTE1LjIzLDYuMjRjLTEuMzcsMC41Ni0zLjYsMC41Ni00Ljk3LDBMMS4zNywyNi4zQzAsMjUuNzQsMCwyNC44MywxLjM3LDI0LjI2bDE1LjI0LTYuMjRjMS4zNy0wLjU2LDMuNi0wLjU2LDQuOTcsMCAgICAgIEwzNi44MSwyNC4yNnoiLz4mI3hhOwkJCTwvZz4mI3hhOwkJPC9nPiYjeGE7CQk8ZyBpZD0ic2hhcGU0NDI0LTIzIiB0cmFuc2Zvcm09InRyYW5zbGF0ZSg2LjM2MTUsLTIyLjExMjMpIj4mI3hhOwkJCTx0aXRsZSBpZD0idGl0bGU4NTQ4MyI+U2hlZXQuNDQyNDwvdGl0bGU+JiN4YTsJCQk8cGF0aCBpZD0icGF0aDg1NDg1IiBpbmtzY2FwZTpjb25uZWN0b3ItY3VydmF0dXJlPSIwIiBzdHlsZT0iZmlsbDojRkZGRkZGOyIgZD0iTTguMDQsMzIuMzNjLTEuNzQsMC43Ny00LjU2LDAuNzctNi4zLDAgICAgIEMwLDMxLjU2LDAsMzAuMywxLjc0LDI5LjUzYzEuNzQtMC43Nyw0LjU2LTAuNzcsNi4zLDBDOS43NywzMC4zLDkuNzgsMzEuNTYsOC4wNCwzMi4zM3oiLz4mI3hhOwkJPC9nPiYjeGE7CQk8ZyBpZD0ic2hhcGU0NDI1LTI1IiB0cmFuc2Zvcm09InRyYW5zbGF0ZSgxMy4yMTgsLTE3Ljk4OCkiPiYjeGE7CQkJPHRpdGxlIGlkPSJ0aXRsZTg1NDg4Ij5TaGVldC40NDI1PC90aXRsZT4mI3hhOwkJCTxwYXRoIGlkPSJwYXRoODU0OTAiIGlua3NjYXBlOmNvbm5lY3Rvci1jdXJ2YXR1cmU9IjAiIHN0eWxlPSJmaWxsOiNGRkZGRkY7IiBkPSJNMCwzMC4ybDguOTItMS4wNkw2LjUzLDMzLjFMMCwzMC4yeiIvPiYjeGE7CQk8L2c+JiN4YTsJCTxnIGlkPSJzaGFwZTQ0MjYtMjciIHRyYW5zZm9ybT0idHJhbnNsYXRlKDIxLjg2NCwtMjEuODkxKSI+JiN4YTsJCQk8dGl0bGUgaWQ9InRpdGxlODU0OTMiPlNoZWV0LjQ0MjY8L3RpdGxlPiYjeGE7CQkJPHBhdGggaWQ9InBhdGg4NTQ5NSIgaW5rc2NhcGU6Y29ubmVjdG9yLWN1cnZhdHVyZT0iMCIgc3R5bGU9ImZpbGw6IzFFMUUxRTtmaWxsLW9wYWNpdHk6MC4yNTsiIGQ9Ik01LjM0LDMzLjFMMCwzMC43M2w1LjM0LTIuMzcgICAgIGw1LjMzLDIuMzdMNS4zNCwzMy4xeiIvPiYjeGE7CQk8L2c+JiN4YTsJCTxnIGlkPSJzaGFwZTQ0MjctMjkiIHRyYW5zZm9ybT0idHJhbnNsYXRlKDIxLjg2NCwtMjEuODkxKSI+JiN4YTsJCQk8dGl0bGUgaWQ9InRpdGxlODU0OTgiPlNoZWV0LjQ0Mjc8L3RpdGxlPiYjeGE7CQkJPHBhdGggaWQ9InBhdGg4NTUwMCIgaW5rc2NhcGU6Y29ubmVjdG9yLWN1cnZhdHVyZT0iMCIgc3R5bGU9ImZpbGw6IzFFMUUxRTtmaWxsLW9wYWNpdHk6MC4yNTsiIGQ9Ik01LjM0LDMzLjFMMCwzMC43M2w1LjM0LTIuMzcgICAgIFYzMy4xeiIvPiYjeGE7CQk8L2c+JiN4YTsJCTxnIGlkPSJzaGFwZTQ0MjgtMzEiIHRyYW5zZm9ybT0idHJhbnNsYXRlKDEzLjg5NjcsLTI1LjYxNTUpIj4mI3hhOwkJCTx0aXRsZSBpZD0idGl0bGU4NTUwMyI+U2hlZXQuNDQyODwvdGl0bGU+JiN4YTsJCQk8cGF0aCBpZD0icGF0aDg1NTA1IiBpbmtzY2FwZTpjb25uZWN0b3ItY3VydmF0dXJlPSIwIiBzdHlsZT0iZmlsbDojRkZGRkZGOyIgZD0iTTMuNDgsMzEuNTVMMCwzMS4yNGwzLjA5LTAuNzhsLTAuNC0xLjU3ICAgICBsMi42MiwxLjA3bDMuMjQtMC42NmwtMS40OCwxLjQ0bDIuNDEsMS4xN2wtMy41NC0wLjE4TDQuMTksMzMuMUwzLjQ4LDMxLjU1eiIvPiYjeGE7CQk8L2c+JiN4YTsJPC9nPiYjeGE7PC9nPiYjeGE7PC9zdmc+;" vertex="1" parent="1">
          <mxGeometry x="1204" y="477" width="38" height="32" as="geometry" />
        </mxCell>
        <mxCell id="a0yiWjh66o21EPFuuch4-2115" value="mysql" style="shape=image;verticalLabelPosition=bottom;labelBackgroundColor=#ffffff;verticalAlign=top;aspect=fixed;imageAspect=0;image=data:image/svg+xml,PHN2ZyB4bWxuczpjYz0iaHR0cDovL2NyZWF0aXZlY29tbW9ucy5vcmcvbnMjIiB4bWxuczpkYz0iaHR0cDovL3B1cmwub3JnL2RjL2VsZW1lbnRzLzEuMS8iIHhtbG5zOmlua3NjYXBlPSJodHRwOi8vd3d3Lmlua3NjYXBlLm9yZy9uYW1lc3BhY2VzL2lua3NjYXBlIiB4bWxuczpyZGY9Imh0dHA6Ly93d3cudzMub3JnLzE5OTkvMDIvMjItcmRmLXN5bnRheC1ucyMiIHhtbG5zOnNvZGlwb2RpPSJodHRwOi8vc29kaXBvZGkuc291cmNlZm9yZ2UubmV0L0RURC9zb2RpcG9kaS0wLmR0ZCIgeG1sbnM6c3ZnPSJodHRwOi8vd3d3LnczLm9yZy8yMDAwL3N2ZyIgeG1sbnM9Imh0dHA6Ly93d3cudzMub3JnLzIwMDAvc3ZnIiB4bWxuczp4bGluaz0iaHR0cDovL3d3dy53My5vcmcvMTk5OS94bGluayIgdmVyc2lvbj0iMS4xIiBpZD0ic3ZnODIzMDkiIGlua3NjYXBlOnZlcnNpb249IjAuOTIuMyAoMjQwNTU0NiwgMjAxOC0wMy0xMSkiIHNvZGlwb2RpOmRvY25hbWU9Im9yYWNsZV9kYXRhYmFzZS5zdmciIHg9IjBweCIgeT0iMHB4IiB2aWV3Qm94PSIwIDAgMzAuNjIgMzQuOTMiIHN0eWxlPSJlbmFibGUtYmFja2dyb3VuZDpuZXcgMCAwIDMwLjYyIDM0LjkzOyIgeG1sOnNwYWNlPSJwcmVzZXJ2ZSI+JiN4YTs8c29kaXBvZGk6bmFtZWR2aWV3IGJvcmRlcmNvbG9yPSIjNjY2NjY2IiBib3JkZXJvcGFjaXR5PSIxIiBmaXQtbWFyZ2luLWJvdHRvbT0iMCIgZml0LW1hcmdpbi1sZWZ0PSIwIiBmaXQtbWFyZ2luLXJpZ2h0PSIwIiBmaXQtbWFyZ2luLXRvcD0iMCIgZ3JpZHRvbGVyYW5jZT0iMTAiIGd1aWRldG9sZXJhbmNlPSIxMCIgaWQ9Im5hbWVkdmlldzgyMzExIiBpbmtzY2FwZTpjdXJyZW50LWxheWVyPSJzdmc4MjMwOSIgaW5rc2NhcGU6Y3g9IjIwLjQxMzUzMyIgaW5rc2NhcGU6Y3k9IjIzLjI4Njg2NiIgaW5rc2NhcGU6cGFnZW9wYWNpdHk9IjAiIGlua3NjYXBlOnBhZ2VzaGFkb3c9IjIiIGlua3NjYXBlOndpbmRvdy1oZWlnaHQ9IjEwMTciIGlua3NjYXBlOndpbmRvdy1tYXhpbWl6ZWQ9IjEiIGlua3NjYXBlOndpbmRvdy13aWR0aD0iMTkyMCIgaW5rc2NhcGU6d2luZG93LXg9Ii04IiBpbmtzY2FwZTp3aW5kb3cteT0iLTgiIGlua3NjYXBlOnpvb209IjE2LjgyODE1NiIgb2JqZWN0dG9sZXJhbmNlPSIxMCIgcGFnZWNvbG9yPSIjZmZmZmZmIiBzaG93Z3JpZD0iZmFsc2UiPiYjeGE7CTwvc29kaXBvZGk6bmFtZWR2aWV3PiYjeGE7PGcgaWQ9Imc4MjMwNyIgdHJhbnNmb3JtPSJ0cmFuc2xhdGUoLTEuODU0NTc4LC0xLjg1MTA1KSI+JiN4YTsJPHRpdGxlIGlkPSJ0aXRsZTgyMjcyIj5QYWdlLTE8L3RpdGxlPiYjeGE7CTxnIGlkPSJncm91cDQzODktMSIgdHJhbnNmb3JtPSJ0cmFuc2xhdGUoMS44NTQ1NSwtMS44NTQ1NSkiPiYjeGE7CQk8dGl0bGUgaWQ9InRpdGxlODIyNzQiPk9yYWNsZSBEYXRhYmFzZTwvdGl0bGU+JiN4YTsJCTxnIGlkPSJzaGFwZTQzOTAtMiIgdHJhbnNmb3JtPSJ0cmFuc2xhdGUoMCwtMC4xMTA1NDMpIj4mI3hhOwkJCTx0aXRsZSBpZD0idGl0bGU4MjI3NiI+U2hlZXQuNDM5MDwvdGl0bGU+JiN4YTsJCQk8cGF0aCBpZD0icGF0aDgyMjc4IiBpbmtzY2FwZTpjb25uZWN0b3ItY3VydmF0dXJlPSIwIiBzdHlsZT0iZmlsbDojRUIyMjI3OyIgZD0iTTE1LjI1LDkuMjRDNi44NSw5LjI0LDAsOC4wMiwwLDYuNDd2MjkuNDEgICAgIGMwLDEuNTQsNi44NSwyLjc2LDE1LjI1LDIuNzZjOC40MSwwLDE1LjI2LTEuMjIsMTUuMjYtMi43NlY2LjQ3QzMwLjYyLDguMDIsMjMuNzcsOS4yNCwxNS4yNSw5LjI0eiIvPiYjeGE7CQk8L2c+JiN4YTsJCTxnIGlkPSJzaGFwZTQzOTEtNCI+JiN4YTsJCQk8dGl0bGUgaWQ9InRpdGxlODIyODEiPlNoZWV0LjQzOTE8L3RpdGxlPiYjeGE7CQkJPHBhdGggaWQ9InBhdGg4MjI4MyIgaW5rc2NhcGU6Y29ubmVjdG9yLWN1cnZhdHVyZT0iMCIgc3R5bGU9ImZpbGw6I0Q4MjMyODsiIGQ9Ik0wLDYuNDd2MjkuNDFjMCwxLjU0LDYuODUsMi43NiwxNS4yNSwyLjc2VjkuMjQgICAgIEM2Ljg1LDkuMTMsMCw3LjkxLDAsNi40N3oiLz4mI3hhOwkJPC9nPiYjeGE7CQk8ZyBpZD0ic2hhcGU0MzkyLTYiIHRyYW5zZm9ybT0idHJhbnNsYXRlKDI4LjUyLC0xLjQzNzA2KSI+JiN4YTsJCQk8dGl0bGUgaWQ9InRpdGxlODIyODYiPlNoZWV0LjQzOTI8L3RpdGxlPiYjeGE7CQkJPHBhdGggaWQ9InBhdGg4MjI4OCIgaW5rc2NhcGU6Y29ubmVjdG9yLWN1cnZhdHVyZT0iMCIgc3R5bGU9ImZpbGw6I0Q4MjMyODsiIGQ9Ik0wLDkuMjR2MjkuNGMxLjMzLTAuNDQsMi4xLTAuODgsMi4xLTEuMzNWNy45MSAgICAgQzIuMSw4LjM1LDEuMzMsOC45LDAsOS4yNHoiLz4mI3hhOwkJPC9nPiYjeGE7CQk8ZyBpZD0ic2hhcGU0MzkzLTgiIHRyYW5zZm9ybT0idHJhbnNsYXRlKDAuMTEwNTQzLC0yOS40MDQ0KSI+JiN4YTsJCQk8dGl0bGUgaWQ9InRpdGxlODIyOTEiPlNoZWV0LjQzOTM8L3RpdGxlPiYjeGE7CQkJPHBhdGggaWQ9InBhdGg4MjI5MyIgaW5rc2NhcGU6Y29ubmVjdG9yLWN1cnZhdHVyZT0iMCIgc3R5bGU9ImZpbGw6I0I5MjMyNzsiIGQ9Ik0zMC41MSwzNS44OGMwLDEuNTQtNi44NSwyLjc2LTE1LjI2LDIuNzYgICAgIEM2Ljg1LDM4LjY0LDAsMzcuNDIsMCwzNS44OGMwLTEuNTUsNi44NS0yLjc3LDE1LjI1LTIuNzdDMjMuNjYsMzMuMTEsMzAuNTEsMzQuMzMsMzAuNTEsMzUuODh6Ii8+JiN4YTsJCTwvZz4mI3hhOwkJPGcgaWQ9InNoYXBlNDM5NC0xMCIgdHJhbnNmb3JtPSJ0cmFuc2xhdGUoMCwtOC43MzI4OCkiPiYjeGE7CQkJPHRpdGxlIGlkPSJ0aXRsZTgyMjk2Ij5TaGVldC40Mzk0PC90aXRsZT4mI3hhOwkJCTxwYXRoIGlkPSJwYXRoODIyOTgiIGlua3NjYXBlOmNvbm5lY3Rvci1jdXJ2YXR1cmU9IjAiIHN0eWxlPSJmaWxsOiM5QTFDMjE7IiBkPSJNMCwzMy42N2MwLDEuNTQsNi44NSwyLjc2LDE1LjI1LDIuNzYgICAgIGM4LjQxLDAsMTUuMjYtMS4yMiwxNS4yNi0yLjc2djIuMjFjMCwxLjU0LTYuODUsMi43Ni0xNS4yNiwyLjc2QzYuODUsMzguNjQsMCwzNy40MiwwLDM1Ljg4VjMzLjY3eiIvPiYjeGE7CQk8L2c+JiN4YTsJCTxnIGlkPSJzaGFwZTQzOTUtMTIiIHRyYW5zZm9ybT0idHJhbnNsYXRlKDAuMTEwNTQzLC0xOC40NjA2KSI+JiN4YTsJCQk8dGl0bGUgaWQ9InRpdGxlODIzMDEiPlNoZWV0LjQzOTU8L3RpdGxlPiYjeGE7CQkJPHBhdGggaWQ9InBhdGg4MjMwMyIgaW5rc2NhcGU6Y29ubmVjdG9yLWN1cnZhdHVyZT0iMCIgc3R5bGU9ImZpbGw6IzlBMUMyMTsiIGQ9Ik0zMC41MSwzMy42N2MwLDEuNTQtNi44NSwyLjc2LTE1LjI2LDIuNzYgICAgIEM2Ljg1LDM2LjQzLDAsMzUuMjEsMCwzMy42N3YyLjIxYzAsMS41NCw2Ljg1LDIuNzYsMTUuMjUsMi43NmM4LjQxLDAsMTUuMjYtMS4yMiwxNS4yNi0yLjc2VjMzLjY3eiIvPiYjeGE7CQk8L2c+JiN4YTsJPC9nPiYjeGE7PC9nPiYjeGE7PC9zdmc+;" vertex="1" parent="1">
          <mxGeometry x="1407" y="330" width="31" height="35" as="geometry" />
        </mxCell>
        <mxCell id="a0yiWjh66o21EPFuuch4-2116" value="ES" style="shape=image;verticalLabelPosition=bottom;labelBackgroundColor=#ffffff;verticalAlign=top;aspect=fixed;imageAspect=0;image=data:image/svg+xml,PHN2ZyB4bWxuczpjYz0iaHR0cDovL2NyZWF0aXZlY29tbW9ucy5vcmcvbnMjIiB4bWxuczpkYz0iaHR0cDovL3B1cmwub3JnL2RjL2VsZW1lbnRzLzEuMS8iIHhtbG5zOmlua3NjYXBlPSJodHRwOi8vd3d3Lmlua3NjYXBlLm9yZy9uYW1lc3BhY2VzL2lua3NjYXBlIiB4bWxuczpyZGY9Imh0dHA6Ly93d3cudzMub3JnLzE5OTkvMDIvMjItcmRmLXN5bnRheC1ucyMiIHhtbG5zOnNvZGlwb2RpPSJodHRwOi8vc29kaXBvZGkuc291cmNlZm9yZ2UubmV0L0RURC9zb2RpcG9kaS0wLmR0ZCIgeG1sbnM6c3ZnPSJodHRwOi8vd3d3LnczLm9yZy8yMDAwL3N2ZyIgeG1sbnM9Imh0dHA6Ly93d3cudzMub3JnLzIwMDAvc3ZnIiB4bWxuczp4bGluaz0iaHR0cDovL3d3dy53My5vcmcvMTk5OS94bGluayIgdmVyc2lvbj0iMS4xIiBpZD0ic3ZnODIzMDkiIGlua3NjYXBlOnZlcnNpb249IjAuOTIuMyAoMjQwNTU0NiwgMjAxOC0wMy0xMSkiIHNvZGlwb2RpOmRvY25hbWU9Im9yYWNsZV9kYXRhYmFzZS5zdmciIHg9IjBweCIgeT0iMHB4IiB2aWV3Qm94PSIwIDAgMzAuNjIgMzQuOTMiIHN0eWxlPSJlbmFibGUtYmFja2dyb3VuZDpuZXcgMCAwIDMwLjYyIDM0LjkzOyIgeG1sOnNwYWNlPSJwcmVzZXJ2ZSI+JiN4YTs8c29kaXBvZGk6bmFtZWR2aWV3IGJvcmRlcmNvbG9yPSIjNjY2NjY2IiBib3JkZXJvcGFjaXR5PSIxIiBmaXQtbWFyZ2luLWJvdHRvbT0iMCIgZml0LW1hcmdpbi1sZWZ0PSIwIiBmaXQtbWFyZ2luLXJpZ2h0PSIwIiBmaXQtbWFyZ2luLXRvcD0iMCIgZ3JpZHRvbGVyYW5jZT0iMTAiIGd1aWRldG9sZXJhbmNlPSIxMCIgaWQ9Im5hbWVkdmlldzgyMzExIiBpbmtzY2FwZTpjdXJyZW50LWxheWVyPSJzdmc4MjMwOSIgaW5rc2NhcGU6Y3g9IjIwLjQxMzUzMyIgaW5rc2NhcGU6Y3k9IjIzLjI4Njg2NiIgaW5rc2NhcGU6cGFnZW9wYWNpdHk9IjAiIGlua3NjYXBlOnBhZ2VzaGFkb3c9IjIiIGlua3NjYXBlOndpbmRvdy1oZWlnaHQ9IjEwMTciIGlua3NjYXBlOndpbmRvdy1tYXhpbWl6ZWQ9IjEiIGlua3NjYXBlOndpbmRvdy13aWR0aD0iMTkyMCIgaW5rc2NhcGU6d2luZG93LXg9Ii04IiBpbmtzY2FwZTp3aW5kb3cteT0iLTgiIGlua3NjYXBlOnpvb209IjE2LjgyODE1NiIgb2JqZWN0dG9sZXJhbmNlPSIxMCIgcGFnZWNvbG9yPSIjZmZmZmZmIiBzaG93Z3JpZD0iZmFsc2UiPiYjeGE7CTwvc29kaXBvZGk6bmFtZWR2aWV3PiYjeGE7PGcgaWQ9Imc4MjMwNyIgdHJhbnNmb3JtPSJ0cmFuc2xhdGUoLTEuODU0NTc4LC0xLjg1MTA1KSI+JiN4YTsJPHRpdGxlIGlkPSJ0aXRsZTgyMjcyIj5QYWdlLTE8L3RpdGxlPiYjeGE7CTxnIGlkPSJncm91cDQzODktMSIgdHJhbnNmb3JtPSJ0cmFuc2xhdGUoMS44NTQ1NSwtMS44NTQ1NSkiPiYjeGE7CQk8dGl0bGUgaWQ9InRpdGxlODIyNzQiPk9yYWNsZSBEYXRhYmFzZTwvdGl0bGU+JiN4YTsJCTxnIGlkPSJzaGFwZTQzOTAtMiIgdHJhbnNmb3JtPSJ0cmFuc2xhdGUoMCwtMC4xMTA1NDMpIj4mI3hhOwkJCTx0aXRsZSBpZD0idGl0bGU4MjI3NiI+U2hlZXQuNDM5MDwvdGl0bGU+JiN4YTsJCQk8cGF0aCBpZD0icGF0aDgyMjc4IiBpbmtzY2FwZTpjb25uZWN0b3ItY3VydmF0dXJlPSIwIiBzdHlsZT0iZmlsbDojRUIyMjI3OyIgZD0iTTE1LjI1LDkuMjRDNi44NSw5LjI0LDAsOC4wMiwwLDYuNDd2MjkuNDEgICAgIGMwLDEuNTQsNi44NSwyLjc2LDE1LjI1LDIuNzZjOC40MSwwLDE1LjI2LTEuMjIsMTUuMjYtMi43NlY2LjQ3QzMwLjYyLDguMDIsMjMuNzcsOS4yNCwxNS4yNSw5LjI0eiIvPiYjeGE7CQk8L2c+JiN4YTsJCTxnIGlkPSJzaGFwZTQzOTEtNCI+JiN4YTsJCQk8dGl0bGUgaWQ9InRpdGxlODIyODEiPlNoZWV0LjQzOTE8L3RpdGxlPiYjeGE7CQkJPHBhdGggaWQ9InBhdGg4MjI4MyIgaW5rc2NhcGU6Y29ubmVjdG9yLWN1cnZhdHVyZT0iMCIgc3R5bGU9ImZpbGw6I0Q4MjMyODsiIGQ9Ik0wLDYuNDd2MjkuNDFjMCwxLjU0LDYuODUsMi43NiwxNS4yNSwyLjc2VjkuMjQgICAgIEM2Ljg1LDkuMTMsMCw3LjkxLDAsNi40N3oiLz4mI3hhOwkJPC9nPiYjeGE7CQk8ZyBpZD0ic2hhcGU0MzkyLTYiIHRyYW5zZm9ybT0idHJhbnNsYXRlKDI4LjUyLC0xLjQzNzA2KSI+JiN4YTsJCQk8dGl0bGUgaWQ9InRpdGxlODIyODYiPlNoZWV0LjQzOTI8L3RpdGxlPiYjeGE7CQkJPHBhdGggaWQ9InBhdGg4MjI4OCIgaW5rc2NhcGU6Y29ubmVjdG9yLWN1cnZhdHVyZT0iMCIgc3R5bGU9ImZpbGw6I0Q4MjMyODsiIGQ9Ik0wLDkuMjR2MjkuNGMxLjMzLTAuNDQsMi4xLTAuODgsMi4xLTEuMzNWNy45MSAgICAgQzIuMSw4LjM1LDEuMzMsOC45LDAsOS4yNHoiLz4mI3hhOwkJPC9nPiYjeGE7CQk8ZyBpZD0ic2hhcGU0MzkzLTgiIHRyYW5zZm9ybT0idHJhbnNsYXRlKDAuMTEwNTQzLC0yOS40MDQ0KSI+JiN4YTsJCQk8dGl0bGUgaWQ9InRpdGxlODIyOTEiPlNoZWV0LjQzOTM8L3RpdGxlPiYjeGE7CQkJPHBhdGggaWQ9InBhdGg4MjI5MyIgaW5rc2NhcGU6Y29ubmVjdG9yLWN1cnZhdHVyZT0iMCIgc3R5bGU9ImZpbGw6I0I5MjMyNzsiIGQ9Ik0zMC41MSwzNS44OGMwLDEuNTQtNi44NSwyLjc2LTE1LjI2LDIuNzYgICAgIEM2Ljg1LDM4LjY0LDAsMzcuNDIsMCwzNS44OGMwLTEuNTUsNi44NS0yLjc3LDE1LjI1LTIuNzdDMjMuNjYsMzMuMTEsMzAuNTEsMzQuMzMsMzAuNTEsMzUuODh6Ii8+JiN4YTsJCTwvZz4mI3hhOwkJPGcgaWQ9InNoYXBlNDM5NC0xMCIgdHJhbnNmb3JtPSJ0cmFuc2xhdGUoMCwtOC43MzI4OCkiPiYjeGE7CQkJPHRpdGxlIGlkPSJ0aXRsZTgyMjk2Ij5TaGVldC40Mzk0PC90aXRsZT4mI3hhOwkJCTxwYXRoIGlkPSJwYXRoODIyOTgiIGlua3NjYXBlOmNvbm5lY3Rvci1jdXJ2YXR1cmU9IjAiIHN0eWxlPSJmaWxsOiM5QTFDMjE7IiBkPSJNMCwzMy42N2MwLDEuNTQsNi44NSwyLjc2LDE1LjI1LDIuNzYgICAgIGM4LjQxLDAsMTUuMjYtMS4yMiwxNS4yNi0yLjc2djIuMjFjMCwxLjU0LTYuODUsMi43Ni0xNS4yNiwyLjc2QzYuODUsMzguNjQsMCwzNy40MiwwLDM1Ljg4VjMzLjY3eiIvPiYjeGE7CQk8L2c+JiN4YTsJCTxnIGlkPSJzaGFwZTQzOTUtMTIiIHRyYW5zZm9ybT0idHJhbnNsYXRlKDAuMTEwNTQzLC0xOC40NjA2KSI+JiN4YTsJCQk8dGl0bGUgaWQ9InRpdGxlODIzMDEiPlNoZWV0LjQzOTU8L3RpdGxlPiYjeGE7CQkJPHBhdGggaWQ9InBhdGg4MjMwMyIgaW5rc2NhcGU6Y29ubmVjdG9yLWN1cnZhdHVyZT0iMCIgc3R5bGU9ImZpbGw6IzlBMUMyMTsiIGQ9Ik0zMC41MSwzMy42N2MwLDEuNTQtNi44NSwyLjc2LTE1LjI2LDIuNzYgICAgIEM2Ljg1LDM2LjQzLDAsMzUuMjEsMCwzMy42N3YyLjIxYzAsMS41NCw2Ljg1LDIuNzYsMTUuMjUsMi43NmM4LjQxLDAsMTUuMjYtMS4yMiwxNS4yNi0yLjc2VjMzLjY3eiIvPiYjeGE7CQk8L2c+JiN4YTsJPC9nPiYjeGE7PC9nPiYjeGE7PC9zdmc+;" vertex="1" parent="1">
          <mxGeometry x="1407" y="417" width="31" height="35" as="geometry" />
        </mxCell>
        <mxCell id="a0yiWjh66o21EPFuuch4-2117" value="mongodb" style="shape=image;verticalLabelPosition=bottom;labelBackgroundColor=#ffffff;verticalAlign=top;aspect=fixed;imageAspect=0;image=data:image/svg+xml,PHN2ZyB4bWxuczpjYz0iaHR0cDovL2NyZWF0aXZlY29tbW9ucy5vcmcvbnMjIiB4bWxuczpkYz0iaHR0cDovL3B1cmwub3JnL2RjL2VsZW1lbnRzLzEuMS8iIHhtbG5zOmlua3NjYXBlPSJodHRwOi8vd3d3Lmlua3NjYXBlLm9yZy9uYW1lc3BhY2VzL2lua3NjYXBlIiB4bWxuczpyZGY9Imh0dHA6Ly93d3cudzMub3JnLzE5OTkvMDIvMjItcmRmLXN5bnRheC1ucyMiIHhtbG5zOnNvZGlwb2RpPSJodHRwOi8vc29kaXBvZGkuc291cmNlZm9yZ2UubmV0L0RURC9zb2RpcG9kaS0wLmR0ZCIgeG1sbnM6c3ZnPSJodHRwOi8vd3d3LnczLm9yZy8yMDAwL3N2ZyIgeG1sbnM9Imh0dHA6Ly93d3cudzMub3JnLzIwMDAvc3ZnIiB4bWxuczp4bGluaz0iaHR0cDovL3d3dy53My5vcmcvMTk5OS94bGluayIgdmVyc2lvbj0iMS4xIiBpZD0ic3ZnODIzMDkiIGlua3NjYXBlOnZlcnNpb249IjAuOTIuMyAoMjQwNTU0NiwgMjAxOC0wMy0xMSkiIHNvZGlwb2RpOmRvY25hbWU9Im9yYWNsZV9kYXRhYmFzZS5zdmciIHg9IjBweCIgeT0iMHB4IiB2aWV3Qm94PSIwIDAgMzAuNjIgMzQuOTMiIHN0eWxlPSJlbmFibGUtYmFja2dyb3VuZDpuZXcgMCAwIDMwLjYyIDM0LjkzOyIgeG1sOnNwYWNlPSJwcmVzZXJ2ZSI+JiN4YTs8c29kaXBvZGk6bmFtZWR2aWV3IGJvcmRlcmNvbG9yPSIjNjY2NjY2IiBib3JkZXJvcGFjaXR5PSIxIiBmaXQtbWFyZ2luLWJvdHRvbT0iMCIgZml0LW1hcmdpbi1sZWZ0PSIwIiBmaXQtbWFyZ2luLXJpZ2h0PSIwIiBmaXQtbWFyZ2luLXRvcD0iMCIgZ3JpZHRvbGVyYW5jZT0iMTAiIGd1aWRldG9sZXJhbmNlPSIxMCIgaWQ9Im5hbWVkdmlldzgyMzExIiBpbmtzY2FwZTpjdXJyZW50LWxheWVyPSJzdmc4MjMwOSIgaW5rc2NhcGU6Y3g9IjIwLjQxMzUzMyIgaW5rc2NhcGU6Y3k9IjIzLjI4Njg2NiIgaW5rc2NhcGU6cGFnZW9wYWNpdHk9IjAiIGlua3NjYXBlOnBhZ2VzaGFkb3c9IjIiIGlua3NjYXBlOndpbmRvdy1oZWlnaHQ9IjEwMTciIGlua3NjYXBlOndpbmRvdy1tYXhpbWl6ZWQ9IjEiIGlua3NjYXBlOndpbmRvdy13aWR0aD0iMTkyMCIgaW5rc2NhcGU6d2luZG93LXg9Ii04IiBpbmtzY2FwZTp3aW5kb3cteT0iLTgiIGlua3NjYXBlOnpvb209IjE2LjgyODE1NiIgb2JqZWN0dG9sZXJhbmNlPSIxMCIgcGFnZWNvbG9yPSIjZmZmZmZmIiBzaG93Z3JpZD0iZmFsc2UiPiYjeGE7CTwvc29kaXBvZGk6bmFtZWR2aWV3PiYjeGE7PGcgaWQ9Imc4MjMwNyIgdHJhbnNmb3JtPSJ0cmFuc2xhdGUoLTEuODU0NTc4LC0xLjg1MTA1KSI+JiN4YTsJPHRpdGxlIGlkPSJ0aXRsZTgyMjcyIj5QYWdlLTE8L3RpdGxlPiYjeGE7CTxnIGlkPSJncm91cDQzODktMSIgdHJhbnNmb3JtPSJ0cmFuc2xhdGUoMS44NTQ1NSwtMS44NTQ1NSkiPiYjeGE7CQk8dGl0bGUgaWQ9InRpdGxlODIyNzQiPk9yYWNsZSBEYXRhYmFzZTwvdGl0bGU+JiN4YTsJCTxnIGlkPSJzaGFwZTQzOTAtMiIgdHJhbnNmb3JtPSJ0cmFuc2xhdGUoMCwtMC4xMTA1NDMpIj4mI3hhOwkJCTx0aXRsZSBpZD0idGl0bGU4MjI3NiI+U2hlZXQuNDM5MDwvdGl0bGU+JiN4YTsJCQk8cGF0aCBpZD0icGF0aDgyMjc4IiBpbmtzY2FwZTpjb25uZWN0b3ItY3VydmF0dXJlPSIwIiBzdHlsZT0iZmlsbDojRUIyMjI3OyIgZD0iTTE1LjI1LDkuMjRDNi44NSw5LjI0LDAsOC4wMiwwLDYuNDd2MjkuNDEgICAgIGMwLDEuNTQsNi44NSwyLjc2LDE1LjI1LDIuNzZjOC40MSwwLDE1LjI2LTEuMjIsMTUuMjYtMi43NlY2LjQ3QzMwLjYyLDguMDIsMjMuNzcsOS4yNCwxNS4yNSw5LjI0eiIvPiYjeGE7CQk8L2c+JiN4YTsJCTxnIGlkPSJzaGFwZTQzOTEtNCI+JiN4YTsJCQk8dGl0bGUgaWQ9InRpdGxlODIyODEiPlNoZWV0LjQzOTE8L3RpdGxlPiYjeGE7CQkJPHBhdGggaWQ9InBhdGg4MjI4MyIgaW5rc2NhcGU6Y29ubmVjdG9yLWN1cnZhdHVyZT0iMCIgc3R5bGU9ImZpbGw6I0Q4MjMyODsiIGQ9Ik0wLDYuNDd2MjkuNDFjMCwxLjU0LDYuODUsMi43NiwxNS4yNSwyLjc2VjkuMjQgICAgIEM2Ljg1LDkuMTMsMCw3LjkxLDAsNi40N3oiLz4mI3hhOwkJPC9nPiYjeGE7CQk8ZyBpZD0ic2hhcGU0MzkyLTYiIHRyYW5zZm9ybT0idHJhbnNsYXRlKDI4LjUyLC0xLjQzNzA2KSI+JiN4YTsJCQk8dGl0bGUgaWQ9InRpdGxlODIyODYiPlNoZWV0LjQzOTI8L3RpdGxlPiYjeGE7CQkJPHBhdGggaWQ9InBhdGg4MjI4OCIgaW5rc2NhcGU6Y29ubmVjdG9yLWN1cnZhdHVyZT0iMCIgc3R5bGU9ImZpbGw6I0Q4MjMyODsiIGQ9Ik0wLDkuMjR2MjkuNGMxLjMzLTAuNDQsMi4xLTAuODgsMi4xLTEuMzNWNy45MSAgICAgQzIuMSw4LjM1LDEuMzMsOC45LDAsOS4yNHoiLz4mI3hhOwkJPC9nPiYjeGE7CQk8ZyBpZD0ic2hhcGU0MzkzLTgiIHRyYW5zZm9ybT0idHJhbnNsYXRlKDAuMTEwNTQzLC0yOS40MDQ0KSI+JiN4YTsJCQk8dGl0bGUgaWQ9InRpdGxlODIyOTEiPlNoZWV0LjQzOTM8L3RpdGxlPiYjeGE7CQkJPHBhdGggaWQ9InBhdGg4MjI5MyIgaW5rc2NhcGU6Y29ubmVjdG9yLWN1cnZhdHVyZT0iMCIgc3R5bGU9ImZpbGw6I0I5MjMyNzsiIGQ9Ik0zMC41MSwzNS44OGMwLDEuNTQtNi44NSwyLjc2LTE1LjI2LDIuNzYgICAgIEM2Ljg1LDM4LjY0LDAsMzcuNDIsMCwzNS44OGMwLTEuNTUsNi44NS0yLjc3LDE1LjI1LTIuNzdDMjMuNjYsMzMuMTEsMzAuNTEsMzQuMzMsMzAuNTEsMzUuODh6Ii8+JiN4YTsJCTwvZz4mI3hhOwkJPGcgaWQ9InNoYXBlNDM5NC0xMCIgdHJhbnNmb3JtPSJ0cmFuc2xhdGUoMCwtOC43MzI4OCkiPiYjeGE7CQkJPHRpdGxlIGlkPSJ0aXRsZTgyMjk2Ij5TaGVldC40Mzk0PC90aXRsZT4mI3hhOwkJCTxwYXRoIGlkPSJwYXRoODIyOTgiIGlua3NjYXBlOmNvbm5lY3Rvci1jdXJ2YXR1cmU9IjAiIHN0eWxlPSJmaWxsOiM5QTFDMjE7IiBkPSJNMCwzMy42N2MwLDEuNTQsNi44NSwyLjc2LDE1LjI1LDIuNzYgICAgIGM4LjQxLDAsMTUuMjYtMS4yMiwxNS4yNi0yLjc2djIuMjFjMCwxLjU0LTYuODUsMi43Ni0xNS4yNiwyLjc2QzYuODUsMzguNjQsMCwzNy40MiwwLDM1Ljg4VjMzLjY3eiIvPiYjeGE7CQk8L2c+JiN4YTsJCTxnIGlkPSJzaGFwZTQzOTUtMTIiIHRyYW5zZm9ybT0idHJhbnNsYXRlKDAuMTEwNTQzLC0xOC40NjA2KSI+JiN4YTsJCQk8dGl0bGUgaWQ9InRpdGxlODIzMDEiPlNoZWV0LjQzOTU8L3RpdGxlPiYjeGE7CQkJPHBhdGggaWQ9InBhdGg4MjMwMyIgaW5rc2NhcGU6Y29ubmVjdG9yLWN1cnZhdHVyZT0iMCIgc3R5bGU9ImZpbGw6IzlBMUMyMTsiIGQ9Ik0zMC41MSwzMy42N2MwLDEuNTQtNi44NSwyLjc2LTE1LjI2LDIuNzYgICAgIEM2Ljg1LDM2LjQzLDAsMzUuMjEsMCwzMy42N3YyLjIxYzAsMS41NCw2Ljg1LDIuNzYsMTUuMjUsMi43NmM4LjQxLDAsMTUuMjYtMS4yMiwxNS4yNi0yLjc2VjMzLjY3eiIvPiYjeGE7CQk8L2c+JiN4YTsJPC9nPiYjeGE7PC9nPiYjeGE7PC9zdmc+;" vertex="1" parent="1">
          <mxGeometry x="1407" y="509" width="31" height="35" as="geometry" />
        </mxCell>
        <mxCell id="a0yiWjh66o21EPFuuch4-2119" value="&lt;font style=&quot;font-size: 18px&quot;&gt;托管IDC+虚拟化vmware EXSI&lt;br&gt;cloud (K8S + docker + istio)&lt;/font&gt;" style="rounded=1;whiteSpace=wrap;html=1;dashed=1;strokeColor=none;strokeWidth=2;fillColor=#E6E6E6;fontFamily=Verdana;fontSize=12;fontColor=#00BEF2" vertex="1" parent="1">
          <mxGeometry x="760" y="800" width="349" height="60" as="geometry" />
        </mxCell>
        <mxCell id="a0yiWjh66o21EPFuuch4-2121" value="&lt;span style=&quot;font-size: 18px&quot;&gt;托管IDC+物理服务器&lt;/span&gt;&lt;br style=&quot;font-size: 18px&quot;&gt;&lt;span style=&quot;font-size: 18px&quot;&gt;cloud (redis + kafka +mysql + ES)&lt;/span&gt;" style="rounded=1;whiteSpace=wrap;html=1;dashed=1;strokeColor=none;strokeWidth=2;fillColor=#E6E6E6;fontFamily=Verdana;fontSize=12;fontColor=#00BEF2" vertex="1" parent="1">
          <mxGeometry x="1140" y="800" width="349" height="60" as="geometry" />
        </mxCell>
      </root>
    </mxGraphModel>
  </diagram>
</mxfile>
